<?xml version="1.0" encoding="utf-8" standalone="no"?>
<!DOCTYPE svg PUBLIC "-//W3C//DTD SVG 1.1//EN"
  "http://www.w3.org/Graphics/SVG/1.1/DTD/svg11.dtd">
<!-- Created with matplotlib (https://matplotlib.org/) -->
<svg height="2160pt" version="1.1" viewBox="0 0 2880 2160" width="2880pt" xmlns="http://www.w3.org/2000/svg" xmlns:xlink="http://www.w3.org/1999/xlink">
 <defs>
  <style type="text/css">
*{stroke-linecap:butt;stroke-linejoin:round;}
  </style>
 </defs>
 <g id="figure_1">
  <g id="patch_1">
   <path d="M 0 2160 
L 2880 2160 
L 2880 0 
L 0 0 
z
" style="fill:#ffffff;"/>
  </g>
  <g id="axes_1">
   <g id="patch_2">
    <path d="M 360 688.357895 
L 947.368421 688.357895 
L 947.368421 259.2 
L 360 259.2 
z
" style="fill:#ffffff;"/>
   </g>
   <g id="matplotlib.axis_1">
    <g id="xtick_1">
     <g id="line2d_1">
      <defs>
       <path d="M 0 0 
L 0 3.5 
" id="mc7f77383c8" style="stroke:#000000;stroke-width:0.8;"/>
      </defs>
      <g>
       <use style="stroke:#000000;stroke-width:0.8;" x="447.017544" xlink:href="#mc7f77383c8" y="688.357895"/>
      </g>
     </g>
    </g>
    <g id="xtick_2">
     <g id="line2d_2">
      <g>
       <use style="stroke:#000000;stroke-width:0.8;" x="555.789474" xlink:href="#mc7f77383c8" y="688.357895"/>
      </g>
     </g>
    </g>
    <g id="xtick_3">
     <g id="line2d_3">
      <g>
       <use style="stroke:#000000;stroke-width:0.8;" x="664.561404" xlink:href="#mc7f77383c8" y="688.357895"/>
      </g>
     </g>
    </g>
    <g id="xtick_4">
     <g id="line2d_4">
      <g>
       <use style="stroke:#000000;stroke-width:0.8;" x="773.333333" xlink:href="#mc7f77383c8" y="688.357895"/>
      </g>
     </g>
    </g>
    <g id="xtick_5">
     <g id="line2d_5">
      <g>
       <use style="stroke:#000000;stroke-width:0.8;" x="882.105263" xlink:href="#mc7f77383c8" y="688.357895"/>
      </g>
     </g>
    </g>
   </g>
   <g id="matplotlib.axis_2">
    <g id="ytick_1">
     <g id="line2d_6">
      <defs>
       <path d="M 0 0 
L -3.5 0 
" id="m779b82455c" style="stroke:#000000;stroke-width:0.8;"/>
      </defs>
      <g>
       <use style="stroke:#000000;stroke-width:0.8;" x="360" xlink:href="#m779b82455c" y="350.793422"/>
      </g>
     </g>
     <g id="text_1">
      <!-- $\mathdefault{10^{2}}$ -->
      <defs>
       <path d="M 12.40625 8.296875 
L 28.515625 8.296875 
L 28.515625 63.921875 
L 10.984375 60.40625 
L 10.984375 69.390625 
L 28.421875 72.90625 
L 38.28125 72.90625 
L 38.28125 8.296875 
L 54.390625 8.296875 
L 54.390625 0 
L 12.40625 0 
z
" id="DejaVuSans-49"/>
       <path d="M 31.78125 66.40625 
Q 24.171875 66.40625 20.328125 58.90625 
Q 16.5 51.421875 16.5 36.375 
Q 16.5 21.390625 20.328125 13.890625 
Q 24.171875 6.390625 31.78125 6.390625 
Q 39.453125 6.390625 43.28125 13.890625 
Q 47.125 21.390625 47.125 36.375 
Q 47.125 51.421875 43.28125 58.90625 
Q 39.453125 66.40625 31.78125 66.40625 
z
M 31.78125 74.21875 
Q 44.046875 74.21875 50.515625 64.515625 
Q 56.984375 54.828125 56.984375 36.375 
Q 56.984375 17.96875 50.515625 8.265625 
Q 44.046875 -1.421875 31.78125 -1.421875 
Q 19.53125 -1.421875 13.0625 8.265625 
Q 6.59375 17.96875 6.59375 36.375 
Q 6.59375 54.828125 13.0625 64.515625 
Q 19.53125 74.21875 31.78125 74.21875 
z
" id="DejaVuSans-48"/>
       <path d="M 19.1875 8.296875 
L 53.609375 8.296875 
L 53.609375 0 
L 7.328125 0 
L 7.328125 8.296875 
Q 12.9375 14.109375 22.625 23.890625 
Q 32.328125 33.6875 34.8125 36.53125 
Q 39.546875 41.84375 41.421875 45.53125 
Q 43.3125 49.21875 43.3125 52.78125 
Q 43.3125 58.59375 39.234375 62.25 
Q 35.15625 65.921875 28.609375 65.921875 
Q 23.96875 65.921875 18.8125 64.3125 
Q 13.671875 62.703125 7.8125 59.421875 
L 7.8125 69.390625 
Q 13.765625 71.78125 18.9375 73 
Q 24.125 74.21875 28.421875 74.21875 
Q 39.75 74.21875 46.484375 68.546875 
Q 53.21875 62.890625 53.21875 53.421875 
Q 53.21875 48.921875 51.53125 44.890625 
Q 49.859375 40.875 45.40625 35.40625 
Q 44.1875 33.984375 37.640625 27.21875 
Q 31.109375 20.453125 19.1875 8.296875 
z
" id="DejaVuSans-50"/>
      </defs>
      <g transform="translate(335.4 354.59264)scale(0.1 -0.1)">
       <use transform="translate(0 0.765625)" xlink:href="#DejaVuSans-49"/>
       <use transform="translate(63.623047 0.765625)" xlink:href="#DejaVuSans-48"/>
       <use transform="translate(128.203125 39.046875)scale(0.7)" xlink:href="#DejaVuSans-50"/>
      </g>
     </g>
    </g>
    <g id="ytick_2">
     <g id="line2d_7">
      <defs>
       <path d="M 0 0 
L -2 0 
" id="m4343bea4be" style="stroke:#000000;stroke-width:0.6;"/>
      </defs>
      <g>
       <use style="stroke:#000000;stroke-width:0.6;" x="360" xlink:href="#m4343bea4be" y="627.329511"/>
      </g>
     </g>
     <g id="text_2">
      <!-- $\mathdefault{3\times10^{1}}$ -->
      <defs>
       <path d="M 40.578125 39.3125 
Q 47.65625 37.796875 51.625 33 
Q 55.609375 28.21875 55.609375 21.1875 
Q 55.609375 10.40625 48.1875 4.484375 
Q 40.765625 -1.421875 27.09375 -1.421875 
Q 22.515625 -1.421875 17.65625 -0.515625 
Q 12.796875 0.390625 7.625 2.203125 
L 7.625 11.71875 
Q 11.71875 9.328125 16.59375 8.109375 
Q 21.484375 6.890625 26.8125 6.890625 
Q 36.078125 6.890625 40.9375 10.546875 
Q 45.796875 14.203125 45.796875 21.1875 
Q 45.796875 27.640625 41.28125 31.265625 
Q 36.765625 34.90625 28.71875 34.90625 
L 20.21875 34.90625 
L 20.21875 43.015625 
L 29.109375 43.015625 
Q 36.375 43.015625 40.234375 45.921875 
Q 44.09375 48.828125 44.09375 54.296875 
Q 44.09375 59.90625 40.109375 62.90625 
Q 36.140625 65.921875 28.71875 65.921875 
Q 24.65625 65.921875 20.015625 65.03125 
Q 15.375 64.15625 9.8125 62.3125 
L 9.8125 71.09375 
Q 15.4375 72.65625 20.34375 73.4375 
Q 25.25 74.21875 29.59375 74.21875 
Q 40.828125 74.21875 47.359375 69.109375 
Q 53.90625 64.015625 53.90625 55.328125 
Q 53.90625 49.265625 50.4375 45.09375 
Q 46.96875 40.921875 40.578125 39.3125 
z
" id="DejaVuSans-51"/>
       <path d="M 70.125 53.71875 
L 47.796875 31.296875 
L 70.125 8.984375 
L 64.3125 3.078125 
L 41.890625 25.484375 
L 19.484375 3.078125 
L 13.71875 8.984375 
L 35.984375 31.296875 
L 13.71875 53.71875 
L 19.484375 59.625 
L 41.890625 37.203125 
L 64.3125 59.625 
z
" id="DejaVuSans-215"/>
      </defs>
      <g transform="translate(318.4 631.12873)scale(0.1 -0.1)">
       <use transform="translate(0 0.684375)" xlink:href="#DejaVuSans-51"/>
       <use transform="translate(83.105469 0.684375)" xlink:href="#DejaVuSans-215"/>
       <use transform="translate(186.376953 0.684375)" xlink:href="#DejaVuSans-49"/>
       <use transform="translate(250 0.684375)" xlink:href="#DejaVuSans-48"/>
       <use transform="translate(314.580078 38.965625)scale(0.7)" xlink:href="#DejaVuSans-49"/>
      </g>
     </g>
    </g>
    <g id="ytick_3">
     <g id="line2d_8">
      <g>
       <use style="stroke:#000000;stroke-width:0.6;" x="360" xlink:href="#m4343bea4be" y="561.252873"/>
      </g>
     </g>
     <g id="text_3">
      <!-- $\mathdefault{4\times10^{1}}$ -->
      <defs>
       <path d="M 37.796875 64.3125 
L 12.890625 25.390625 
L 37.796875 25.390625 
z
M 35.203125 72.90625 
L 47.609375 72.90625 
L 47.609375 25.390625 
L 58.015625 25.390625 
L 58.015625 17.1875 
L 47.609375 17.1875 
L 47.609375 0 
L 37.796875 0 
L 37.796875 17.1875 
L 4.890625 17.1875 
L 4.890625 26.703125 
z
" id="DejaVuSans-52"/>
      </defs>
      <g transform="translate(318.4 565.052092)scale(0.1 -0.1)">
       <use transform="translate(0 0.684375)" xlink:href="#DejaVuSans-52"/>
       <use transform="translate(83.105469 0.684375)" xlink:href="#DejaVuSans-215"/>
       <use transform="translate(186.376953 0.684375)" xlink:href="#DejaVuSans-49"/>
       <use transform="translate(250 0.684375)" xlink:href="#DejaVuSans-48"/>
       <use transform="translate(314.580078 38.965625)scale(0.7)" xlink:href="#DejaVuSans-49"/>
      </g>
     </g>
    </g>
    <g id="ytick_4">
     <g id="line2d_9">
      <g>
       <use style="stroke:#000000;stroke-width:0.6;" x="360" xlink:href="#m4343bea4be" y="509.999851"/>
      </g>
     </g>
    </g>
    <g id="ytick_5">
     <g id="line2d_10">
      <g>
       <use style="stroke:#000000;stroke-width:0.6;" x="360" xlink:href="#m4343bea4be" y="468.123082"/>
      </g>
     </g>
     <g id="text_4">
      <!-- $\mathdefault{6\times10^{1}}$ -->
      <defs>
       <path d="M 33.015625 40.375 
Q 26.375 40.375 22.484375 35.828125 
Q 18.609375 31.296875 18.609375 23.390625 
Q 18.609375 15.53125 22.484375 10.953125 
Q 26.375 6.390625 33.015625 6.390625 
Q 39.65625 6.390625 43.53125 10.953125 
Q 47.40625 15.53125 47.40625 23.390625 
Q 47.40625 31.296875 43.53125 35.828125 
Q 39.65625 40.375 33.015625 40.375 
z
M 52.59375 71.296875 
L 52.59375 62.3125 
Q 48.875 64.0625 45.09375 64.984375 
Q 41.3125 65.921875 37.59375 65.921875 
Q 27.828125 65.921875 22.671875 59.328125 
Q 17.53125 52.734375 16.796875 39.40625 
Q 19.671875 43.65625 24.015625 45.921875 
Q 28.375 48.1875 33.59375 48.1875 
Q 44.578125 48.1875 50.953125 41.515625 
Q 57.328125 34.859375 57.328125 23.390625 
Q 57.328125 12.15625 50.6875 5.359375 
Q 44.046875 -1.421875 33.015625 -1.421875 
Q 20.359375 -1.421875 13.671875 8.265625 
Q 6.984375 17.96875 6.984375 36.375 
Q 6.984375 53.65625 15.1875 63.9375 
Q 23.390625 74.21875 37.203125 74.21875 
Q 40.921875 74.21875 44.703125 73.484375 
Q 48.484375 72.75 52.59375 71.296875 
z
" id="DejaVuSans-54"/>
      </defs>
      <g transform="translate(318.4 471.922301)scale(0.1 -0.1)">
       <use transform="translate(0 0.684375)" xlink:href="#DejaVuSans-54"/>
       <use transform="translate(83.105469 0.684375)" xlink:href="#DejaVuSans-215"/>
       <use transform="translate(186.376953 0.684375)" xlink:href="#DejaVuSans-49"/>
       <use transform="translate(250 0.684375)" xlink:href="#DejaVuSans-48"/>
       <use transform="translate(314.580078 38.965625)scale(0.7)" xlink:href="#DejaVuSans-49"/>
      </g>
     </g>
    </g>
    <g id="ytick_6">
     <g id="line2d_11">
      <g>
       <use style="stroke:#000000;stroke-width:0.6;" x="360" xlink:href="#m4343bea4be" y="432.716779"/>
      </g>
     </g>
    </g>
    <g id="ytick_7">
     <g id="line2d_12">
      <g>
       <use style="stroke:#000000;stroke-width:0.6;" x="360" xlink:href="#m4343bea4be" y="402.046444"/>
      </g>
     </g>
    </g>
    <g id="ytick_8">
     <g id="line2d_13">
      <g>
       <use style="stroke:#000000;stroke-width:0.6;" x="360" xlink:href="#m4343bea4be" y="374.993291"/>
      </g>
     </g>
    </g>
   </g>
   <g id="line2d_14">
    <path clip-path="url(#pb0b4f326ac)" d="M 708.070175 439.37482 
L 729.824561 388.121797 
L 751.578947 442.777642 
L 773.333333 413.827812 
L 795.087719 436.021675 
L 816.842105 396.374889 
L 838.596491 372.455295 
L 860.350877 355.433707 
L 882.105263 372.455295 
L 903.859649 353.101846 
L 925.614035 388.121797 
L 947.368421 324.763372 
" style="fill:none;stroke:#1f77b4;stroke-dasharray:5.55,2.4;stroke-dashoffset:0;stroke-width:1.5;"/>
    <defs>
     <path d="M 0 1.5 
C 0.397805 1.5 0.77937 1.341951 1.06066 1.06066 
C 1.341951 0.77937 1.5 0.397805 1.5 0 
C 1.5 -0.397805 1.341951 -0.77937 1.06066 -1.06066 
C 0.77937 -1.341951 0.397805 -1.5 0 -1.5 
C -0.397805 -1.5 -0.77937 -1.341951 -1.06066 -1.06066 
C -1.341951 -0.77937 -1.5 -0.397805 -1.5 0 
C -1.5 0.397805 -1.341951 0.77937 -1.06066 1.06066 
C -0.77937 1.341951 -0.397805 1.5 0 1.5 
z
" id="mcc82b219a3" style="stroke:#1f77b4;"/>
    </defs>
    <g clip-path="url(#pb0b4f326ac)">
     <use style="fill:#1f77b4;stroke:#1f77b4;" x="708.070175" xlink:href="#mcc82b219a3" y="439.37482"/>
     <use style="fill:#1f77b4;stroke:#1f77b4;" x="729.824561" xlink:href="#mcc82b219a3" y="388.121797"/>
     <use style="fill:#1f77b4;stroke:#1f77b4;" x="751.578947" xlink:href="#mcc82b219a3" y="442.777642"/>
     <use style="fill:#1f77b4;stroke:#1f77b4;" x="773.333333" xlink:href="#mcc82b219a3" y="413.827812"/>
     <use style="fill:#1f77b4;stroke:#1f77b4;" x="795.087719" xlink:href="#mcc82b219a3" y="436.021675"/>
     <use style="fill:#1f77b4;stroke:#1f77b4;" x="816.842105" xlink:href="#mcc82b219a3" y="396.374889"/>
     <use style="fill:#1f77b4;stroke:#1f77b4;" x="838.596491" xlink:href="#mcc82b219a3" y="372.455295"/>
     <use style="fill:#1f77b4;stroke:#1f77b4;" x="860.350877" xlink:href="#mcc82b219a3" y="355.433707"/>
     <use style="fill:#1f77b4;stroke:#1f77b4;" x="882.105263" xlink:href="#mcc82b219a3" y="372.455295"/>
     <use style="fill:#1f77b4;stroke:#1f77b4;" x="903.859649" xlink:href="#mcc82b219a3" y="353.101846"/>
     <use style="fill:#1f77b4;stroke:#1f77b4;" x="925.614035" xlink:href="#mcc82b219a3" y="388.121797"/>
     <use style="fill:#1f77b4;stroke:#1f77b4;" x="947.368421" xlink:href="#mcc82b219a3" y="324.763372"/>
    </g>
   </g>
   <g id="patch_3">
    <path d="M 360 688.357895 
L 360 259.2 
" style="fill:none;stroke:#000000;stroke-linecap:square;stroke-linejoin:miter;stroke-width:0.8;"/>
   </g>
   <g id="patch_4">
    <path d="M 947.368421 688.357895 
L 947.368421 259.2 
" style="fill:none;stroke:#000000;stroke-linecap:square;stroke-linejoin:miter;stroke-width:0.8;"/>
   </g>
   <g id="patch_5">
    <path d="M 360 688.357895 
L 947.368421 688.357895 
" style="fill:none;stroke:#000000;stroke-linecap:square;stroke-linejoin:miter;stroke-width:0.8;"/>
   </g>
   <g id="patch_6">
    <path d="M 360 259.2 
L 947.368421 259.2 
" style="fill:none;stroke:#000000;stroke-linecap:square;stroke-linejoin:miter;stroke-width:0.8;"/>
   </g>
   <g id="text_5">
    <!-- q-fin.ST -->
    <defs>
     <path d="M 14.796875 27.296875 
Q 14.796875 17.390625 18.875 11.75 
Q 22.953125 6.109375 30.078125 6.109375 
Q 37.203125 6.109375 41.296875 11.75 
Q 45.40625 17.390625 45.40625 27.296875 
Q 45.40625 37.203125 41.296875 42.84375 
Q 37.203125 48.484375 30.078125 48.484375 
Q 22.953125 48.484375 18.875 42.84375 
Q 14.796875 37.203125 14.796875 27.296875 
z
M 45.40625 8.203125 
Q 42.578125 3.328125 38.25 0.953125 
Q 33.9375 -1.421875 27.875 -1.421875 
Q 17.96875 -1.421875 11.734375 6.484375 
Q 5.515625 14.40625 5.515625 27.296875 
Q 5.515625 40.1875 11.734375 48.09375 
Q 17.96875 56 27.875 56 
Q 33.9375 56 38.25 53.625 
Q 42.578125 51.265625 45.40625 46.390625 
L 45.40625 54.6875 
L 54.390625 54.6875 
L 54.390625 -20.796875 
L 45.40625 -20.796875 
z
" id="DejaVuSans-113"/>
     <path d="M 4.890625 31.390625 
L 31.203125 31.390625 
L 31.203125 23.390625 
L 4.890625 23.390625 
z
" id="DejaVuSans-45"/>
     <path d="M 37.109375 75.984375 
L 37.109375 68.5 
L 28.515625 68.5 
Q 23.6875 68.5 21.796875 66.546875 
Q 19.921875 64.59375 19.921875 59.515625 
L 19.921875 54.6875 
L 34.71875 54.6875 
L 34.71875 47.703125 
L 19.921875 47.703125 
L 19.921875 0 
L 10.890625 0 
L 10.890625 47.703125 
L 2.296875 47.703125 
L 2.296875 54.6875 
L 10.890625 54.6875 
L 10.890625 58.5 
Q 10.890625 67.625 15.140625 71.796875 
Q 19.390625 75.984375 28.609375 75.984375 
z
" id="DejaVuSans-102"/>
     <path d="M 9.421875 54.6875 
L 18.40625 54.6875 
L 18.40625 0 
L 9.421875 0 
z
M 9.421875 75.984375 
L 18.40625 75.984375 
L 18.40625 64.59375 
L 9.421875 64.59375 
z
" id="DejaVuSans-105"/>
     <path d="M 54.890625 33.015625 
L 54.890625 0 
L 45.90625 0 
L 45.90625 32.71875 
Q 45.90625 40.484375 42.875 44.328125 
Q 39.84375 48.1875 33.796875 48.1875 
Q 26.515625 48.1875 22.3125 43.546875 
Q 18.109375 38.921875 18.109375 30.90625 
L 18.109375 0 
L 9.078125 0 
L 9.078125 54.6875 
L 18.109375 54.6875 
L 18.109375 46.1875 
Q 21.34375 51.125 25.703125 53.5625 
Q 30.078125 56 35.796875 56 
Q 45.21875 56 50.046875 50.171875 
Q 54.890625 44.34375 54.890625 33.015625 
z
" id="DejaVuSans-110"/>
     <path d="M 10.6875 12.40625 
L 21 12.40625 
L 21 0 
L 10.6875 0 
z
" id="DejaVuSans-46"/>
     <path d="M 53.515625 70.515625 
L 53.515625 60.890625 
Q 47.90625 63.578125 42.921875 64.890625 
Q 37.9375 66.21875 33.296875 66.21875 
Q 25.25 66.21875 20.875 63.09375 
Q 16.5 59.96875 16.5 54.203125 
Q 16.5 49.359375 19.40625 46.890625 
Q 22.3125 44.4375 30.421875 42.921875 
L 36.375 41.703125 
Q 47.40625 39.59375 52.65625 34.296875 
Q 57.90625 29 57.90625 20.125 
Q 57.90625 9.515625 50.796875 4.046875 
Q 43.703125 -1.421875 29.984375 -1.421875 
Q 24.8125 -1.421875 18.96875 -0.25 
Q 13.140625 0.921875 6.890625 3.21875 
L 6.890625 13.375 
Q 12.890625 10.015625 18.65625 8.296875 
Q 24.421875 6.59375 29.984375 6.59375 
Q 38.421875 6.59375 43.015625 9.90625 
Q 47.609375 13.234375 47.609375 19.390625 
Q 47.609375 24.75 44.3125 27.78125 
Q 41.015625 30.8125 33.5 32.328125 
L 27.484375 33.5 
Q 16.453125 35.6875 11.515625 40.375 
Q 6.59375 45.0625 6.59375 53.421875 
Q 6.59375 63.09375 13.40625 68.65625 
Q 20.21875 74.21875 32.171875 74.21875 
Q 37.3125 74.21875 42.625 73.28125 
Q 47.953125 72.359375 53.515625 70.515625 
z
" id="DejaVuSans-83"/>
     <path d="M -0.296875 72.90625 
L 61.375 72.90625 
L 61.375 64.59375 
L 35.5 64.59375 
L 35.5 0 
L 25.59375 0 
L 25.59375 64.59375 
L -0.296875 64.59375 
z
" id="DejaVuSans-84"/>
    </defs>
    <g transform="translate(630.748273 253.2)scale(0.12 -0.12)">
     <use xlink:href="#DejaVuSans-113"/>
     <use x="63.476562" xlink:href="#DejaVuSans-45"/>
     <use x="99.560547" xlink:href="#DejaVuSans-102"/>
     <use x="134.765625" xlink:href="#DejaVuSans-105"/>
     <use x="162.548828" xlink:href="#DejaVuSans-110"/>
     <use x="225.927734" xlink:href="#DejaVuSans-46"/>
     <use x="257.714844" xlink:href="#DejaVuSans-83"/>
     <use x="321.191406" xlink:href="#DejaVuSans-84"/>
    </g>
   </g>
  </g>
  <g id="axes_2">
   <g id="patch_7">
    <path d="M 1182.315789 688.357895 
L 1769.684211 688.357895 
L 1769.684211 259.2 
L 1182.315789 259.2 
z
" style="fill:#ffffff;"/>
   </g>
   <g id="matplotlib.axis_3">
    <g id="xtick_6">
     <g id="line2d_15">
      <g>
       <use style="stroke:#000000;stroke-width:0.8;" x="1269.333333" xlink:href="#mc7f77383c8" y="688.357895"/>
      </g>
     </g>
    </g>
    <g id="xtick_7">
     <g id="line2d_16">
      <g>
       <use style="stroke:#000000;stroke-width:0.8;" x="1378.105263" xlink:href="#mc7f77383c8" y="688.357895"/>
      </g>
     </g>
    </g>
    <g id="xtick_8">
     <g id="line2d_17">
      <g>
       <use style="stroke:#000000;stroke-width:0.8;" x="1486.877193" xlink:href="#mc7f77383c8" y="688.357895"/>
      </g>
     </g>
    </g>
    <g id="xtick_9">
     <g id="line2d_18">
      <g>
       <use style="stroke:#000000;stroke-width:0.8;" x="1595.649123" xlink:href="#mc7f77383c8" y="688.357895"/>
      </g>
     </g>
    </g>
    <g id="xtick_10">
     <g id="line2d_19">
      <g>
       <use style="stroke:#000000;stroke-width:0.8;" x="1704.421053" xlink:href="#mc7f77383c8" y="688.357895"/>
      </g>
     </g>
    </g>
   </g>
   <g id="matplotlib.axis_4">
    <g id="ytick_9">
     <g id="line2d_20">
      <g>
       <use style="stroke:#000000;stroke-width:0.8;" x="1182.315789" xlink:href="#m779b82455c" y="350.793422"/>
      </g>
     </g>
    </g>
    <g id="ytick_10">
     <g id="line2d_21">
      <g>
       <use style="stroke:#000000;stroke-width:0.6;" x="1182.315789" xlink:href="#m4343bea4be" y="627.329511"/>
      </g>
     </g>
    </g>
    <g id="ytick_11">
     <g id="line2d_22">
      <g>
       <use style="stroke:#000000;stroke-width:0.6;" x="1182.315789" xlink:href="#m4343bea4be" y="561.252873"/>
      </g>
     </g>
    </g>
    <g id="ytick_12">
     <g id="line2d_23">
      <g>
       <use style="stroke:#000000;stroke-width:0.6;" x="1182.315789" xlink:href="#m4343bea4be" y="509.999851"/>
      </g>
     </g>
    </g>
    <g id="ytick_13">
     <g id="line2d_24">
      <g>
       <use style="stroke:#000000;stroke-width:0.6;" x="1182.315789" xlink:href="#m4343bea4be" y="468.123082"/>
      </g>
     </g>
    </g>
    <g id="ytick_14">
     <g id="line2d_25">
      <g>
       <use style="stroke:#000000;stroke-width:0.6;" x="1182.315789" xlink:href="#m4343bea4be" y="432.716779"/>
      </g>
     </g>
    </g>
    <g id="ytick_15">
     <g id="line2d_26">
      <g>
       <use style="stroke:#000000;stroke-width:0.6;" x="1182.315789" xlink:href="#m4343bea4be" y="402.046444"/>
      </g>
     </g>
    </g>
    <g id="ytick_16">
     <g id="line2d_27">
      <g>
       <use style="stroke:#000000;stroke-width:0.6;" x="1182.315789" xlink:href="#m4343bea4be" y="374.993291"/>
      </g>
     </g>
    </g>
   </g>
   <g id="line2d_28">
    <path clip-path="url(#pa69fa81076)" d="M 1530.385965 688.357895 
L 1552.140351 605.438066 
L 1573.894737 627.329511 
L 1595.649123 555.581317 
L 1617.403509 505.451458 
L 1639.157895 524.211785 
L 1660.912281 488.108406 
L 1682.666667 496.616279 
L 1704.421053 509.999851 
L 1726.175439 488.108406 
L 1747.929825 505.451458 
L 1769.684211 453.299466 
" style="fill:none;stroke:#1f77b4;stroke-dasharray:5.55,2.4;stroke-dashoffset:0;stroke-width:1.5;"/>
    <g clip-path="url(#pa69fa81076)">
     <use style="fill:#1f77b4;stroke:#1f77b4;" x="1530.385965" xlink:href="#mcc82b219a3" y="688.357895"/>
     <use style="fill:#1f77b4;stroke:#1f77b4;" x="1552.140351" xlink:href="#mcc82b219a3" y="605.438066"/>
     <use style="fill:#1f77b4;stroke:#1f77b4;" x="1573.894737" xlink:href="#mcc82b219a3" y="627.329511"/>
     <use style="fill:#1f77b4;stroke:#1f77b4;" x="1595.649123" xlink:href="#mcc82b219a3" y="555.581317"/>
     <use style="fill:#1f77b4;stroke:#1f77b4;" x="1617.403509" xlink:href="#mcc82b219a3" y="505.451458"/>
     <use style="fill:#1f77b4;stroke:#1f77b4;" x="1639.157895" xlink:href="#mcc82b219a3" y="524.211785"/>
     <use style="fill:#1f77b4;stroke:#1f77b4;" x="1660.912281" xlink:href="#mcc82b219a3" y="488.108406"/>
     <use style="fill:#1f77b4;stroke:#1f77b4;" x="1682.666667" xlink:href="#mcc82b219a3" y="496.616279"/>
     <use style="fill:#1f77b4;stroke:#1f77b4;" x="1704.421053" xlink:href="#mcc82b219a3" y="509.999851"/>
     <use style="fill:#1f77b4;stroke:#1f77b4;" x="1726.175439" xlink:href="#mcc82b219a3" y="488.108406"/>
     <use style="fill:#1f77b4;stroke:#1f77b4;" x="1747.929825" xlink:href="#mcc82b219a3" y="505.451458"/>
     <use style="fill:#1f77b4;stroke:#1f77b4;" x="1769.684211" xlink:href="#mcc82b219a3" y="453.299466"/>
    </g>
   </g>
   <g id="patch_8">
    <path d="M 1182.315789 688.357895 
L 1182.315789 259.2 
" style="fill:none;stroke:#000000;stroke-linecap:square;stroke-linejoin:miter;stroke-width:0.8;"/>
   </g>
   <g id="patch_9">
    <path d="M 1769.684211 688.357895 
L 1769.684211 259.2 
" style="fill:none;stroke:#000000;stroke-linecap:square;stroke-linejoin:miter;stroke-width:0.8;"/>
   </g>
   <g id="patch_10">
    <path d="M 1182.315789 688.357895 
L 1769.684211 688.357895 
" style="fill:none;stroke:#000000;stroke-linecap:square;stroke-linejoin:miter;stroke-width:0.8;"/>
   </g>
   <g id="patch_11">
    <path d="M 1182.315789 259.2 
L 1769.684211 259.2 
" style="fill:none;stroke:#000000;stroke-linecap:square;stroke-linejoin:miter;stroke-width:0.8;"/>
   </g>
   <g id="text_6">
    <!-- q-fin.TR -->
    <defs>
     <path d="M 44.390625 34.1875 
Q 47.5625 33.109375 50.5625 29.59375 
Q 53.5625 26.078125 56.59375 19.921875 
L 66.609375 0 
L 56 0 
L 46.6875 18.703125 
Q 43.0625 26.03125 39.671875 28.421875 
Q 36.28125 30.8125 30.421875 30.8125 
L 19.671875 30.8125 
L 19.671875 0 
L 9.8125 0 
L 9.8125 72.90625 
L 32.078125 72.90625 
Q 44.578125 72.90625 50.734375 67.671875 
Q 56.890625 62.453125 56.890625 51.90625 
Q 56.890625 45.015625 53.6875 40.46875 
Q 50.484375 35.9375 44.390625 34.1875 
z
M 19.671875 64.796875 
L 19.671875 38.921875 
L 32.078125 38.921875 
Q 39.203125 38.921875 42.84375 42.21875 
Q 46.484375 45.515625 46.484375 51.90625 
Q 46.484375 58.296875 42.84375 61.546875 
Q 39.203125 64.796875 32.078125 64.796875 
z
" id="DejaVuSans-82"/>
    </defs>
    <g transform="translate(1452.704063 253.2)scale(0.12 -0.12)">
     <use xlink:href="#DejaVuSans-113"/>
     <use x="63.476562" xlink:href="#DejaVuSans-45"/>
     <use x="99.560547" xlink:href="#DejaVuSans-102"/>
     <use x="134.765625" xlink:href="#DejaVuSans-105"/>
     <use x="162.548828" xlink:href="#DejaVuSans-110"/>
     <use x="225.927734" xlink:href="#DejaVuSans-46"/>
     <use x="257.714844" xlink:href="#DejaVuSans-84"/>
     <use x="318.798828" xlink:href="#DejaVuSans-82"/>
    </g>
   </g>
  </g>
  <g id="axes_3">
   <g id="patch_12">
    <path d="M 2004.631579 688.357895 
L 2592 688.357895 
L 2592 259.2 
L 2004.631579 259.2 
z
" style="fill:#ffffff;"/>
   </g>
   <g id="matplotlib.axis_5">
    <g id="xtick_11">
     <g id="line2d_29">
      <g>
       <use style="stroke:#000000;stroke-width:0.8;" x="2091.649123" xlink:href="#mc7f77383c8" y="688.357895"/>
      </g>
     </g>
    </g>
    <g id="xtick_12">
     <g id="line2d_30">
      <g>
       <use style="stroke:#000000;stroke-width:0.8;" x="2200.421053" xlink:href="#mc7f77383c8" y="688.357895"/>
      </g>
     </g>
    </g>
    <g id="xtick_13">
     <g id="line2d_31">
      <g>
       <use style="stroke:#000000;stroke-width:0.8;" x="2309.192982" xlink:href="#mc7f77383c8" y="688.357895"/>
      </g>
     </g>
    </g>
    <g id="xtick_14">
     <g id="line2d_32">
      <g>
       <use style="stroke:#000000;stroke-width:0.8;" x="2417.964912" xlink:href="#mc7f77383c8" y="688.357895"/>
      </g>
     </g>
    </g>
    <g id="xtick_15">
     <g id="line2d_33">
      <g>
       <use style="stroke:#000000;stroke-width:0.8;" x="2526.736842" xlink:href="#mc7f77383c8" y="688.357895"/>
      </g>
     </g>
    </g>
   </g>
   <g id="matplotlib.axis_6">
    <g id="ytick_17">
     <g id="line2d_34">
      <g>
       <use style="stroke:#000000;stroke-width:0.8;" x="2004.631579" xlink:href="#m779b82455c" y="350.793422"/>
      </g>
     </g>
    </g>
    <g id="ytick_18">
     <g id="line2d_35">
      <g>
       <use style="stroke:#000000;stroke-width:0.6;" x="2004.631579" xlink:href="#m4343bea4be" y="627.329511"/>
      </g>
     </g>
    </g>
    <g id="ytick_19">
     <g id="line2d_36">
      <g>
       <use style="stroke:#000000;stroke-width:0.6;" x="2004.631579" xlink:href="#m4343bea4be" y="561.252873"/>
      </g>
     </g>
    </g>
    <g id="ytick_20">
     <g id="line2d_37">
      <g>
       <use style="stroke:#000000;stroke-width:0.6;" x="2004.631579" xlink:href="#m4343bea4be" y="509.999851"/>
      </g>
     </g>
    </g>
    <g id="ytick_21">
     <g id="line2d_38">
      <g>
       <use style="stroke:#000000;stroke-width:0.6;" x="2004.631579" xlink:href="#m4343bea4be" y="468.123082"/>
      </g>
     </g>
    </g>
    <g id="ytick_22">
     <g id="line2d_39">
      <g>
       <use style="stroke:#000000;stroke-width:0.6;" x="2004.631579" xlink:href="#m4343bea4be" y="432.716779"/>
      </g>
     </g>
    </g>
    <g id="ytick_23">
     <g id="line2d_40">
      <g>
       <use style="stroke:#000000;stroke-width:0.6;" x="2004.631579" xlink:href="#m4343bea4be" y="402.046444"/>
      </g>
     </g>
    </g>
    <g id="ytick_24">
     <g id="line2d_41">
      <g>
       <use style="stroke:#000000;stroke-width:0.6;" x="2004.631579" xlink:href="#m4343bea4be" y="374.993291"/>
      </g>
     </g>
    </g>
   </g>
   <g id="line2d_42">
    <path clip-path="url(#p48d9e81005)" d="M 2352.701754 534.19972 
L 2374.45614 475.909805 
L 2396.210526 453.299466 
L 2417.964912 423.078176 
L 2439.719298 346.245029 
L 2461.473684 333.116523 
L 2483.22807 292.305586 
L 2504.982456 365.005356 
L 2526.736842 399.193161 
L 2548.491228 372.455295 
L 2570.245614 449.738367 
L 2592 419.953144 
" style="fill:none;stroke:#1f77b4;stroke-dasharray:5.55,2.4;stroke-dashoffset:0;stroke-width:1.5;"/>
    <g clip-path="url(#p48d9e81005)">
     <use style="fill:#1f77b4;stroke:#1f77b4;" x="2352.701754" xlink:href="#mcc82b219a3" y="534.19972"/>
     <use style="fill:#1f77b4;stroke:#1f77b4;" x="2374.45614" xlink:href="#mcc82b219a3" y="475.909805"/>
     <use style="fill:#1f77b4;stroke:#1f77b4;" x="2396.210526" xlink:href="#mcc82b219a3" y="453.299466"/>
     <use style="fill:#1f77b4;stroke:#1f77b4;" x="2417.964912" xlink:href="#mcc82b219a3" y="423.078176"/>
     <use style="fill:#1f77b4;stroke:#1f77b4;" x="2439.719298" xlink:href="#mcc82b219a3" y="346.245029"/>
     <use style="fill:#1f77b4;stroke:#1f77b4;" x="2461.473684" xlink:href="#mcc82b219a3" y="333.116523"/>
     <use style="fill:#1f77b4;stroke:#1f77b4;" x="2483.22807" xlink:href="#mcc82b219a3" y="292.305586"/>
     <use style="fill:#1f77b4;stroke:#1f77b4;" x="2504.982456" xlink:href="#mcc82b219a3" y="365.005356"/>
     <use style="fill:#1f77b4;stroke:#1f77b4;" x="2526.736842" xlink:href="#mcc82b219a3" y="399.193161"/>
     <use style="fill:#1f77b4;stroke:#1f77b4;" x="2548.491228" xlink:href="#mcc82b219a3" y="372.455295"/>
     <use style="fill:#1f77b4;stroke:#1f77b4;" x="2570.245614" xlink:href="#mcc82b219a3" y="449.738367"/>
     <use style="fill:#1f77b4;stroke:#1f77b4;" x="2592" xlink:href="#mcc82b219a3" y="419.953144"/>
    </g>
   </g>
   <g id="patch_13">
    <path d="M 2004.631579 688.357895 
L 2004.631579 259.2 
" style="fill:none;stroke:#000000;stroke-linecap:square;stroke-linejoin:miter;stroke-width:0.8;"/>
   </g>
   <g id="patch_14">
    <path d="M 2592 688.357895 
L 2592 259.2 
" style="fill:none;stroke:#000000;stroke-linecap:square;stroke-linejoin:miter;stroke-width:0.8;"/>
   </g>
   <g id="patch_15">
    <path d="M 2004.631579 688.357895 
L 2592 688.357895 
" style="fill:none;stroke:#000000;stroke-linecap:square;stroke-linejoin:miter;stroke-width:0.8;"/>
   </g>
   <g id="patch_16">
    <path d="M 2004.631579 259.2 
L 2592 259.2 
" style="fill:none;stroke:#000000;stroke-linecap:square;stroke-linejoin:miter;stroke-width:0.8;"/>
   </g>
   <g id="text_7">
    <!-- q-fin.GN -->
    <defs>
     <path d="M 59.515625 10.40625 
L 59.515625 29.984375 
L 43.40625 29.984375 
L 43.40625 38.09375 
L 69.28125 38.09375 
L 69.28125 6.78125 
Q 63.578125 2.734375 56.6875 0.65625 
Q 49.8125 -1.421875 42 -1.421875 
Q 24.90625 -1.421875 15.25 8.5625 
Q 5.609375 18.5625 5.609375 36.375 
Q 5.609375 54.25 15.25 64.234375 
Q 24.90625 74.21875 42 74.21875 
Q 49.125 74.21875 55.546875 72.453125 
Q 61.96875 70.703125 67.390625 67.28125 
L 67.390625 56.78125 
Q 61.921875 61.421875 55.765625 63.765625 
Q 49.609375 66.109375 42.828125 66.109375 
Q 29.4375 66.109375 22.71875 58.640625 
Q 16.015625 51.171875 16.015625 36.375 
Q 16.015625 21.625 22.71875 14.15625 
Q 29.4375 6.6875 42.828125 6.6875 
Q 48.046875 6.6875 52.140625 7.59375 
Q 56.25 8.5 59.515625 10.40625 
z
" id="DejaVuSans-71"/>
     <path d="M 9.8125 72.90625 
L 23.09375 72.90625 
L 55.421875 11.921875 
L 55.421875 72.90625 
L 64.984375 72.90625 
L 64.984375 0 
L 51.703125 0 
L 19.390625 60.984375 
L 19.390625 0 
L 9.8125 0 
z
" id="DejaVuSans-78"/>
    </defs>
    <g transform="translate(2273.715789 253.2)scale(0.12 -0.12)">
     <use xlink:href="#DejaVuSans-113"/>
     <use x="63.476562" xlink:href="#DejaVuSans-45"/>
     <use x="99.560547" xlink:href="#DejaVuSans-102"/>
     <use x="134.765625" xlink:href="#DejaVuSans-105"/>
     <use x="162.548828" xlink:href="#DejaVuSans-110"/>
     <use x="225.927734" xlink:href="#DejaVuSans-46"/>
     <use x="257.714844" xlink:href="#DejaVuSans-71"/>
     <use x="335.205078" xlink:href="#DejaVuSans-78"/>
    </g>
   </g>
  </g>
  <g id="axes_4">
   <g id="patch_17">
    <path d="M 360 1289.178947 
L 947.368421 1289.178947 
L 947.368421 860.021053 
L 360 860.021053 
z
" style="fill:#ffffff;"/>
   </g>
   <g id="matplotlib.axis_7">
    <g id="xtick_16">
     <g id="line2d_43">
      <g>
       <use style="stroke:#000000;stroke-width:0.8;" x="447.017544" xlink:href="#mc7f77383c8" y="1289.178947"/>
      </g>
     </g>
    </g>
    <g id="xtick_17">
     <g id="line2d_44">
      <g>
       <use style="stroke:#000000;stroke-width:0.8;" x="555.789474" xlink:href="#mc7f77383c8" y="1289.178947"/>
      </g>
     </g>
    </g>
    <g id="xtick_18">
     <g id="line2d_45">
      <g>
       <use style="stroke:#000000;stroke-width:0.8;" x="664.561404" xlink:href="#mc7f77383c8" y="1289.178947"/>
      </g>
     </g>
    </g>
    <g id="xtick_19">
     <g id="line2d_46">
      <g>
       <use style="stroke:#000000;stroke-width:0.8;" x="773.333333" xlink:href="#mc7f77383c8" y="1289.178947"/>
      </g>
     </g>
    </g>
    <g id="xtick_20">
     <g id="line2d_47">
      <g>
       <use style="stroke:#000000;stroke-width:0.8;" x="882.105263" xlink:href="#mc7f77383c8" y="1289.178947"/>
      </g>
     </g>
    </g>
   </g>
   <g id="matplotlib.axis_8">
    <g id="ytick_25">
     <g id="line2d_48">
      <g>
       <use style="stroke:#000000;stroke-width:0.8;" x="360" xlink:href="#m779b82455c" y="966.7988"/>
      </g>
     </g>
     <g id="text_8">
      <!-- $\mathdefault{10^{2}}$ -->
      <g transform="translate(335.4 970.598019)scale(0.1 -0.1)">
       <use transform="translate(0 0.765625)" xlink:href="#DejaVuSans-49"/>
       <use transform="translate(63.623047 0.765625)" xlink:href="#DejaVuSans-48"/>
       <use transform="translate(128.203125 39.046875)scale(0.7)" xlink:href="#DejaVuSans-50"/>
      </g>
     </g>
    </g>
    <g id="ytick_26">
     <g id="line2d_49">
      <g>
       <use style="stroke:#000000;stroke-width:0.6;" x="360" xlink:href="#m4343bea4be" y="1289.178947"/>
      </g>
     </g>
     <g id="text_9">
      <!-- $\mathdefault{3\times10^{1}}$ -->
      <g transform="translate(318.4 1292.978166)scale(0.1 -0.1)">
       <use transform="translate(0 0.684375)" xlink:href="#DejaVuSans-51"/>
       <use transform="translate(83.105469 0.684375)" xlink:href="#DejaVuSans-215"/>
       <use transform="translate(186.376953 0.684375)" xlink:href="#DejaVuSans-49"/>
       <use transform="translate(250 0.684375)" xlink:href="#DejaVuSans-48"/>
       <use transform="translate(314.580078 38.965625)scale(0.7)" xlink:href="#DejaVuSans-49"/>
      </g>
     </g>
    </g>
    <g id="ytick_27">
     <g id="line2d_50">
      <g>
       <use style="stroke:#000000;stroke-width:0.6;" x="360" xlink:href="#m4343bea4be" y="1212.148147"/>
      </g>
     </g>
     <g id="text_10">
      <!-- $\mathdefault{4\times10^{1}}$ -->
      <g transform="translate(318.4 1215.947366)scale(0.1 -0.1)">
       <use transform="translate(0 0.684375)" xlink:href="#DejaVuSans-52"/>
       <use transform="translate(83.105469 0.684375)" xlink:href="#DejaVuSans-215"/>
       <use transform="translate(186.376953 0.684375)" xlink:href="#DejaVuSans-49"/>
       <use transform="translate(250 0.684375)" xlink:href="#DejaVuSans-48"/>
       <use transform="translate(314.580078 38.965625)scale(0.7)" xlink:href="#DejaVuSans-49"/>
      </g>
     </g>
    </g>
    <g id="ytick_28">
     <g id="line2d_51">
      <g>
       <use style="stroke:#000000;stroke-width:0.6;" x="360" xlink:href="#m4343bea4be" y="1152.398416"/>
      </g>
     </g>
    </g>
    <g id="ytick_29">
     <g id="line2d_52">
      <g>
       <use style="stroke:#000000;stroke-width:0.6;" x="360" xlink:href="#m4343bea4be" y="1103.579331"/>
      </g>
     </g>
     <g id="text_11">
      <!-- $\mathdefault{6\times10^{1}}$ -->
      <g transform="translate(318.4 1107.37855)scale(0.1 -0.1)">
       <use transform="translate(0 0.684375)" xlink:href="#DejaVuSans-54"/>
       <use transform="translate(83.105469 0.684375)" xlink:href="#DejaVuSans-215"/>
       <use transform="translate(186.376953 0.684375)" xlink:href="#DejaVuSans-49"/>
       <use transform="translate(250 0.684375)" xlink:href="#DejaVuSans-48"/>
       <use transform="translate(314.580078 38.965625)scale(0.7)" xlink:href="#DejaVuSans-49"/>
      </g>
     </g>
    </g>
    <g id="ytick_30">
     <g id="line2d_53">
      <g>
       <use style="stroke:#000000;stroke-width:0.6;" x="360" xlink:href="#m4343bea4be" y="1062.303383"/>
      </g>
     </g>
    </g>
    <g id="ytick_31">
     <g id="line2d_54">
      <g>
       <use style="stroke:#000000;stroke-width:0.6;" x="360" xlink:href="#m4343bea4be" y="1026.548531"/>
      </g>
     </g>
    </g>
    <g id="ytick_32">
     <g id="line2d_55">
      <g>
       <use style="stroke:#000000;stroke-width:0.6;" x="360" xlink:href="#m4343bea4be" y="995.010516"/>
      </g>
     </g>
    </g>
   </g>
   <g id="line2d_56">
    <path clip-path="url(#p19e7826470)" d="M 708.070175 1768.946995 
L 729.824561 1317.390663 
L 751.578947 1263.658346 
L 773.333333 1112.656935 
L 795.087719 1147.095992 
L 816.842105 1186.627546 
L 838.596491 1180.610132 
L 860.350877 1136.796121 
L 882.105263 1131.791047 
L 903.859649 1163.329062 
L 925.614035 1029.916672 
L 947.368421 1019.936747 
" style="fill:none;stroke:#1f77b4;stroke-dasharray:5.55,2.4;stroke-dashoffset:0;stroke-width:1.5;"/>
    <g clip-path="url(#p19e7826470)">
     <use style="fill:#1f77b4;stroke:#1f77b4;" x="708.070175" xlink:href="#mcc82b219a3" y="1768.946995"/>
     <use style="fill:#1f77b4;stroke:#1f77b4;" x="729.824561" xlink:href="#mcc82b219a3" y="1317.390663"/>
     <use style="fill:#1f77b4;stroke:#1f77b4;" x="751.578947" xlink:href="#mcc82b219a3" y="1263.658346"/>
     <use style="fill:#1f77b4;stroke:#1f77b4;" x="773.333333" xlink:href="#mcc82b219a3" y="1112.656935"/>
     <use style="fill:#1f77b4;stroke:#1f77b4;" x="795.087719" xlink:href="#mcc82b219a3" y="1147.095992"/>
     <use style="fill:#1f77b4;stroke:#1f77b4;" x="816.842105" xlink:href="#mcc82b219a3" y="1186.627546"/>
     <use style="fill:#1f77b4;stroke:#1f77b4;" x="838.596491" xlink:href="#mcc82b219a3" y="1180.610132"/>
     <use style="fill:#1f77b4;stroke:#1f77b4;" x="860.350877" xlink:href="#mcc82b219a3" y="1136.796121"/>
     <use style="fill:#1f77b4;stroke:#1f77b4;" x="882.105263" xlink:href="#mcc82b219a3" y="1131.791047"/>
     <use style="fill:#1f77b4;stroke:#1f77b4;" x="903.859649" xlink:href="#mcc82b219a3" y="1163.329062"/>
     <use style="fill:#1f77b4;stroke:#1f77b4;" x="925.614035" xlink:href="#mcc82b219a3" y="1029.916672"/>
     <use style="fill:#1f77b4;stroke:#1f77b4;" x="947.368421" xlink:href="#mcc82b219a3" y="1019.936747"/>
    </g>
   </g>
   <g id="patch_18">
    <path d="M 360 1289.178947 
L 360 860.021053 
" style="fill:none;stroke:#000000;stroke-linecap:square;stroke-linejoin:miter;stroke-width:0.8;"/>
   </g>
   <g id="patch_19">
    <path d="M 947.368421 1289.178947 
L 947.368421 860.021053 
" style="fill:none;stroke:#000000;stroke-linecap:square;stroke-linejoin:miter;stroke-width:0.8;"/>
   </g>
   <g id="patch_20">
    <path d="M 360 1289.178947 
L 947.368421 1289.178947 
" style="fill:none;stroke:#000000;stroke-linecap:square;stroke-linejoin:miter;stroke-width:0.8;"/>
   </g>
   <g id="patch_21">
    <path d="M 360 860.021053 
L 947.368421 860.021053 
" style="fill:none;stroke:#000000;stroke-linecap:square;stroke-linejoin:miter;stroke-width:0.8;"/>
   </g>
   <g id="text_12">
    <!-- q-fin.CP -->
    <defs>
     <path d="M 64.40625 67.28125 
L 64.40625 56.890625 
Q 59.421875 61.53125 53.78125 63.8125 
Q 48.140625 66.109375 41.796875 66.109375 
Q 29.296875 66.109375 22.65625 58.46875 
Q 16.015625 50.828125 16.015625 36.375 
Q 16.015625 21.96875 22.65625 14.328125 
Q 29.296875 6.6875 41.796875 6.6875 
Q 48.140625 6.6875 53.78125 8.984375 
Q 59.421875 11.28125 64.40625 15.921875 
L 64.40625 5.609375 
Q 59.234375 2.09375 53.4375 0.328125 
Q 47.65625 -1.421875 41.21875 -1.421875 
Q 24.65625 -1.421875 15.125 8.703125 
Q 5.609375 18.84375 5.609375 36.375 
Q 5.609375 53.953125 15.125 64.078125 
Q 24.65625 74.21875 41.21875 74.21875 
Q 47.75 74.21875 53.53125 72.484375 
Q 59.328125 70.75 64.40625 67.28125 
z
" id="DejaVuSans-67"/>
     <path d="M 19.671875 64.796875 
L 19.671875 37.40625 
L 32.078125 37.40625 
Q 38.96875 37.40625 42.71875 40.96875 
Q 46.484375 44.53125 46.484375 51.125 
Q 46.484375 57.671875 42.71875 61.234375 
Q 38.96875 64.796875 32.078125 64.796875 
z
M 9.8125 72.90625 
L 32.078125 72.90625 
Q 44.34375 72.90625 50.609375 67.359375 
Q 56.890625 61.8125 56.890625 51.125 
Q 56.890625 40.328125 50.609375 34.8125 
Q 44.34375 29.296875 32.078125 29.296875 
L 19.671875 29.296875 
L 19.671875 0 
L 9.8125 0 
z
" id="DejaVuSans-80"/>
    </defs>
    <g transform="translate(630.414523 854.021053)scale(0.12 -0.12)">
     <use xlink:href="#DejaVuSans-113"/>
     <use x="63.476562" xlink:href="#DejaVuSans-45"/>
     <use x="99.560547" xlink:href="#DejaVuSans-102"/>
     <use x="134.765625" xlink:href="#DejaVuSans-105"/>
     <use x="162.548828" xlink:href="#DejaVuSans-110"/>
     <use x="225.927734" xlink:href="#DejaVuSans-46"/>
     <use x="257.714844" xlink:href="#DejaVuSans-67"/>
     <use x="327.539062" xlink:href="#DejaVuSans-80"/>
    </g>
   </g>
  </g>
  <g id="axes_5">
   <g id="patch_22">
    <path d="M 1182.315789 1289.178947 
L 1769.684211 1289.178947 
L 1769.684211 860.021053 
L 1182.315789 860.021053 
z
" style="fill:#ffffff;"/>
   </g>
   <g id="matplotlib.axis_9">
    <g id="xtick_21">
     <g id="line2d_57">
      <g>
       <use style="stroke:#000000;stroke-width:0.8;" x="1269.333333" xlink:href="#mc7f77383c8" y="1289.178947"/>
      </g>
     </g>
    </g>
    <g id="xtick_22">
     <g id="line2d_58">
      <g>
       <use style="stroke:#000000;stroke-width:0.8;" x="1378.105263" xlink:href="#mc7f77383c8" y="1289.178947"/>
      </g>
     </g>
    </g>
    <g id="xtick_23">
     <g id="line2d_59">
      <g>
       <use style="stroke:#000000;stroke-width:0.8;" x="1486.877193" xlink:href="#mc7f77383c8" y="1289.178947"/>
      </g>
     </g>
    </g>
    <g id="xtick_24">
     <g id="line2d_60">
      <g>
       <use style="stroke:#000000;stroke-width:0.8;" x="1595.649123" xlink:href="#mc7f77383c8" y="1289.178947"/>
      </g>
     </g>
    </g>
    <g id="xtick_25">
     <g id="line2d_61">
      <g>
       <use style="stroke:#000000;stroke-width:0.8;" x="1704.421053" xlink:href="#mc7f77383c8" y="1289.178947"/>
      </g>
     </g>
    </g>
   </g>
   <g id="matplotlib.axis_10">
    <g id="ytick_33">
     <g id="line2d_62">
      <g>
       <use style="stroke:#000000;stroke-width:0.8;" x="1182.315789" xlink:href="#m779b82455c" y="966.7988"/>
      </g>
     </g>
    </g>
    <g id="ytick_34">
     <g id="line2d_63">
      <g>
       <use style="stroke:#000000;stroke-width:0.6;" x="1182.315789" xlink:href="#m4343bea4be" y="1289.178947"/>
      </g>
     </g>
    </g>
    <g id="ytick_35">
     <g id="line2d_64">
      <g>
       <use style="stroke:#000000;stroke-width:0.6;" x="1182.315789" xlink:href="#m4343bea4be" y="1212.148147"/>
      </g>
     </g>
    </g>
    <g id="ytick_36">
     <g id="line2d_65">
      <g>
       <use style="stroke:#000000;stroke-width:0.6;" x="1182.315789" xlink:href="#m4343bea4be" y="1152.398416"/>
      </g>
     </g>
    </g>
    <g id="ytick_37">
     <g id="line2d_66">
      <g>
       <use style="stroke:#000000;stroke-width:0.6;" x="1182.315789" xlink:href="#m4343bea4be" y="1103.579331"/>
      </g>
     </g>
    </g>
    <g id="ytick_38">
     <g id="line2d_67">
      <g>
       <use style="stroke:#000000;stroke-width:0.6;" x="1182.315789" xlink:href="#m4343bea4be" y="1062.303383"/>
      </g>
     </g>
    </g>
    <g id="ytick_39">
     <g id="line2d_68">
      <g>
       <use style="stroke:#000000;stroke-width:0.6;" x="1182.315789" xlink:href="#m4343bea4be" y="1026.548531"/>
      </g>
     </g>
    </g>
    <g id="ytick_40">
     <g id="line2d_69">
      <g>
       <use style="stroke:#000000;stroke-width:0.6;" x="1182.315789" xlink:href="#m4343bea4be" y="995.010516"/>
      </g>
     </g>
    </g>
   </g>
   <g id="line2d_70">
    <path clip-path="url(#pad8cdd40ab)" d="M 1530.385965 1289.178947 
L 1552.140351 1141.896535 
L 1573.894737 1019.936747 
L 1595.649123 972.208351 
L 1617.403509 1099.153385 
L 1639.157895 983.366784 
L 1660.912281 888.432517 
L 1682.666667 1026.548531 
L 1704.421053 1074.032133 
L 1726.175439 1078.05873 
L 1747.929825 1090.515099 
L 1769.684211 1070.065192 
" style="fill:none;stroke:#1f77b4;stroke-dasharray:5.55,2.4;stroke-dashoffset:0;stroke-width:1.5;"/>
    <g clip-path="url(#pad8cdd40ab)">
     <use style="fill:#1f77b4;stroke:#1f77b4;" x="1530.385965" xlink:href="#mcc82b219a3" y="1289.178947"/>
     <use style="fill:#1f77b4;stroke:#1f77b4;" x="1552.140351" xlink:href="#mcc82b219a3" y="1141.896535"/>
     <use style="fill:#1f77b4;stroke:#1f77b4;" x="1573.894737" xlink:href="#mcc82b219a3" y="1019.936747"/>
     <use style="fill:#1f77b4;stroke:#1f77b4;" x="1595.649123" xlink:href="#mcc82b219a3" y="972.208351"/>
     <use style="fill:#1f77b4;stroke:#1f77b4;" x="1617.403509" xlink:href="#mcc82b219a3" y="1099.153385"/>
     <use style="fill:#1f77b4;stroke:#1f77b4;" x="1639.157895" xlink:href="#mcc82b219a3" y="983.366784"/>
     <use style="fill:#1f77b4;stroke:#1f77b4;" x="1660.912281" xlink:href="#mcc82b219a3" y="888.432517"/>
     <use style="fill:#1f77b4;stroke:#1f77b4;" x="1682.666667" xlink:href="#mcc82b219a3" y="1026.548531"/>
     <use style="fill:#1f77b4;stroke:#1f77b4;" x="1704.421053" xlink:href="#mcc82b219a3" y="1074.032133"/>
     <use style="fill:#1f77b4;stroke:#1f77b4;" x="1726.175439" xlink:href="#mcc82b219a3" y="1078.05873"/>
     <use style="fill:#1f77b4;stroke:#1f77b4;" x="1747.929825" xlink:href="#mcc82b219a3" y="1090.515099"/>
     <use style="fill:#1f77b4;stroke:#1f77b4;" x="1769.684211" xlink:href="#mcc82b219a3" y="1070.065192"/>
    </g>
   </g>
   <g id="patch_23">
    <path d="M 1182.315789 1289.178947 
L 1182.315789 860.021053 
" style="fill:none;stroke:#000000;stroke-linecap:square;stroke-linejoin:miter;stroke-width:0.8;"/>
   </g>
   <g id="patch_24">
    <path d="M 1769.684211 1289.178947 
L 1769.684211 860.021053 
" style="fill:none;stroke:#000000;stroke-linecap:square;stroke-linejoin:miter;stroke-width:0.8;"/>
   </g>
   <g id="patch_25">
    <path d="M 1182.315789 1289.178947 
L 1769.684211 1289.178947 
" style="fill:none;stroke:#000000;stroke-linecap:square;stroke-linejoin:miter;stroke-width:0.8;"/>
   </g>
   <g id="patch_26">
    <path d="M 1182.315789 860.021053 
L 1769.684211 860.021053 
" style="fill:none;stroke:#000000;stroke-linecap:square;stroke-linejoin:miter;stroke-width:0.8;"/>
   </g>
   <g id="text_13">
    <!-- q-fin.PR -->
    <g transform="translate(1452.750938 854.021053)scale(0.12 -0.12)">
     <use xlink:href="#DejaVuSans-113"/>
     <use x="63.476562" xlink:href="#DejaVuSans-45"/>
     <use x="99.560547" xlink:href="#DejaVuSans-102"/>
     <use x="134.765625" xlink:href="#DejaVuSans-105"/>
     <use x="162.548828" xlink:href="#DejaVuSans-110"/>
     <use x="225.927734" xlink:href="#DejaVuSans-46"/>
     <use x="257.714844" xlink:href="#DejaVuSans-80"/>
     <use x="318.017578" xlink:href="#DejaVuSans-82"/>
    </g>
   </g>
  </g>
  <g id="axes_6">
   <g id="patch_27">
    <path d="M 2004.631579 1289.178947 
L 2592 1289.178947 
L 2592 860.021053 
L 2004.631579 860.021053 
z
" style="fill:#ffffff;"/>
   </g>
   <g id="matplotlib.axis_11">
    <g id="xtick_26">
     <g id="line2d_71">
      <g>
       <use style="stroke:#000000;stroke-width:0.8;" x="2091.649123" xlink:href="#mc7f77383c8" y="1289.178947"/>
      </g>
     </g>
    </g>
    <g id="xtick_27">
     <g id="line2d_72">
      <g>
       <use style="stroke:#000000;stroke-width:0.8;" x="2200.421053" xlink:href="#mc7f77383c8" y="1289.178947"/>
      </g>
     </g>
    </g>
    <g id="xtick_28">
     <g id="line2d_73">
      <g>
       <use style="stroke:#000000;stroke-width:0.8;" x="2309.192982" xlink:href="#mc7f77383c8" y="1289.178947"/>
      </g>
     </g>
    </g>
    <g id="xtick_29">
     <g id="line2d_74">
      <g>
       <use style="stroke:#000000;stroke-width:0.8;" x="2417.964912" xlink:href="#mc7f77383c8" y="1289.178947"/>
      </g>
     </g>
    </g>
    <g id="xtick_30">
     <g id="line2d_75">
      <g>
       <use style="stroke:#000000;stroke-width:0.8;" x="2526.736842" xlink:href="#mc7f77383c8" y="1289.178947"/>
      </g>
     </g>
    </g>
   </g>
   <g id="matplotlib.axis_12">
    <g id="ytick_41">
     <g id="line2d_76">
      <g>
       <use style="stroke:#000000;stroke-width:0.8;" x="2004.631579" xlink:href="#m779b82455c" y="966.7988"/>
      </g>
     </g>
    </g>
    <g id="ytick_42">
     <g id="line2d_77">
      <g>
       <use style="stroke:#000000;stroke-width:0.6;" x="2004.631579" xlink:href="#m4343bea4be" y="1289.178947"/>
      </g>
     </g>
    </g>
    <g id="ytick_43">
     <g id="line2d_78">
      <g>
       <use style="stroke:#000000;stroke-width:0.6;" x="2004.631579" xlink:href="#m4343bea4be" y="1212.148147"/>
      </g>
     </g>
    </g>
    <g id="ytick_44">
     <g id="line2d_79">
      <g>
       <use style="stroke:#000000;stroke-width:0.6;" x="2004.631579" xlink:href="#m4343bea4be" y="1152.398416"/>
      </g>
     </g>
    </g>
    <g id="ytick_45">
     <g id="line2d_80">
      <g>
       <use style="stroke:#000000;stroke-width:0.6;" x="2004.631579" xlink:href="#m4343bea4be" y="1103.579331"/>
      </g>
     </g>
    </g>
    <g id="ytick_46">
     <g id="line2d_81">
      <g>
       <use style="stroke:#000000;stroke-width:0.6;" x="2004.631579" xlink:href="#m4343bea4be" y="1062.303383"/>
      </g>
     </g>
    </g>
    <g id="ytick_47">
     <g id="line2d_82">
      <g>
       <use style="stroke:#000000;stroke-width:0.6;" x="2004.631579" xlink:href="#m4343bea4be" y="1026.548531"/>
      </g>
     </g>
    </g>
    <g id="ytick_48">
     <g id="line2d_83">
      <g>
       <use style="stroke:#000000;stroke-width:0.6;" x="2004.631579" xlink:href="#m4343bea4be" y="995.010516"/>
      </g>
     </g>
    </g>
   </g>
   <g id="line2d_84">
    <path clip-path="url(#p1394a8aa85)" d="M 2352.701754 1513.095767 
L 2374.45614 1474.778563 
L 2396.210526 1233.023413 
L 2417.964912 1122.053114 
L 2439.719298 1074.032133 
L 2461.473684 1103.579331 
L 2483.22807 1094.799409 
L 2504.982456 1090.515099 
L 2526.736842 1054.760247 
L 2548.491228 1078.05873 
L 2570.245614 1086.298262 
L 2592 1013.484299 
" style="fill:none;stroke:#1f77b4;stroke-dasharray:5.55,2.4;stroke-dashoffset:0;stroke-width:1.5;"/>
    <g clip-path="url(#p1394a8aa85)">
     <use style="fill:#1f77b4;stroke:#1f77b4;" x="2352.701754" xlink:href="#mcc82b219a3" y="1513.095767"/>
     <use style="fill:#1f77b4;stroke:#1f77b4;" x="2374.45614" xlink:href="#mcc82b219a3" y="1474.778563"/>
     <use style="fill:#1f77b4;stroke:#1f77b4;" x="2396.210526" xlink:href="#mcc82b219a3" y="1233.023413"/>
     <use style="fill:#1f77b4;stroke:#1f77b4;" x="2417.964912" xlink:href="#mcc82b219a3" y="1122.053114"/>
     <use style="fill:#1f77b4;stroke:#1f77b4;" x="2439.719298" xlink:href="#mcc82b219a3" y="1074.032133"/>
     <use style="fill:#1f77b4;stroke:#1f77b4;" x="2461.473684" xlink:href="#mcc82b219a3" y="1103.579331"/>
     <use style="fill:#1f77b4;stroke:#1f77b4;" x="2483.22807" xlink:href="#mcc82b219a3" y="1094.799409"/>
     <use style="fill:#1f77b4;stroke:#1f77b4;" x="2504.982456" xlink:href="#mcc82b219a3" y="1090.515099"/>
     <use style="fill:#1f77b4;stroke:#1f77b4;" x="2526.736842" xlink:href="#mcc82b219a3" y="1054.760247"/>
     <use style="fill:#1f77b4;stroke:#1f77b4;" x="2548.491228" xlink:href="#mcc82b219a3" y="1078.05873"/>
     <use style="fill:#1f77b4;stroke:#1f77b4;" x="2570.245614" xlink:href="#mcc82b219a3" y="1086.298262"/>
     <use style="fill:#1f77b4;stroke:#1f77b4;" x="2592" xlink:href="#mcc82b219a3" y="1013.484299"/>
    </g>
   </g>
   <g id="patch_28">
    <path d="M 2004.631579 1289.178947 
L 2004.631579 860.021053 
" style="fill:none;stroke:#000000;stroke-linecap:square;stroke-linejoin:miter;stroke-width:0.8;"/>
   </g>
   <g id="patch_29">
    <path d="M 2592 1289.178947 
L 2592 860.021053 
" style="fill:none;stroke:#000000;stroke-linecap:square;stroke-linejoin:miter;stroke-width:0.8;"/>
   </g>
   <g id="patch_30">
    <path d="M 2004.631579 1289.178947 
L 2592 1289.178947 
" style="fill:none;stroke:#000000;stroke-linecap:square;stroke-linejoin:miter;stroke-width:0.8;"/>
   </g>
   <g id="patch_31">
    <path d="M 2004.631579 860.021053 
L 2592 860.021053 
" style="fill:none;stroke:#000000;stroke-linecap:square;stroke-linejoin:miter;stroke-width:0.8;"/>
   </g>
   <g id="text_14">
    <!-- q-fin.RM -->
    <defs>
     <path d="M 9.8125 72.90625 
L 24.515625 72.90625 
L 43.109375 23.296875 
L 61.8125 72.90625 
L 76.515625 72.90625 
L 76.515625 0 
L 66.890625 0 
L 66.890625 64.015625 
L 48.09375 14.015625 
L 38.1875 14.015625 
L 19.390625 64.015625 
L 19.390625 0 
L 9.8125 0 
z
" id="DejaVuSans-77"/>
    </defs>
    <g transform="translate(2273.507664 854.021053)scale(0.12 -0.12)">
     <use xlink:href="#DejaVuSans-113"/>
     <use x="63.476562" xlink:href="#DejaVuSans-45"/>
     <use x="99.560547" xlink:href="#DejaVuSans-102"/>
     <use x="134.765625" xlink:href="#DejaVuSans-105"/>
     <use x="162.548828" xlink:href="#DejaVuSans-110"/>
     <use x="225.927734" xlink:href="#DejaVuSans-46"/>
     <use x="257.714844" xlink:href="#DejaVuSans-82"/>
     <use x="327.197266" xlink:href="#DejaVuSans-77"/>
    </g>
   </g>
  </g>
  <g id="axes_7">
   <g id="patch_32">
    <path d="M 360 1890 
L 947.368421 1890 
L 947.368421 1460.842105 
L 360 1460.842105 
z
" style="fill:#ffffff;"/>
   </g>
   <g id="matplotlib.axis_13">
    <g id="xtick_31">
     <g id="line2d_85">
      <g>
       <use style="stroke:#000000;stroke-width:0.8;" x="447.017544" xlink:href="#mc7f77383c8" y="1890"/>
      </g>
     </g>
     <g id="text_15">
      <!-- 1995 -->
      <defs>
       <path d="M 10.984375 1.515625 
L 10.984375 10.5 
Q 14.703125 8.734375 18.5 7.8125 
Q 22.3125 6.890625 25.984375 6.890625 
Q 35.75 6.890625 40.890625 13.453125 
Q 46.046875 20.015625 46.78125 33.40625 
Q 43.953125 29.203125 39.59375 26.953125 
Q 35.25 24.703125 29.984375 24.703125 
Q 19.046875 24.703125 12.671875 31.3125 
Q 6.296875 37.9375 6.296875 49.421875 
Q 6.296875 60.640625 12.9375 67.421875 
Q 19.578125 74.21875 30.609375 74.21875 
Q 43.265625 74.21875 49.921875 64.515625 
Q 56.59375 54.828125 56.59375 36.375 
Q 56.59375 19.140625 48.40625 8.859375 
Q 40.234375 -1.421875 26.421875 -1.421875 
Q 22.703125 -1.421875 18.890625 -0.6875 
Q 15.09375 0.046875 10.984375 1.515625 
z
M 30.609375 32.421875 
Q 37.25 32.421875 41.125 36.953125 
Q 45.015625 41.5 45.015625 49.421875 
Q 45.015625 57.28125 41.125 61.84375 
Q 37.25 66.40625 30.609375 66.40625 
Q 23.96875 66.40625 20.09375 61.84375 
Q 16.21875 57.28125 16.21875 49.421875 
Q 16.21875 41.5 20.09375 36.953125 
Q 23.96875 32.421875 30.609375 32.421875 
z
" id="DejaVuSans-57"/>
       <path d="M 10.796875 72.90625 
L 49.515625 72.90625 
L 49.515625 64.59375 
L 19.828125 64.59375 
L 19.828125 46.734375 
Q 21.96875 47.46875 24.109375 47.828125 
Q 26.265625 48.1875 28.421875 48.1875 
Q 40.625 48.1875 47.75 41.5 
Q 54.890625 34.8125 54.890625 23.390625 
Q 54.890625 11.625 47.5625 5.09375 
Q 40.234375 -1.421875 26.90625 -1.421875 
Q 22.3125 -1.421875 17.546875 -0.640625 
Q 12.796875 0.140625 7.71875 1.703125 
L 7.71875 11.625 
Q 12.109375 9.234375 16.796875 8.0625 
Q 21.484375 6.890625 26.703125 6.890625 
Q 35.15625 6.890625 40.078125 11.328125 
Q 45.015625 15.765625 45.015625 23.390625 
Q 45.015625 31 40.078125 35.4375 
Q 35.15625 39.890625 26.703125 39.890625 
Q 22.75 39.890625 18.8125 39.015625 
Q 14.890625 38.140625 10.796875 36.28125 
z
" id="DejaVuSans-53"/>
      </defs>
      <g transform="translate(434.292544 1904.598438)scale(0.1 -0.1)">
       <use xlink:href="#DejaVuSans-49"/>
       <use x="63.623047" xlink:href="#DejaVuSans-57"/>
       <use x="127.246094" xlink:href="#DejaVuSans-57"/>
       <use x="190.869141" xlink:href="#DejaVuSans-53"/>
      </g>
     </g>
    </g>
    <g id="xtick_32">
     <g id="line2d_86">
      <g>
       <use style="stroke:#000000;stroke-width:0.8;" x="555.789474" xlink:href="#mc7f77383c8" y="1890"/>
      </g>
     </g>
     <g id="text_16">
      <!-- 2000 -->
      <g transform="translate(543.064474 1904.598438)scale(0.1 -0.1)">
       <use xlink:href="#DejaVuSans-50"/>
       <use x="63.623047" xlink:href="#DejaVuSans-48"/>
       <use x="127.246094" xlink:href="#DejaVuSans-48"/>
       <use x="190.869141" xlink:href="#DejaVuSans-48"/>
      </g>
     </g>
    </g>
    <g id="xtick_33">
     <g id="line2d_87">
      <g>
       <use style="stroke:#000000;stroke-width:0.8;" x="664.561404" xlink:href="#mc7f77383c8" y="1890"/>
      </g>
     </g>
     <g id="text_17">
      <!-- 2005 -->
      <g transform="translate(651.836404 1904.598438)scale(0.1 -0.1)">
       <use xlink:href="#DejaVuSans-50"/>
       <use x="63.623047" xlink:href="#DejaVuSans-48"/>
       <use x="127.246094" xlink:href="#DejaVuSans-48"/>
       <use x="190.869141" xlink:href="#DejaVuSans-53"/>
      </g>
     </g>
    </g>
    <g id="xtick_34">
     <g id="line2d_88">
      <g>
       <use style="stroke:#000000;stroke-width:0.8;" x="773.333333" xlink:href="#mc7f77383c8" y="1890"/>
      </g>
     </g>
     <g id="text_18">
      <!-- 2010 -->
      <g transform="translate(760.608333 1904.598438)scale(0.1 -0.1)">
       <use xlink:href="#DejaVuSans-50"/>
       <use x="63.623047" xlink:href="#DejaVuSans-48"/>
       <use x="127.246094" xlink:href="#DejaVuSans-49"/>
       <use x="190.869141" xlink:href="#DejaVuSans-48"/>
      </g>
     </g>
    </g>
    <g id="xtick_35">
     <g id="line2d_89">
      <g>
       <use style="stroke:#000000;stroke-width:0.8;" x="882.105263" xlink:href="#mc7f77383c8" y="1890"/>
      </g>
     </g>
     <g id="text_19">
      <!-- 2015 -->
      <g transform="translate(869.380263 1904.598438)scale(0.1 -0.1)">
       <use xlink:href="#DejaVuSans-50"/>
       <use x="63.623047" xlink:href="#DejaVuSans-48"/>
       <use x="127.246094" xlink:href="#DejaVuSans-49"/>
       <use x="190.869141" xlink:href="#DejaVuSans-53"/>
      </g>
     </g>
    </g>
   </g>
   <g id="matplotlib.axis_14">
    <g id="ytick_49">
     <g id="line2d_90">
      <g>
       <use style="stroke:#000000;stroke-width:0.8;" x="360" xlink:href="#m779b82455c" y="1539.680877"/>
      </g>
     </g>
     <g id="text_20">
      <!-- $\mathdefault{10^{2}}$ -->
      <g transform="translate(335.4 1543.480096)scale(0.1 -0.1)">
       <use transform="translate(0 0.765625)" xlink:href="#DejaVuSans-49"/>
       <use transform="translate(63.623047 0.765625)" xlink:href="#DejaVuSans-48"/>
       <use transform="translate(128.203125 39.046875)scale(0.7)" xlink:href="#DejaVuSans-50"/>
      </g>
     </g>
    </g>
    <g id="ytick_50">
     <g id="line2d_91">
      <g>
       <use style="stroke:#000000;stroke-width:0.6;" x="360" xlink:href="#m4343bea4be" y="1857.869709"/>
      </g>
     </g>
     <g id="text_21">
      <!-- $\mathdefault{2\times10^{1}}$ -->
      <g transform="translate(318.4 1861.668928)scale(0.1 -0.1)">
       <use transform="translate(0 0.684375)" xlink:href="#DejaVuSans-50"/>
       <use transform="translate(83.105469 0.684375)" xlink:href="#DejaVuSans-215"/>
       <use transform="translate(186.376953 0.684375)" xlink:href="#DejaVuSans-49"/>
       <use transform="translate(250 0.684375)" xlink:href="#DejaVuSans-48"/>
       <use transform="translate(314.580078 38.965625)scale(0.7)" xlink:href="#DejaVuSans-49"/>
      </g>
     </g>
    </g>
    <g id="ytick_51">
     <g id="line2d_92">
      <g>
       <use style="stroke:#000000;stroke-width:0.6;" x="360" xlink:href="#m4343bea4be" y="1777.708512"/>
      </g>
     </g>
     <g id="text_22">
      <!-- $\mathdefault{3\times10^{1}}$ -->
      <g transform="translate(318.4 1781.507731)scale(0.1 -0.1)">
       <use transform="translate(0 0.684375)" xlink:href="#DejaVuSans-51"/>
       <use transform="translate(83.105469 0.684375)" xlink:href="#DejaVuSans-215"/>
       <use transform="translate(186.376953 0.684375)" xlink:href="#DejaVuSans-49"/>
       <use transform="translate(250 0.684375)" xlink:href="#DejaVuSans-48"/>
       <use transform="translate(314.580078 38.965625)scale(0.7)" xlink:href="#DejaVuSans-49"/>
      </g>
     </g>
    </g>
    <g id="ytick_52">
     <g id="line2d_93">
      <g>
       <use style="stroke:#000000;stroke-width:0.6;" x="360" xlink:href="#m4343bea4be" y="1720.833238"/>
      </g>
     </g>
     <g id="text_23">
      <!-- $\mathdefault{4\times10^{1}}$ -->
      <g transform="translate(318.4 1724.632457)scale(0.1 -0.1)">
       <use transform="translate(0 0.684375)" xlink:href="#DejaVuSans-52"/>
       <use transform="translate(83.105469 0.684375)" xlink:href="#DejaVuSans-215"/>
       <use transform="translate(186.376953 0.684375)" xlink:href="#DejaVuSans-49"/>
       <use transform="translate(250 0.684375)" xlink:href="#DejaVuSans-48"/>
       <use transform="translate(314.580078 38.965625)scale(0.7)" xlink:href="#DejaVuSans-49"/>
      </g>
     </g>
    </g>
    <g id="ytick_53">
     <g id="line2d_94">
      <g>
       <use style="stroke:#000000;stroke-width:0.6;" x="360" xlink:href="#m4343bea4be" y="1676.717348"/>
      </g>
     </g>
    </g>
    <g id="ytick_54">
     <g id="line2d_95">
      <g>
       <use style="stroke:#000000;stroke-width:0.6;" x="360" xlink:href="#m4343bea4be" y="1640.672041"/>
      </g>
     </g>
     <g id="text_24">
      <!-- $\mathdefault{6\times10^{1}}$ -->
      <g transform="translate(318.4 1644.47126)scale(0.1 -0.1)">
       <use transform="translate(0 0.684375)" xlink:href="#DejaVuSans-54"/>
       <use transform="translate(83.105469 0.684375)" xlink:href="#DejaVuSans-215"/>
       <use transform="translate(186.376953 0.684375)" xlink:href="#DejaVuSans-49"/>
       <use transform="translate(250 0.684375)" xlink:href="#DejaVuSans-48"/>
       <use transform="translate(314.580078 38.965625)scale(0.7)" xlink:href="#DejaVuSans-49"/>
      </g>
     </g>
    </g>
    <g id="ytick_55">
     <g id="line2d_96">
      <g>
       <use style="stroke:#000000;stroke-width:0.6;" x="360" xlink:href="#m4343bea4be" y="1610.196169"/>
      </g>
     </g>
    </g>
    <g id="ytick_56">
     <g id="line2d_97">
      <g>
       <use style="stroke:#000000;stroke-width:0.6;" x="360" xlink:href="#m4343bea4be" y="1583.796767"/>
      </g>
     </g>
    </g>
    <g id="ytick_57">
     <g id="line2d_98">
      <g>
       <use style="stroke:#000000;stroke-width:0.6;" x="360" xlink:href="#m4343bea4be" y="1560.510844"/>
      </g>
     </g>
    </g>
   </g>
   <g id="line2d_99">
    <path clip-path="url(#p7337ee8572)" d="M 860.350877 1569.498839 
L 882.105263 1489.337642 
L 903.859649 1463.513792 
L 925.614035 1476.004377 
L 947.368421 1460.842105 
" style="fill:none;stroke:#1f77b4;stroke-dasharray:5.55,2.4;stroke-dashoffset:0;stroke-width:1.5;"/>
    <g clip-path="url(#p7337ee8572)">
     <use style="fill:#1f77b4;stroke:#1f77b4;" x="860.350877" xlink:href="#mcc82b219a3" y="1569.498839"/>
     <use style="fill:#1f77b4;stroke:#1f77b4;" x="882.105263" xlink:href="#mcc82b219a3" y="1489.337642"/>
     <use style="fill:#1f77b4;stroke:#1f77b4;" x="903.859649" xlink:href="#mcc82b219a3" y="1463.513792"/>
     <use style="fill:#1f77b4;stroke:#1f77b4;" x="925.614035" xlink:href="#mcc82b219a3" y="1476.004377"/>
     <use style="fill:#1f77b4;stroke:#1f77b4;" x="947.368421" xlink:href="#mcc82b219a3" y="1460.842105"/>
    </g>
   </g>
   <g id="patch_33">
    <path d="M 360 1890 
L 360 1460.842105 
" style="fill:none;stroke:#000000;stroke-linecap:square;stroke-linejoin:miter;stroke-width:0.8;"/>
   </g>
   <g id="patch_34">
    <path d="M 947.368421 1890 
L 947.368421 1460.842105 
" style="fill:none;stroke:#000000;stroke-linecap:square;stroke-linejoin:miter;stroke-width:0.8;"/>
   </g>
   <g id="patch_35">
    <path d="M 360 1890 
L 947.368421 1890 
" style="fill:none;stroke:#000000;stroke-linecap:square;stroke-linejoin:miter;stroke-width:0.8;"/>
   </g>
   <g id="patch_36">
    <path d="M 360 1460.842105 
L 947.368421 1460.842105 
" style="fill:none;stroke:#000000;stroke-linecap:square;stroke-linejoin:miter;stroke-width:0.8;"/>
   </g>
   <g id="text_25">
    <!-- q-fin.MF -->
    <defs>
     <path d="M 9.8125 72.90625 
L 51.703125 72.90625 
L 51.703125 64.59375 
L 19.671875 64.59375 
L 19.671875 43.109375 
L 48.578125 43.109375 
L 48.578125 34.8125 
L 19.671875 34.8125 
L 19.671875 0 
L 9.8125 0 
z
" id="DejaVuSans-70"/>
    </defs>
    <g transform="translate(629.594211 1454.842105)scale(0.12 -0.12)">
     <use xlink:href="#DejaVuSans-113"/>
     <use x="63.476562" xlink:href="#DejaVuSans-45"/>
     <use x="99.560547" xlink:href="#DejaVuSans-102"/>
     <use x="134.765625" xlink:href="#DejaVuSans-105"/>
     <use x="162.548828" xlink:href="#DejaVuSans-110"/>
     <use x="225.927734" xlink:href="#DejaVuSans-46"/>
     <use x="257.714844" xlink:href="#DejaVuSans-77"/>
     <use x="343.994141" xlink:href="#DejaVuSans-70"/>
    </g>
   </g>
  </g>
  <g id="axes_8">
   <g id="patch_37">
    <path d="M 1182.315789 1890 
L 1769.684211 1890 
L 1769.684211 1460.842105 
L 1182.315789 1460.842105 
z
" style="fill:#ffffff;"/>
   </g>
   <g id="matplotlib.axis_15">
    <g id="xtick_36">
     <g id="line2d_100">
      <g>
       <use style="stroke:#000000;stroke-width:0.8;" x="1269.333333" xlink:href="#mc7f77383c8" y="1890"/>
      </g>
     </g>
     <g id="text_26">
      <!-- 1995 -->
      <g transform="translate(1256.608333 1904.598438)scale(0.1 -0.1)">
       <use xlink:href="#DejaVuSans-49"/>
       <use x="63.623047" xlink:href="#DejaVuSans-57"/>
       <use x="127.246094" xlink:href="#DejaVuSans-57"/>
       <use x="190.869141" xlink:href="#DejaVuSans-53"/>
      </g>
     </g>
    </g>
    <g id="xtick_37">
     <g id="line2d_101">
      <g>
       <use style="stroke:#000000;stroke-width:0.8;" x="1378.105263" xlink:href="#mc7f77383c8" y="1890"/>
      </g>
     </g>
     <g id="text_27">
      <!-- 2000 -->
      <g transform="translate(1365.380263 1904.598438)scale(0.1 -0.1)">
       <use xlink:href="#DejaVuSans-50"/>
       <use x="63.623047" xlink:href="#DejaVuSans-48"/>
       <use x="127.246094" xlink:href="#DejaVuSans-48"/>
       <use x="190.869141" xlink:href="#DejaVuSans-48"/>
      </g>
     </g>
    </g>
    <g id="xtick_38">
     <g id="line2d_102">
      <g>
       <use style="stroke:#000000;stroke-width:0.8;" x="1486.877193" xlink:href="#mc7f77383c8" y="1890"/>
      </g>
     </g>
     <g id="text_28">
      <!-- 2005 -->
      <g transform="translate(1474.152193 1904.598438)scale(0.1 -0.1)">
       <use xlink:href="#DejaVuSans-50"/>
       <use x="63.623047" xlink:href="#DejaVuSans-48"/>
       <use x="127.246094" xlink:href="#DejaVuSans-48"/>
       <use x="190.869141" xlink:href="#DejaVuSans-53"/>
      </g>
     </g>
    </g>
    <g id="xtick_39">
     <g id="line2d_103">
      <g>
       <use style="stroke:#000000;stroke-width:0.8;" x="1595.649123" xlink:href="#mc7f77383c8" y="1890"/>
      </g>
     </g>
     <g id="text_29">
      <!-- 2010 -->
      <g transform="translate(1582.924123 1904.598438)scale(0.1 -0.1)">
       <use xlink:href="#DejaVuSans-50"/>
       <use x="63.623047" xlink:href="#DejaVuSans-48"/>
       <use x="127.246094" xlink:href="#DejaVuSans-49"/>
       <use x="190.869141" xlink:href="#DejaVuSans-48"/>
      </g>
     </g>
    </g>
    <g id="xtick_40">
     <g id="line2d_104">
      <g>
       <use style="stroke:#000000;stroke-width:0.8;" x="1704.421053" xlink:href="#mc7f77383c8" y="1890"/>
      </g>
     </g>
     <g id="text_30">
      <!-- 2015 -->
      <g transform="translate(1691.696053 1904.598438)scale(0.1 -0.1)">
       <use xlink:href="#DejaVuSans-50"/>
       <use x="63.623047" xlink:href="#DejaVuSans-48"/>
       <use x="127.246094" xlink:href="#DejaVuSans-49"/>
       <use x="190.869141" xlink:href="#DejaVuSans-53"/>
      </g>
     </g>
    </g>
   </g>
   <g id="matplotlib.axis_16">
    <g id="ytick_58">
     <g id="line2d_105">
      <g>
       <use style="stroke:#000000;stroke-width:0.8;" x="1182.315789" xlink:href="#m779b82455c" y="1539.680877"/>
      </g>
     </g>
    </g>
    <g id="ytick_59">
     <g id="line2d_106">
      <g>
       <use style="stroke:#000000;stroke-width:0.6;" x="1182.315789" xlink:href="#m4343bea4be" y="1857.869709"/>
      </g>
     </g>
    </g>
    <g id="ytick_60">
     <g id="line2d_107">
      <g>
       <use style="stroke:#000000;stroke-width:0.6;" x="1182.315789" xlink:href="#m4343bea4be" y="1777.708512"/>
      </g>
     </g>
    </g>
    <g id="ytick_61">
     <g id="line2d_108">
      <g>
       <use style="stroke:#000000;stroke-width:0.6;" x="1182.315789" xlink:href="#m4343bea4be" y="1720.833238"/>
      </g>
     </g>
    </g>
    <g id="ytick_62">
     <g id="line2d_109">
      <g>
       <use style="stroke:#000000;stroke-width:0.6;" x="1182.315789" xlink:href="#m4343bea4be" y="1676.717348"/>
      </g>
     </g>
    </g>
    <g id="ytick_63">
     <g id="line2d_110">
      <g>
       <use style="stroke:#000000;stroke-width:0.6;" x="1182.315789" xlink:href="#m4343bea4be" y="1640.672041"/>
      </g>
     </g>
    </g>
    <g id="ytick_64">
     <g id="line2d_111">
      <g>
       <use style="stroke:#000000;stroke-width:0.6;" x="1182.315789" xlink:href="#m4343bea4be" y="1610.196169"/>
      </g>
     </g>
    </g>
    <g id="ytick_65">
     <g id="line2d_112">
      <g>
       <use style="stroke:#000000;stroke-width:0.6;" x="1182.315789" xlink:href="#m4343bea4be" y="1583.796767"/>
      </g>
     </g>
    </g>
    <g id="ytick_66">
     <g id="line2d_113">
      <g>
       <use style="stroke:#000000;stroke-width:0.6;" x="1182.315789" xlink:href="#m4343bea4be" y="1560.510844"/>
      </g>
     </g>
    </g>
   </g>
   <g id="line2d_114">
    <path clip-path="url(#p6f5fe0fed6)" d="M 1530.385965 1830.238516 
L 1552.140351 1890 
L 1573.894737 1764.949128 
L 1595.649123 1725.838615 
L 1617.403509 1631.026136 
L 1639.157895 1680.71146 
L 1660.912281 1599.209907 
L 1682.666667 1583.796767 
L 1704.421053 1701.99024 
L 1726.175439 1627.912657 
L 1747.929825 1654.312059 
L 1769.684211 1604.626734 
" style="fill:none;stroke:#1f77b4;stroke-dasharray:5.55,2.4;stroke-dashoffset:0;stroke-width:1.5;"/>
    <g clip-path="url(#p6f5fe0fed6)">
     <use style="fill:#1f77b4;stroke:#1f77b4;" x="1530.385965" xlink:href="#mcc82b219a3" y="1830.238516"/>
     <use style="fill:#1f77b4;stroke:#1f77b4;" x="1552.140351" xlink:href="#mcc82b219a3" y="1890"/>
     <use style="fill:#1f77b4;stroke:#1f77b4;" x="1573.894737" xlink:href="#mcc82b219a3" y="1764.949128"/>
     <use style="fill:#1f77b4;stroke:#1f77b4;" x="1595.649123" xlink:href="#mcc82b219a3" y="1725.838615"/>
     <use style="fill:#1f77b4;stroke:#1f77b4;" x="1617.403509" xlink:href="#mcc82b219a3" y="1631.026136"/>
     <use style="fill:#1f77b4;stroke:#1f77b4;" x="1639.157895" xlink:href="#mcc82b219a3" y="1680.71146"/>
     <use style="fill:#1f77b4;stroke:#1f77b4;" x="1660.912281" xlink:href="#mcc82b219a3" y="1599.209907"/>
     <use style="fill:#1f77b4;stroke:#1f77b4;" x="1682.666667" xlink:href="#mcc82b219a3" y="1583.796767"/>
     <use style="fill:#1f77b4;stroke:#1f77b4;" x="1704.421053" xlink:href="#mcc82b219a3" y="1701.99024"/>
     <use style="fill:#1f77b4;stroke:#1f77b4;" x="1726.175439" xlink:href="#mcc82b219a3" y="1627.912657"/>
     <use style="fill:#1f77b4;stroke:#1f77b4;" x="1747.929825" xlink:href="#mcc82b219a3" y="1654.312059"/>
     <use style="fill:#1f77b4;stroke:#1f77b4;" x="1769.684211" xlink:href="#mcc82b219a3" y="1604.626734"/>
    </g>
   </g>
   <g id="patch_38">
    <path d="M 1182.315789 1890 
L 1182.315789 1460.842105 
" style="fill:none;stroke:#000000;stroke-linecap:square;stroke-linejoin:miter;stroke-width:0.8;"/>
   </g>
   <g id="patch_39">
    <path d="M 1769.684211 1890 
L 1769.684211 1460.842105 
" style="fill:none;stroke:#000000;stroke-linecap:square;stroke-linejoin:miter;stroke-width:0.8;"/>
   </g>
   <g id="patch_40">
    <path d="M 1182.315789 1890 
L 1769.684211 1890 
" style="fill:none;stroke:#000000;stroke-linecap:square;stroke-linejoin:miter;stroke-width:0.8;"/>
   </g>
   <g id="patch_41">
    <path d="M 1182.315789 1460.842105 
L 1769.684211 1460.842105 
" style="fill:none;stroke:#000000;stroke-linecap:square;stroke-linejoin:miter;stroke-width:0.8;"/>
   </g>
   <g id="text_31">
    <!-- q-fin.PM -->
    <g transform="translate(1451.743125 1454.842105)scale(0.12 -0.12)">
     <use xlink:href="#DejaVuSans-113"/>
     <use x="63.476562" xlink:href="#DejaVuSans-45"/>
     <use x="99.560547" xlink:href="#DejaVuSans-102"/>
     <use x="134.765625" xlink:href="#DejaVuSans-105"/>
     <use x="162.548828" xlink:href="#DejaVuSans-110"/>
     <use x="225.927734" xlink:href="#DejaVuSans-46"/>
     <use x="257.714844" xlink:href="#DejaVuSans-80"/>
     <use x="318.017578" xlink:href="#DejaVuSans-77"/>
    </g>
   </g>
  </g>
  <g id="axes_9">
   <g id="patch_42">
    <path d="M 2004.631579 1890 
L 2592 1890 
L 2592 1460.842105 
L 2004.631579 1460.842105 
z
" style="fill:#ffffff;"/>
   </g>
   <g id="matplotlib.axis_17">
    <g id="xtick_41">
     <g id="line2d_115">
      <g>
       <use style="stroke:#000000;stroke-width:0.8;" x="2091.649123" xlink:href="#mc7f77383c8" y="1890"/>
      </g>
     </g>
     <g id="text_32">
      <!-- 1995 -->
      <g transform="translate(2078.924123 1904.598438)scale(0.1 -0.1)">
       <use xlink:href="#DejaVuSans-49"/>
       <use x="63.623047" xlink:href="#DejaVuSans-57"/>
       <use x="127.246094" xlink:href="#DejaVuSans-57"/>
       <use x="190.869141" xlink:href="#DejaVuSans-53"/>
      </g>
     </g>
    </g>
    <g id="xtick_42">
     <g id="line2d_116">
      <g>
       <use style="stroke:#000000;stroke-width:0.8;" x="2200.421053" xlink:href="#mc7f77383c8" y="1890"/>
      </g>
     </g>
     <g id="text_33">
      <!-- 2000 -->
      <g transform="translate(2187.696053 1904.598438)scale(0.1 -0.1)">
       <use xlink:href="#DejaVuSans-50"/>
       <use x="63.623047" xlink:href="#DejaVuSans-48"/>
       <use x="127.246094" xlink:href="#DejaVuSans-48"/>
       <use x="190.869141" xlink:href="#DejaVuSans-48"/>
      </g>
     </g>
    </g>
    <g id="xtick_43">
     <g id="line2d_117">
      <g>
       <use style="stroke:#000000;stroke-width:0.8;" x="2309.192982" xlink:href="#mc7f77383c8" y="1890"/>
      </g>
     </g>
     <g id="text_34">
      <!-- 2005 -->
      <g transform="translate(2296.467982 1904.598438)scale(0.1 -0.1)">
       <use xlink:href="#DejaVuSans-50"/>
       <use x="63.623047" xlink:href="#DejaVuSans-48"/>
       <use x="127.246094" xlink:href="#DejaVuSans-48"/>
       <use x="190.869141" xlink:href="#DejaVuSans-53"/>
      </g>
     </g>
    </g>
    <g id="xtick_44">
     <g id="line2d_118">
      <g>
       <use style="stroke:#000000;stroke-width:0.8;" x="2417.964912" xlink:href="#mc7f77383c8" y="1890"/>
      </g>
     </g>
     <g id="text_35">
      <!-- 2010 -->
      <g transform="translate(2405.239912 1904.598438)scale(0.1 -0.1)">
       <use xlink:href="#DejaVuSans-50"/>
       <use x="63.623047" xlink:href="#DejaVuSans-48"/>
       <use x="127.246094" xlink:href="#DejaVuSans-49"/>
       <use x="190.869141" xlink:href="#DejaVuSans-48"/>
      </g>
     </g>
    </g>
    <g id="xtick_45">
     <g id="line2d_119">
      <g>
       <use style="stroke:#000000;stroke-width:0.8;" x="2526.736842" xlink:href="#mc7f77383c8" y="1890"/>
      </g>
     </g>
     <g id="text_36">
      <!-- 2015 -->
      <g transform="translate(2514.011842 1904.598438)scale(0.1 -0.1)">
       <use xlink:href="#DejaVuSans-50"/>
       <use x="63.623047" xlink:href="#DejaVuSans-48"/>
       <use x="127.246094" xlink:href="#DejaVuSans-49"/>
       <use x="190.869141" xlink:href="#DejaVuSans-53"/>
      </g>
     </g>
    </g>
   </g>
   <g id="matplotlib.axis_18">
    <g id="ytick_67">
     <g id="line2d_120">
      <g>
       <use style="stroke:#000000;stroke-width:0.8;" x="2004.631579" xlink:href="#m779b82455c" y="1539.680877"/>
      </g>
     </g>
    </g>
    <g id="ytick_68">
     <g id="line2d_121">
      <g>
       <use style="stroke:#000000;stroke-width:0.6;" x="2004.631579" xlink:href="#m4343bea4be" y="1857.869709"/>
      </g>
     </g>
    </g>
    <g id="ytick_69">
     <g id="line2d_122">
      <g>
       <use style="stroke:#000000;stroke-width:0.6;" x="2004.631579" xlink:href="#m4343bea4be" y="1777.708512"/>
      </g>
     </g>
    </g>
    <g id="ytick_70">
     <g id="line2d_123">
      <g>
       <use style="stroke:#000000;stroke-width:0.6;" x="2004.631579" xlink:href="#m4343bea4be" y="1720.833238"/>
      </g>
     </g>
    </g>
    <g id="ytick_71">
     <g id="line2d_124">
      <g>
       <use style="stroke:#000000;stroke-width:0.6;" x="2004.631579" xlink:href="#m4343bea4be" y="1676.717348"/>
      </g>
     </g>
    </g>
    <g id="ytick_72">
     <g id="line2d_125">
      <g>
       <use style="stroke:#000000;stroke-width:0.6;" x="2004.631579" xlink:href="#m4343bea4be" y="1640.672041"/>
      </g>
     </g>
    </g>
    <g id="ytick_73">
     <g id="line2d_126">
      <g>
       <use style="stroke:#000000;stroke-width:0.6;" x="2004.631579" xlink:href="#m4343bea4be" y="1610.196169"/>
      </g>
     </g>
    </g>
    <g id="ytick_74">
     <g id="line2d_127">
      <g>
       <use style="stroke:#000000;stroke-width:0.6;" x="2004.631579" xlink:href="#m4343bea4be" y="1583.796767"/>
      </g>
     </g>
    </g>
    <g id="ytick_75">
     <g id="line2d_128">
      <g>
       <use style="stroke:#000000;stroke-width:0.6;" x="2004.631579" xlink:href="#m4343bea4be" y="1560.510844"/>
      </g>
     </g>
    </g>
   </g>
   <g id="line2d_129">
    <path clip-path="url(#p9e7daa8d1b)" d="M 2504.982456 1706.53531 
L 2526.736842 1528.161007 
L 2548.491228 1512.049684 
L 2570.245614 1513.776349 
L 2592 1890 
" style="fill:none;stroke:#1f77b4;stroke-dasharray:5.55,2.4;stroke-dashoffset:0;stroke-width:1.5;"/>
    <g clip-path="url(#p9e7daa8d1b)">
     <use style="fill:#1f77b4;stroke:#1f77b4;" x="2504.982456" xlink:href="#mcc82b219a3" y="1706.53531"/>
     <use style="fill:#1f77b4;stroke:#1f77b4;" x="2526.736842" xlink:href="#mcc82b219a3" y="1528.161007"/>
     <use style="fill:#1f77b4;stroke:#1f77b4;" x="2548.491228" xlink:href="#mcc82b219a3" y="1512.049684"/>
     <use style="fill:#1f77b4;stroke:#1f77b4;" x="2570.245614" xlink:href="#mcc82b219a3" y="1513.776349"/>
     <use style="fill:#1f77b4;stroke:#1f77b4;" x="2592" xlink:href="#mcc82b219a3" y="1890"/>
    </g>
   </g>
   <g id="patch_43">
    <path d="M 2004.631579 1890 
L 2004.631579 1460.842105 
" style="fill:none;stroke:#000000;stroke-linecap:square;stroke-linejoin:miter;stroke-width:0.8;"/>
   </g>
   <g id="patch_44">
    <path d="M 2592 1890 
L 2592 1460.842105 
" style="fill:none;stroke:#000000;stroke-linecap:square;stroke-linejoin:miter;stroke-width:0.8;"/>
   </g>
   <g id="patch_45">
    <path d="M 2004.631579 1890 
L 2592 1890 
" style="fill:none;stroke:#000000;stroke-linecap:square;stroke-linejoin:miter;stroke-width:0.8;"/>
   </g>
   <g id="patch_46">
    <path d="M 2004.631579 1460.842105 
L 2592 1460.842105 
" style="fill:none;stroke:#000000;stroke-linecap:square;stroke-linejoin:miter;stroke-width:0.8;"/>
   </g>
   <g id="text_37">
    <!-- q-fin.EC -->
    <defs>
     <path d="M 9.8125 72.90625 
L 55.90625 72.90625 
L 55.90625 64.59375 
L 19.671875 64.59375 
L 19.671875 43.015625 
L 54.390625 43.015625 
L 54.390625 34.71875 
L 19.671875 34.71875 
L 19.671875 8.296875 
L 56.78125 8.296875 
L 56.78125 0 
L 9.8125 0 
z
" id="DejaVuSans-69"/>
    </defs>
    <g transform="translate(2274.872664 1454.842105)scale(0.12 -0.12)">
     <use xlink:href="#DejaVuSans-113"/>
     <use x="63.476562" xlink:href="#DejaVuSans-45"/>
     <use x="99.560547" xlink:href="#DejaVuSans-102"/>
     <use x="134.765625" xlink:href="#DejaVuSans-105"/>
     <use x="162.548828" xlink:href="#DejaVuSans-110"/>
     <use x="225.927734" xlink:href="#DejaVuSans-46"/>
     <use x="257.714844" xlink:href="#DejaVuSans-69"/>
     <use x="320.898438" xlink:href="#DejaVuSans-67"/>
    </g>
   </g>
  </g>
  <g id="text_38">
   <!-- arXiv q-fin articles per year between 1991 and 2018 -->
   <defs>
    <path d="M 34.28125 27.484375 
Q 23.390625 27.484375 19.1875 25 
Q 14.984375 22.515625 14.984375 16.5 
Q 14.984375 11.71875 18.140625 8.90625 
Q 21.296875 6.109375 26.703125 6.109375 
Q 34.1875 6.109375 38.703125 11.40625 
Q 43.21875 16.703125 43.21875 25.484375 
L 43.21875 27.484375 
z
M 52.203125 31.203125 
L 52.203125 0 
L 43.21875 0 
L 43.21875 8.296875 
Q 40.140625 3.328125 35.546875 0.953125 
Q 30.953125 -1.421875 24.3125 -1.421875 
Q 15.921875 -1.421875 10.953125 3.296875 
Q 6 8.015625 6 15.921875 
Q 6 25.140625 12.171875 29.828125 
Q 18.359375 34.515625 30.609375 34.515625 
L 43.21875 34.515625 
L 43.21875 35.40625 
Q 43.21875 41.609375 39.140625 45 
Q 35.0625 48.390625 27.6875 48.390625 
Q 23 48.390625 18.546875 47.265625 
Q 14.109375 46.140625 10.015625 43.890625 
L 10.015625 52.203125 
Q 14.9375 54.109375 19.578125 55.046875 
Q 24.21875 56 28.609375 56 
Q 40.484375 56 46.34375 49.84375 
Q 52.203125 43.703125 52.203125 31.203125 
z
" id="DejaVuSans-97"/>
    <path d="M 41.109375 46.296875 
Q 39.59375 47.171875 37.8125 47.578125 
Q 36.03125 48 33.890625 48 
Q 26.265625 48 22.1875 43.046875 
Q 18.109375 38.09375 18.109375 28.8125 
L 18.109375 0 
L 9.078125 0 
L 9.078125 54.6875 
L 18.109375 54.6875 
L 18.109375 46.1875 
Q 20.953125 51.171875 25.484375 53.578125 
Q 30.03125 56 36.53125 56 
Q 37.453125 56 38.578125 55.875 
Q 39.703125 55.765625 41.0625 55.515625 
z
" id="DejaVuSans-114"/>
    <path d="M 6.296875 72.90625 
L 16.890625 72.90625 
L 35.015625 45.796875 
L 53.21875 72.90625 
L 63.8125 72.90625 
L 40.375 37.890625 
L 65.375 0 
L 54.78125 0 
L 34.28125 31 
L 13.625 0 
L 2.984375 0 
L 29 38.921875 
z
" id="DejaVuSans-88"/>
    <path d="M 2.984375 54.6875 
L 12.5 54.6875 
L 29.59375 8.796875 
L 46.6875 54.6875 
L 56.203125 54.6875 
L 35.6875 0 
L 23.484375 0 
z
" id="DejaVuSans-118"/>
    <path id="DejaVuSans-32"/>
    <path d="M 18.3125 70.21875 
L 18.3125 54.6875 
L 36.8125 54.6875 
L 36.8125 47.703125 
L 18.3125 47.703125 
L 18.3125 18.015625 
Q 18.3125 11.328125 20.140625 9.421875 
Q 21.96875 7.515625 27.59375 7.515625 
L 36.8125 7.515625 
L 36.8125 0 
L 27.59375 0 
Q 17.1875 0 13.234375 3.875 
Q 9.28125 7.765625 9.28125 18.015625 
L 9.28125 47.703125 
L 2.6875 47.703125 
L 2.6875 54.6875 
L 9.28125 54.6875 
L 9.28125 70.21875 
z
" id="DejaVuSans-116"/>
    <path d="M 48.78125 52.59375 
L 48.78125 44.1875 
Q 44.96875 46.296875 41.140625 47.34375 
Q 37.3125 48.390625 33.40625 48.390625 
Q 24.65625 48.390625 19.8125 42.84375 
Q 14.984375 37.3125 14.984375 27.296875 
Q 14.984375 17.28125 19.8125 11.734375 
Q 24.65625 6.203125 33.40625 6.203125 
Q 37.3125 6.203125 41.140625 7.25 
Q 44.96875 8.296875 48.78125 10.40625 
L 48.78125 2.09375 
Q 45.015625 0.34375 40.984375 -0.53125 
Q 36.96875 -1.421875 32.421875 -1.421875 
Q 20.0625 -1.421875 12.78125 6.34375 
Q 5.515625 14.109375 5.515625 27.296875 
Q 5.515625 40.671875 12.859375 48.328125 
Q 20.21875 56 33.015625 56 
Q 37.15625 56 41.109375 55.140625 
Q 45.0625 54.296875 48.78125 52.59375 
z
" id="DejaVuSans-99"/>
    <path d="M 9.421875 75.984375 
L 18.40625 75.984375 
L 18.40625 0 
L 9.421875 0 
z
" id="DejaVuSans-108"/>
    <path d="M 56.203125 29.59375 
L 56.203125 25.203125 
L 14.890625 25.203125 
Q 15.484375 15.921875 20.484375 11.0625 
Q 25.484375 6.203125 34.421875 6.203125 
Q 39.59375 6.203125 44.453125 7.46875 
Q 49.3125 8.734375 54.109375 11.28125 
L 54.109375 2.78125 
Q 49.265625 0.734375 44.1875 -0.34375 
Q 39.109375 -1.421875 33.890625 -1.421875 
Q 20.796875 -1.421875 13.15625 6.1875 
Q 5.515625 13.8125 5.515625 26.8125 
Q 5.515625 40.234375 12.765625 48.109375 
Q 20.015625 56 32.328125 56 
Q 43.359375 56 49.78125 48.890625 
Q 56.203125 41.796875 56.203125 29.59375 
z
M 47.21875 32.234375 
Q 47.125 39.59375 43.09375 43.984375 
Q 39.0625 48.390625 32.421875 48.390625 
Q 24.90625 48.390625 20.390625 44.140625 
Q 15.875 39.890625 15.1875 32.171875 
z
" id="DejaVuSans-101"/>
    <path d="M 44.28125 53.078125 
L 44.28125 44.578125 
Q 40.484375 46.53125 36.375 47.5 
Q 32.28125 48.484375 27.875 48.484375 
Q 21.1875 48.484375 17.84375 46.4375 
Q 14.5 44.390625 14.5 40.28125 
Q 14.5 37.15625 16.890625 35.375 
Q 19.28125 33.59375 26.515625 31.984375 
L 29.59375 31.296875 
Q 39.15625 29.25 43.1875 25.515625 
Q 47.21875 21.78125 47.21875 15.09375 
Q 47.21875 7.46875 41.1875 3.015625 
Q 35.15625 -1.421875 24.609375 -1.421875 
Q 20.21875 -1.421875 15.453125 -0.5625 
Q 10.6875 0.296875 5.421875 2 
L 5.421875 11.28125 
Q 10.40625 8.6875 15.234375 7.390625 
Q 20.0625 6.109375 24.8125 6.109375 
Q 31.15625 6.109375 34.5625 8.28125 
Q 37.984375 10.453125 37.984375 14.40625 
Q 37.984375 18.0625 35.515625 20.015625 
Q 33.0625 21.96875 24.703125 23.78125 
L 21.578125 24.515625 
Q 13.234375 26.265625 9.515625 29.90625 
Q 5.8125 33.546875 5.8125 39.890625 
Q 5.8125 47.609375 11.28125 51.796875 
Q 16.75 56 26.8125 56 
Q 31.78125 56 36.171875 55.265625 
Q 40.578125 54.546875 44.28125 53.078125 
z
" id="DejaVuSans-115"/>
    <path d="M 18.109375 8.203125 
L 18.109375 -20.796875 
L 9.078125 -20.796875 
L 9.078125 54.6875 
L 18.109375 54.6875 
L 18.109375 46.390625 
Q 20.953125 51.265625 25.265625 53.625 
Q 29.59375 56 35.59375 56 
Q 45.5625 56 51.78125 48.09375 
Q 58.015625 40.1875 58.015625 27.296875 
Q 58.015625 14.40625 51.78125 6.484375 
Q 45.5625 -1.421875 35.59375 -1.421875 
Q 29.59375 -1.421875 25.265625 0.953125 
Q 20.953125 3.328125 18.109375 8.203125 
z
M 48.6875 27.296875 
Q 48.6875 37.203125 44.609375 42.84375 
Q 40.53125 48.484375 33.40625 48.484375 
Q 26.265625 48.484375 22.1875 42.84375 
Q 18.109375 37.203125 18.109375 27.296875 
Q 18.109375 17.390625 22.1875 11.75 
Q 26.265625 6.109375 33.40625 6.109375 
Q 40.53125 6.109375 44.609375 11.75 
Q 48.6875 17.390625 48.6875 27.296875 
z
" id="DejaVuSans-112"/>
    <path d="M 32.171875 -5.078125 
Q 28.375 -14.84375 24.75 -17.8125 
Q 21.140625 -20.796875 15.09375 -20.796875 
L 7.90625 -20.796875 
L 7.90625 -13.28125 
L 13.1875 -13.28125 
Q 16.890625 -13.28125 18.9375 -11.515625 
Q 21 -9.765625 23.484375 -3.21875 
L 25.09375 0.875 
L 2.984375 54.6875 
L 12.5 54.6875 
L 29.59375 11.921875 
L 46.6875 54.6875 
L 56.203125 54.6875 
z
" id="DejaVuSans-121"/>
    <path d="M 48.6875 27.296875 
Q 48.6875 37.203125 44.609375 42.84375 
Q 40.53125 48.484375 33.40625 48.484375 
Q 26.265625 48.484375 22.1875 42.84375 
Q 18.109375 37.203125 18.109375 27.296875 
Q 18.109375 17.390625 22.1875 11.75 
Q 26.265625 6.109375 33.40625 6.109375 
Q 40.53125 6.109375 44.609375 11.75 
Q 48.6875 17.390625 48.6875 27.296875 
z
M 18.109375 46.390625 
Q 20.953125 51.265625 25.265625 53.625 
Q 29.59375 56 35.59375 56 
Q 45.5625 56 51.78125 48.09375 
Q 58.015625 40.1875 58.015625 27.296875 
Q 58.015625 14.40625 51.78125 6.484375 
Q 45.5625 -1.421875 35.59375 -1.421875 
Q 29.59375 -1.421875 25.265625 0.953125 
Q 20.953125 3.328125 18.109375 8.203125 
L 18.109375 0 
L 9.078125 0 
L 9.078125 75.984375 
L 18.109375 75.984375 
z
" id="DejaVuSans-98"/>
    <path d="M 4.203125 54.6875 
L 13.1875 54.6875 
L 24.421875 12.015625 
L 35.59375 54.6875 
L 46.1875 54.6875 
L 57.421875 12.015625 
L 68.609375 54.6875 
L 77.59375 54.6875 
L 63.28125 0 
L 52.6875 0 
L 40.921875 44.828125 
L 29.109375 0 
L 18.5 0 
z
" id="DejaVuSans-119"/>
    <path d="M 45.40625 46.390625 
L 45.40625 75.984375 
L 54.390625 75.984375 
L 54.390625 0 
L 45.40625 0 
L 45.40625 8.203125 
Q 42.578125 3.328125 38.25 0.953125 
Q 33.9375 -1.421875 27.875 -1.421875 
Q 17.96875 -1.421875 11.734375 6.484375 
Q 5.515625 14.40625 5.515625 27.296875 
Q 5.515625 40.1875 11.734375 48.09375 
Q 17.96875 56 27.875 56 
Q 33.9375 56 38.25 53.625 
Q 42.578125 51.265625 45.40625 46.390625 
z
M 14.796875 27.296875 
Q 14.796875 17.390625 18.875 11.75 
Q 22.953125 6.109375 30.078125 6.109375 
Q 37.203125 6.109375 41.296875 11.75 
Q 45.40625 17.390625 45.40625 27.296875 
Q 45.40625 37.203125 41.296875 42.84375 
Q 37.203125 48.484375 30.078125 48.484375 
Q 22.953125 48.484375 18.875 42.84375 
Q 14.796875 37.203125 14.796875 27.296875 
z
" id="DejaVuSans-100"/>
    <path d="M 31.78125 34.625 
Q 24.75 34.625 20.71875 30.859375 
Q 16.703125 27.09375 16.703125 20.515625 
Q 16.703125 13.921875 20.71875 10.15625 
Q 24.75 6.390625 31.78125 6.390625 
Q 38.8125 6.390625 42.859375 10.171875 
Q 46.921875 13.96875 46.921875 20.515625 
Q 46.921875 27.09375 42.890625 30.859375 
Q 38.875 34.625 31.78125 34.625 
z
M 21.921875 38.8125 
Q 15.578125 40.375 12.03125 44.71875 
Q 8.5 49.078125 8.5 55.328125 
Q 8.5 64.0625 14.71875 69.140625 
Q 20.953125 74.21875 31.78125 74.21875 
Q 42.671875 74.21875 48.875 69.140625 
Q 55.078125 64.0625 55.078125 55.328125 
Q 55.078125 49.078125 51.53125 44.71875 
Q 48 40.375 41.703125 38.8125 
Q 48.828125 37.15625 52.796875 32.3125 
Q 56.78125 27.484375 56.78125 20.515625 
Q 56.78125 9.90625 50.3125 4.234375 
Q 43.84375 -1.421875 31.78125 -1.421875 
Q 19.734375 -1.421875 13.25 4.234375 
Q 6.78125 9.90625 6.78125 20.515625 
Q 6.78125 27.484375 10.78125 32.3125 
Q 14.796875 37.15625 21.921875 38.8125 
z
M 18.3125 54.390625 
Q 18.3125 48.734375 21.84375 45.5625 
Q 25.390625 42.390625 31.78125 42.390625 
Q 38.140625 42.390625 41.71875 45.5625 
Q 45.3125 48.734375 45.3125 54.390625 
Q 45.3125 60.0625 41.71875 63.234375 
Q 38.140625 66.40625 31.78125 66.40625 
Q 25.390625 66.40625 21.84375 63.234375 
Q 18.3125 60.0625 18.3125 54.390625 
z
" id="DejaVuSans-56"/>
   </defs>
   <g transform="translate(1072.834687 194.075625)scale(0.28 -0.28)">
    <use xlink:href="#DejaVuSans-97"/>
    <use x="61.279297" xlink:href="#DejaVuSans-114"/>
    <use x="102.392578" xlink:href="#DejaVuSans-88"/>
    <use x="170.898438" xlink:href="#DejaVuSans-105"/>
    <use x="198.681641" xlink:href="#DejaVuSans-118"/>
    <use x="257.861328" xlink:href="#DejaVuSans-32"/>
    <use x="289.648438" xlink:href="#DejaVuSans-113"/>
    <use x="353.125" xlink:href="#DejaVuSans-45"/>
    <use x="389.208984" xlink:href="#DejaVuSans-102"/>
    <use x="424.414062" xlink:href="#DejaVuSans-105"/>
    <use x="452.197266" xlink:href="#DejaVuSans-110"/>
    <use x="515.576172" xlink:href="#DejaVuSans-32"/>
    <use x="547.363281" xlink:href="#DejaVuSans-97"/>
    <use x="608.642578" xlink:href="#DejaVuSans-114"/>
    <use x="649.755859" xlink:href="#DejaVuSans-116"/>
    <use x="688.964844" xlink:href="#DejaVuSans-105"/>
    <use x="716.748047" xlink:href="#DejaVuSans-99"/>
    <use x="771.728516" xlink:href="#DejaVuSans-108"/>
    <use x="799.511719" xlink:href="#DejaVuSans-101"/>
    <use x="861.035156" xlink:href="#DejaVuSans-115"/>
    <use x="913.134766" xlink:href="#DejaVuSans-32"/>
    <use x="944.921875" xlink:href="#DejaVuSans-112"/>
    <use x="1008.398438" xlink:href="#DejaVuSans-101"/>
    <use x="1069.921875" xlink:href="#DejaVuSans-114"/>
    <use x="1111.035156" xlink:href="#DejaVuSans-32"/>
    <use x="1142.822266" xlink:href="#DejaVuSans-121"/>
    <use x="1202.001953" xlink:href="#DejaVuSans-101"/>
    <use x="1263.525391" xlink:href="#DejaVuSans-97"/>
    <use x="1324.804688" xlink:href="#DejaVuSans-114"/>
    <use x="1365.917969" xlink:href="#DejaVuSans-32"/>
    <use x="1397.705078" xlink:href="#DejaVuSans-98"/>
    <use x="1461.181641" xlink:href="#DejaVuSans-101"/>
    <use x="1522.705078" xlink:href="#DejaVuSans-116"/>
    <use x="1561.914062" xlink:href="#DejaVuSans-119"/>
    <use x="1643.701172" xlink:href="#DejaVuSans-101"/>
    <use x="1705.224609" xlink:href="#DejaVuSans-101"/>
    <use x="1766.748047" xlink:href="#DejaVuSans-110"/>
    <use x="1830.126953" xlink:href="#DejaVuSans-32"/>
    <use x="1861.914062" xlink:href="#DejaVuSans-49"/>
    <use x="1925.537109" xlink:href="#DejaVuSans-57"/>
    <use x="1989.160156" xlink:href="#DejaVuSans-57"/>
    <use x="2052.783203" xlink:href="#DejaVuSans-49"/>
    <use x="2116.40625" xlink:href="#DejaVuSans-32"/>
    <use x="2148.193359" xlink:href="#DejaVuSans-97"/>
    <use x="2209.472656" xlink:href="#DejaVuSans-110"/>
    <use x="2272.851562" xlink:href="#DejaVuSans-100"/>
    <use x="2336.328125" xlink:href="#DejaVuSans-32"/>
    <use x="2368.115234" xlink:href="#DejaVuSans-50"/>
    <use x="2431.738281" xlink:href="#DejaVuSans-48"/>
    <use x="2495.361328" xlink:href="#DejaVuSans-49"/>
    <use x="2558.984375" xlink:href="#DejaVuSans-56"/>
   </g>
  </g>
 </g>
 <defs>
  <clipPath id="pb0b4f326ac">
   <rect height="429.157895" width="587.368421" x="360" y="259.2"/>
  </clipPath>
  <clipPath id="pa69fa81076">
   <rect height="429.157895" width="587.368421" x="1182.315789" y="259.2"/>
  </clipPath>
  <clipPath id="p48d9e81005">
   <rect height="429.157895" width="587.368421" x="2004.631579" y="259.2"/>
  </clipPath>
  <clipPath id="p19e7826470">
   <rect height="429.157895" width="587.368421" x="360" y="860.021053"/>
  </clipPath>
  <clipPath id="pad8cdd40ab">
   <rect height="429.157895" width="587.368421" x="1182.315789" y="860.021053"/>
  </clipPath>
  <clipPath id="p1394a8aa85">
   <rect height="429.157895" width="587.368421" x="2004.631579" y="860.021053"/>
  </clipPath>
  <clipPath id="p7337ee8572">
   <rect height="429.157895" width="587.368421" x="360" y="1460.842105"/>
  </clipPath>
  <clipPath id="p6f5fe0fed6">
   <rect height="429.157895" width="587.368421" x="1182.315789" y="1460.842105"/>
  </clipPath>
  <clipPath id="p9e7daa8d1b">
   <rect height="429.157895" width="587.368421" x="2004.631579" y="1460.842105"/>
  </clipPath>
 </defs>
</svg>
