<?xml version="1.0" encoding="utf-8" standalone="no"?>
<!DOCTYPE svg PUBLIC "-//W3C//DTD SVG 1.1//EN"
  "http://www.w3.org/Graphics/SVG/1.1/DTD/svg11.dtd">
<!-- Created with matplotlib (https://matplotlib.org/) -->
<svg height="2160pt" version="1.1" viewBox="0 0 2880 2160" width="2880pt" xmlns="http://www.w3.org/2000/svg" xmlns:xlink="http://www.w3.org/1999/xlink">
 <defs>
  <style type="text/css">
*{stroke-linecap:butt;stroke-linejoin:round;}
  </style>
 </defs>
 <g id="figure_1">
  <g id="patch_1">
   <path d="M 0 2160 
L 2880 2160 
L 2880 0 
L 0 0 
z
" style="fill:#ffffff;"/>
  </g>
  <g id="axes_1">
   <g id="patch_2">
    <path d="M 360 688.357895 
L 947.368421 688.357895 
L 947.368421 259.2 
L 360 259.2 
z
" style="fill:#ffffff;"/>
   </g>
   <g id="matplotlib.axis_1">
    <g id="xtick_1">
     <g id="line2d_1">
      <defs>
       <path d="M 0 0 
L 0 3.5 
" id="ma734751b41" style="stroke:#000000;stroke-width:0.8;"/>
      </defs>
      <g>
       <use style="stroke:#000000;stroke-width:0.8;" x="447.017544" xlink:href="#ma734751b41" y="688.357895"/>
      </g>
     </g>
    </g>
    <g id="xtick_2">
     <g id="line2d_2">
      <g>
       <use style="stroke:#000000;stroke-width:0.8;" x="555.789474" xlink:href="#ma734751b41" y="688.357895"/>
      </g>
     </g>
    </g>
    <g id="xtick_3">
     <g id="line2d_3">
      <g>
       <use style="stroke:#000000;stroke-width:0.8;" x="664.561404" xlink:href="#ma734751b41" y="688.357895"/>
      </g>
     </g>
    </g>
    <g id="xtick_4">
     <g id="line2d_4">
      <g>
       <use style="stroke:#000000;stroke-width:0.8;" x="773.333333" xlink:href="#ma734751b41" y="688.357895"/>
      </g>
     </g>
    </g>
    <g id="xtick_5">
     <g id="line2d_5">
      <g>
       <use style="stroke:#000000;stroke-width:0.8;" x="882.105263" xlink:href="#ma734751b41" y="688.357895"/>
      </g>
     </g>
    </g>
   </g>
   <g id="matplotlib.axis_2">
    <g id="ytick_1">
     <g id="line2d_6">
      <defs>
       <path d="M 0 0 
L -3.5 0 
" id="md2b71d999f" style="stroke:#000000;stroke-width:0.8;"/>
      </defs>
      <g>
       <use style="stroke:#000000;stroke-width:0.8;" x="360" xlink:href="#md2b71d999f" y="688.357895"/>
      </g>
     </g>
     <g id="text_1">
      <!-- 0 -->
      <defs>
       <path d="M 31.78125 66.40625 
Q 24.171875 66.40625 20.328125 58.90625 
Q 16.5 51.421875 16.5 36.375 
Q 16.5 21.390625 20.328125 13.890625 
Q 24.171875 6.390625 31.78125 6.390625 
Q 39.453125 6.390625 43.28125 13.890625 
Q 47.125 21.390625 47.125 36.375 
Q 47.125 51.421875 43.28125 58.90625 
Q 39.453125 66.40625 31.78125 66.40625 
z
M 31.78125 74.21875 
Q 44.046875 74.21875 50.515625 64.515625 
Q 56.984375 54.828125 56.984375 36.375 
Q 56.984375 17.96875 50.515625 8.265625 
Q 44.046875 -1.421875 31.78125 -1.421875 
Q 19.53125 -1.421875 13.0625 8.265625 
Q 6.59375 17.96875 6.59375 36.375 
Q 6.59375 54.828125 13.0625 64.515625 
Q 19.53125 74.21875 31.78125 74.21875 
z
" id="DejaVuSans-48"/>
      </defs>
      <g transform="translate(346.6375 692.157113)scale(0.1 -0.1)">
       <use xlink:href="#DejaVuSans-48"/>
      </g>
     </g>
    </g>
    <g id="ytick_2">
     <g id="line2d_7">
      <g>
       <use style="stroke:#000000;stroke-width:0.8;" x="360" xlink:href="#md2b71d999f" y="598.763345"/>
      </g>
     </g>
     <g id="text_2">
      <!-- 100 -->
      <defs>
       <path d="M 12.40625 8.296875 
L 28.515625 8.296875 
L 28.515625 63.921875 
L 10.984375 60.40625 
L 10.984375 69.390625 
L 28.421875 72.90625 
L 38.28125 72.90625 
L 38.28125 8.296875 
L 54.390625 8.296875 
L 54.390625 0 
L 12.40625 0 
z
" id="DejaVuSans-49"/>
      </defs>
      <g transform="translate(333.9125 602.562563)scale(0.1 -0.1)">
       <use xlink:href="#DejaVuSans-49"/>
       <use x="63.623047" xlink:href="#DejaVuSans-48"/>
       <use x="127.246094" xlink:href="#DejaVuSans-48"/>
      </g>
     </g>
    </g>
    <g id="ytick_3">
     <g id="line2d_8">
      <g>
       <use style="stroke:#000000;stroke-width:0.8;" x="360" xlink:href="#md2b71d999f" y="509.168795"/>
      </g>
     </g>
     <g id="text_3">
      <!-- 200 -->
      <defs>
       <path d="M 19.1875 8.296875 
L 53.609375 8.296875 
L 53.609375 0 
L 7.328125 0 
L 7.328125 8.296875 
Q 12.9375 14.109375 22.625 23.890625 
Q 32.328125 33.6875 34.8125 36.53125 
Q 39.546875 41.84375 41.421875 45.53125 
Q 43.3125 49.21875 43.3125 52.78125 
Q 43.3125 58.59375 39.234375 62.25 
Q 35.15625 65.921875 28.609375 65.921875 
Q 23.96875 65.921875 18.8125 64.3125 
Q 13.671875 62.703125 7.8125 59.421875 
L 7.8125 69.390625 
Q 13.765625 71.78125 18.9375 73 
Q 24.125 74.21875 28.421875 74.21875 
Q 39.75 74.21875 46.484375 68.546875 
Q 53.21875 62.890625 53.21875 53.421875 
Q 53.21875 48.921875 51.53125 44.890625 
Q 49.859375 40.875 45.40625 35.40625 
Q 44.1875 33.984375 37.640625 27.21875 
Q 31.109375 20.453125 19.1875 8.296875 
z
" id="DejaVuSans-50"/>
      </defs>
      <g transform="translate(333.9125 512.968013)scale(0.1 -0.1)">
       <use xlink:href="#DejaVuSans-50"/>
       <use x="63.623047" xlink:href="#DejaVuSans-48"/>
       <use x="127.246094" xlink:href="#DejaVuSans-48"/>
      </g>
     </g>
    </g>
    <g id="ytick_4">
     <g id="line2d_9">
      <g>
       <use style="stroke:#000000;stroke-width:0.8;" x="360" xlink:href="#md2b71d999f" y="419.574245"/>
      </g>
     </g>
     <g id="text_4">
      <!-- 300 -->
      <defs>
       <path d="M 40.578125 39.3125 
Q 47.65625 37.796875 51.625 33 
Q 55.609375 28.21875 55.609375 21.1875 
Q 55.609375 10.40625 48.1875 4.484375 
Q 40.765625 -1.421875 27.09375 -1.421875 
Q 22.515625 -1.421875 17.65625 -0.515625 
Q 12.796875 0.390625 7.625 2.203125 
L 7.625 11.71875 
Q 11.71875 9.328125 16.59375 8.109375 
Q 21.484375 6.890625 26.8125 6.890625 
Q 36.078125 6.890625 40.9375 10.546875 
Q 45.796875 14.203125 45.796875 21.1875 
Q 45.796875 27.640625 41.28125 31.265625 
Q 36.765625 34.90625 28.71875 34.90625 
L 20.21875 34.90625 
L 20.21875 43.015625 
L 29.109375 43.015625 
Q 36.375 43.015625 40.234375 45.921875 
Q 44.09375 48.828125 44.09375 54.296875 
Q 44.09375 59.90625 40.109375 62.90625 
Q 36.140625 65.921875 28.71875 65.921875 
Q 24.65625 65.921875 20.015625 65.03125 
Q 15.375 64.15625 9.8125 62.3125 
L 9.8125 71.09375 
Q 15.4375 72.65625 20.34375 73.4375 
Q 25.25 74.21875 29.59375 74.21875 
Q 40.828125 74.21875 47.359375 69.109375 
Q 53.90625 64.015625 53.90625 55.328125 
Q 53.90625 49.265625 50.4375 45.09375 
Q 46.96875 40.921875 40.578125 39.3125 
z
" id="DejaVuSans-51"/>
      </defs>
      <g transform="translate(333.9125 423.373463)scale(0.1 -0.1)">
       <use xlink:href="#DejaVuSans-51"/>
       <use x="63.623047" xlink:href="#DejaVuSans-48"/>
       <use x="127.246094" xlink:href="#DejaVuSans-48"/>
      </g>
     </g>
    </g>
    <g id="ytick_5">
     <g id="line2d_10">
      <g>
       <use style="stroke:#000000;stroke-width:0.8;" x="360" xlink:href="#md2b71d999f" y="329.979695"/>
      </g>
     </g>
     <g id="text_5">
      <!-- 400 -->
      <defs>
       <path d="M 37.796875 64.3125 
L 12.890625 25.390625 
L 37.796875 25.390625 
z
M 35.203125 72.90625 
L 47.609375 72.90625 
L 47.609375 25.390625 
L 58.015625 25.390625 
L 58.015625 17.1875 
L 47.609375 17.1875 
L 47.609375 0 
L 37.796875 0 
L 37.796875 17.1875 
L 4.890625 17.1875 
L 4.890625 26.703125 
z
" id="DejaVuSans-52"/>
      </defs>
      <g transform="translate(333.9125 333.778913)scale(0.1 -0.1)">
       <use xlink:href="#DejaVuSans-52"/>
       <use x="63.623047" xlink:href="#DejaVuSans-48"/>
       <use x="127.246094" xlink:href="#DejaVuSans-48"/>
      </g>
     </g>
    </g>
   </g>
   <g id="line2d_11">
    <path clip-path="url(#p91e0a1fa90)" d="M 621.052632 669.543039 
L 642.807018 582.636326 
L 664.561404 562.029579 
L 686.315789 567.405252 
L 708.070175 528.879596 
L 729.824561 513.648522 
L 751.578947 545.006615 
L 773.333333 493.937721 
L 795.087719 492.14583 
L 816.842105 406.135062 
L 838.596491 262.783782 
L 860.350877 328.187804 
L 882.105263 339.835095 
L 903.859649 351.482387 
L 925.614035 342.522932 
L 947.368421 342.522932 
" style="fill:none;stroke:#1f77b4;stroke-dasharray:5.55,2.4;stroke-dashoffset:0;stroke-width:1.5;"/>
    <defs>
     <path d="M 0 1.5 
C 0.397805 1.5 0.77937 1.341951 1.06066 1.06066 
C 1.341951 0.77937 1.5 0.397805 1.5 0 
C 1.5 -0.397805 1.341951 -0.77937 1.06066 -1.06066 
C 0.77937 -1.341951 0.397805 -1.5 0 -1.5 
C -0.397805 -1.5 -0.77937 -1.341951 -1.06066 -1.06066 
C -1.341951 -0.77937 -1.5 -0.397805 -1.5 0 
C -1.5 0.397805 -1.341951 0.77937 -1.06066 1.06066 
C -0.77937 1.341951 -0.397805 1.5 0 1.5 
z
" id="mbd0766de8d" style="stroke:#1f77b4;"/>
    </defs>
    <g clip-path="url(#p91e0a1fa90)">
     <use style="fill:#1f77b4;stroke:#1f77b4;" x="621.052632" xlink:href="#mbd0766de8d" y="669.543039"/>
     <use style="fill:#1f77b4;stroke:#1f77b4;" x="642.807018" xlink:href="#mbd0766de8d" y="582.636326"/>
     <use style="fill:#1f77b4;stroke:#1f77b4;" x="664.561404" xlink:href="#mbd0766de8d" y="562.029579"/>
     <use style="fill:#1f77b4;stroke:#1f77b4;" x="686.315789" xlink:href="#mbd0766de8d" y="567.405252"/>
     <use style="fill:#1f77b4;stroke:#1f77b4;" x="708.070175" xlink:href="#mbd0766de8d" y="528.879596"/>
     <use style="fill:#1f77b4;stroke:#1f77b4;" x="729.824561" xlink:href="#mbd0766de8d" y="513.648522"/>
     <use style="fill:#1f77b4;stroke:#1f77b4;" x="751.578947" xlink:href="#mbd0766de8d" y="545.006615"/>
     <use style="fill:#1f77b4;stroke:#1f77b4;" x="773.333333" xlink:href="#mbd0766de8d" y="493.937721"/>
     <use style="fill:#1f77b4;stroke:#1f77b4;" x="795.087719" xlink:href="#mbd0766de8d" y="492.14583"/>
     <use style="fill:#1f77b4;stroke:#1f77b4;" x="816.842105" xlink:href="#mbd0766de8d" y="406.135062"/>
     <use style="fill:#1f77b4;stroke:#1f77b4;" x="838.596491" xlink:href="#mbd0766de8d" y="262.783782"/>
     <use style="fill:#1f77b4;stroke:#1f77b4;" x="860.350877" xlink:href="#mbd0766de8d" y="328.187804"/>
     <use style="fill:#1f77b4;stroke:#1f77b4;" x="882.105263" xlink:href="#mbd0766de8d" y="339.835095"/>
     <use style="fill:#1f77b4;stroke:#1f77b4;" x="903.859649" xlink:href="#mbd0766de8d" y="351.482387"/>
     <use style="fill:#1f77b4;stroke:#1f77b4;" x="925.614035" xlink:href="#mbd0766de8d" y="342.522932"/>
     <use style="fill:#1f77b4;stroke:#1f77b4;" x="947.368421" xlink:href="#mbd0766de8d" y="342.522932"/>
    </g>
   </g>
   <g id="patch_3">
    <path d="M 360 688.357895 
L 360 259.2 
" style="fill:none;stroke:#000000;stroke-linecap:square;stroke-linejoin:miter;stroke-width:0.8;"/>
   </g>
   <g id="patch_4">
    <path d="M 947.368421 688.357895 
L 947.368421 259.2 
" style="fill:none;stroke:#000000;stroke-linecap:square;stroke-linejoin:miter;stroke-width:0.8;"/>
   </g>
   <g id="patch_5">
    <path d="M 360 688.357895 
L 947.368421 688.357895 
" style="fill:none;stroke:#000000;stroke-linecap:square;stroke-linejoin:miter;stroke-width:0.8;"/>
   </g>
   <g id="patch_6">
    <path d="M 360 259.2 
L 947.368421 259.2 
" style="fill:none;stroke:#000000;stroke-linecap:square;stroke-linejoin:miter;stroke-width:0.8;"/>
   </g>
   <g id="text_6">
    <!-- q-bio.PE -->
    <defs>
     <path d="M 14.796875 27.296875 
Q 14.796875 17.390625 18.875 11.75 
Q 22.953125 6.109375 30.078125 6.109375 
Q 37.203125 6.109375 41.296875 11.75 
Q 45.40625 17.390625 45.40625 27.296875 
Q 45.40625 37.203125 41.296875 42.84375 
Q 37.203125 48.484375 30.078125 48.484375 
Q 22.953125 48.484375 18.875 42.84375 
Q 14.796875 37.203125 14.796875 27.296875 
z
M 45.40625 8.203125 
Q 42.578125 3.328125 38.25 0.953125 
Q 33.9375 -1.421875 27.875 -1.421875 
Q 17.96875 -1.421875 11.734375 6.484375 
Q 5.515625 14.40625 5.515625 27.296875 
Q 5.515625 40.1875 11.734375 48.09375 
Q 17.96875 56 27.875 56 
Q 33.9375 56 38.25 53.625 
Q 42.578125 51.265625 45.40625 46.390625 
L 45.40625 54.6875 
L 54.390625 54.6875 
L 54.390625 -20.796875 
L 45.40625 -20.796875 
z
" id="DejaVuSans-113"/>
     <path d="M 4.890625 31.390625 
L 31.203125 31.390625 
L 31.203125 23.390625 
L 4.890625 23.390625 
z
" id="DejaVuSans-45"/>
     <path d="M 48.6875 27.296875 
Q 48.6875 37.203125 44.609375 42.84375 
Q 40.53125 48.484375 33.40625 48.484375 
Q 26.265625 48.484375 22.1875 42.84375 
Q 18.109375 37.203125 18.109375 27.296875 
Q 18.109375 17.390625 22.1875 11.75 
Q 26.265625 6.109375 33.40625 6.109375 
Q 40.53125 6.109375 44.609375 11.75 
Q 48.6875 17.390625 48.6875 27.296875 
z
M 18.109375 46.390625 
Q 20.953125 51.265625 25.265625 53.625 
Q 29.59375 56 35.59375 56 
Q 45.5625 56 51.78125 48.09375 
Q 58.015625 40.1875 58.015625 27.296875 
Q 58.015625 14.40625 51.78125 6.484375 
Q 45.5625 -1.421875 35.59375 -1.421875 
Q 29.59375 -1.421875 25.265625 0.953125 
Q 20.953125 3.328125 18.109375 8.203125 
L 18.109375 0 
L 9.078125 0 
L 9.078125 75.984375 
L 18.109375 75.984375 
z
" id="DejaVuSans-98"/>
     <path d="M 9.421875 54.6875 
L 18.40625 54.6875 
L 18.40625 0 
L 9.421875 0 
z
M 9.421875 75.984375 
L 18.40625 75.984375 
L 18.40625 64.59375 
L 9.421875 64.59375 
z
" id="DejaVuSans-105"/>
     <path d="M 30.609375 48.390625 
Q 23.390625 48.390625 19.1875 42.75 
Q 14.984375 37.109375 14.984375 27.296875 
Q 14.984375 17.484375 19.15625 11.84375 
Q 23.34375 6.203125 30.609375 6.203125 
Q 37.796875 6.203125 41.984375 11.859375 
Q 46.1875 17.53125 46.1875 27.296875 
Q 46.1875 37.015625 41.984375 42.703125 
Q 37.796875 48.390625 30.609375 48.390625 
z
M 30.609375 56 
Q 42.328125 56 49.015625 48.375 
Q 55.71875 40.765625 55.71875 27.296875 
Q 55.71875 13.875 49.015625 6.21875 
Q 42.328125 -1.421875 30.609375 -1.421875 
Q 18.84375 -1.421875 12.171875 6.21875 
Q 5.515625 13.875 5.515625 27.296875 
Q 5.515625 40.765625 12.171875 48.375 
Q 18.84375 56 30.609375 56 
z
" id="DejaVuSans-111"/>
     <path d="M 10.6875 12.40625 
L 21 12.40625 
L 21 0 
L 10.6875 0 
z
" id="DejaVuSans-46"/>
     <path d="M 19.671875 64.796875 
L 19.671875 37.40625 
L 32.078125 37.40625 
Q 38.96875 37.40625 42.71875 40.96875 
Q 46.484375 44.53125 46.484375 51.125 
Q 46.484375 57.671875 42.71875 61.234375 
Q 38.96875 64.796875 32.078125 64.796875 
z
M 9.8125 72.90625 
L 32.078125 72.90625 
Q 44.34375 72.90625 50.609375 67.359375 
Q 56.890625 61.8125 56.890625 51.125 
Q 56.890625 40.328125 50.609375 34.8125 
Q 44.34375 29.296875 32.078125 29.296875 
L 19.671875 29.296875 
L 19.671875 0 
L 9.8125 0 
z
" id="DejaVuSans-80"/>
     <path d="M 9.8125 72.90625 
L 55.90625 72.90625 
L 55.90625 64.59375 
L 19.671875 64.59375 
L 19.671875 43.015625 
L 54.390625 43.015625 
L 54.390625 34.71875 
L 19.671875 34.71875 
L 19.671875 8.296875 
L 56.78125 8.296875 
L 56.78125 0 
L 9.8125 0 
z
" id="DejaVuSans-69"/>
    </defs>
    <g transform="translate(629.248273 253.2)scale(0.12 -0.12)">
     <use xlink:href="#DejaVuSans-113"/>
     <use x="63.476562" xlink:href="#DejaVuSans-45"/>
     <use x="99.560547" xlink:href="#DejaVuSans-98"/>
     <use x="163.037109" xlink:href="#DejaVuSans-105"/>
     <use x="190.820312" xlink:href="#DejaVuSans-111"/>
     <use x="251.986328" xlink:href="#DejaVuSans-46"/>
     <use x="283.773438" xlink:href="#DejaVuSans-80"/>
     <use x="344.076172" xlink:href="#DejaVuSans-69"/>
    </g>
   </g>
  </g>
  <g id="axes_2">
   <g id="patch_7">
    <path d="M 1182.315789 688.357895 
L 1769.684211 688.357895 
L 1769.684211 259.2 
L 1182.315789 259.2 
z
" style="fill:#ffffff;"/>
   </g>
   <g id="matplotlib.axis_3">
    <g id="xtick_6">
     <g id="line2d_12">
      <g>
       <use style="stroke:#000000;stroke-width:0.8;" x="1269.333333" xlink:href="#ma734751b41" y="688.357895"/>
      </g>
     </g>
    </g>
    <g id="xtick_7">
     <g id="line2d_13">
      <g>
       <use style="stroke:#000000;stroke-width:0.8;" x="1378.105263" xlink:href="#ma734751b41" y="688.357895"/>
      </g>
     </g>
    </g>
    <g id="xtick_8">
     <g id="line2d_14">
      <g>
       <use style="stroke:#000000;stroke-width:0.8;" x="1486.877193" xlink:href="#ma734751b41" y="688.357895"/>
      </g>
     </g>
    </g>
    <g id="xtick_9">
     <g id="line2d_15">
      <g>
       <use style="stroke:#000000;stroke-width:0.8;" x="1595.649123" xlink:href="#ma734751b41" y="688.357895"/>
      </g>
     </g>
    </g>
    <g id="xtick_10">
     <g id="line2d_16">
      <g>
       <use style="stroke:#000000;stroke-width:0.8;" x="1704.421053" xlink:href="#ma734751b41" y="688.357895"/>
      </g>
     </g>
    </g>
   </g>
   <g id="matplotlib.axis_4">
    <g id="ytick_6">
     <g id="line2d_17">
      <g>
       <use style="stroke:#000000;stroke-width:0.8;" x="1182.315789" xlink:href="#md2b71d999f" y="688.357895"/>
      </g>
     </g>
    </g>
    <g id="ytick_7">
     <g id="line2d_18">
      <g>
       <use style="stroke:#000000;stroke-width:0.8;" x="1182.315789" xlink:href="#md2b71d999f" y="598.763345"/>
      </g>
     </g>
    </g>
    <g id="ytick_8">
     <g id="line2d_19">
      <g>
       <use style="stroke:#000000;stroke-width:0.8;" x="1182.315789" xlink:href="#md2b71d999f" y="509.168795"/>
      </g>
     </g>
    </g>
    <g id="ytick_9">
     <g id="line2d_20">
      <g>
       <use style="stroke:#000000;stroke-width:0.8;" x="1182.315789" xlink:href="#md2b71d999f" y="419.574245"/>
      </g>
     </g>
    </g>
    <g id="ytick_10">
     <g id="line2d_21">
      <g>
       <use style="stroke:#000000;stroke-width:0.8;" x="1182.315789" xlink:href="#md2b71d999f" y="329.979695"/>
      </g>
     </g>
    </g>
   </g>
   <g id="line2d_22">
    <path clip-path="url(#pa7561718da)" d="M 1334.596491 680.294385 
L 1356.350877 687.461949 
L 1378.105263 687.461949 
L 1443.368421 669.543039 
L 1465.122807 640.872783 
L 1486.877193 637.289001 
L 1508.631579 613.994418 
L 1530.385965 622.057928 
L 1552.140351 602.347127 
L 1573.894737 613.098473 
L 1595.649123 603.243072 
L 1617.403509 589.80389 
L 1639.157895 525.295814 
L 1660.912281 478.706648 
L 1682.666667 446.45261 
L 1704.421053 400.759389 
L 1726.175439 286.974311 
L 1747.929825 285.18242 
L 1769.684211 259.2 
" style="fill:none;stroke:#1f77b4;stroke-dasharray:5.55,2.4;stroke-dashoffset:0;stroke-width:1.5;"/>
    <g clip-path="url(#pa7561718da)">
     <use style="fill:#1f77b4;stroke:#1f77b4;" x="1334.596491" xlink:href="#mbd0766de8d" y="680.294385"/>
     <use style="fill:#1f77b4;stroke:#1f77b4;" x="1356.350877" xlink:href="#mbd0766de8d" y="687.461949"/>
     <use style="fill:#1f77b4;stroke:#1f77b4;" x="1378.105263" xlink:href="#mbd0766de8d" y="687.461949"/>
     <use style="fill:#1f77b4;stroke:#1f77b4;" x="1443.368421" xlink:href="#mbd0766de8d" y="669.543039"/>
     <use style="fill:#1f77b4;stroke:#1f77b4;" x="1465.122807" xlink:href="#mbd0766de8d" y="640.872783"/>
     <use style="fill:#1f77b4;stroke:#1f77b4;" x="1486.877193" xlink:href="#mbd0766de8d" y="637.289001"/>
     <use style="fill:#1f77b4;stroke:#1f77b4;" x="1508.631579" xlink:href="#mbd0766de8d" y="613.994418"/>
     <use style="fill:#1f77b4;stroke:#1f77b4;" x="1530.385965" xlink:href="#mbd0766de8d" y="622.057928"/>
     <use style="fill:#1f77b4;stroke:#1f77b4;" x="1552.140351" xlink:href="#mbd0766de8d" y="602.347127"/>
     <use style="fill:#1f77b4;stroke:#1f77b4;" x="1573.894737" xlink:href="#mbd0766de8d" y="613.098473"/>
     <use style="fill:#1f77b4;stroke:#1f77b4;" x="1595.649123" xlink:href="#mbd0766de8d" y="603.243072"/>
     <use style="fill:#1f77b4;stroke:#1f77b4;" x="1617.403509" xlink:href="#mbd0766de8d" y="589.80389"/>
     <use style="fill:#1f77b4;stroke:#1f77b4;" x="1639.157895" xlink:href="#mbd0766de8d" y="525.295814"/>
     <use style="fill:#1f77b4;stroke:#1f77b4;" x="1660.912281" xlink:href="#mbd0766de8d" y="478.706648"/>
     <use style="fill:#1f77b4;stroke:#1f77b4;" x="1682.666667" xlink:href="#mbd0766de8d" y="446.45261"/>
     <use style="fill:#1f77b4;stroke:#1f77b4;" x="1704.421053" xlink:href="#mbd0766de8d" y="400.759389"/>
     <use style="fill:#1f77b4;stroke:#1f77b4;" x="1726.175439" xlink:href="#mbd0766de8d" y="286.974311"/>
     <use style="fill:#1f77b4;stroke:#1f77b4;" x="1747.929825" xlink:href="#mbd0766de8d" y="285.18242"/>
     <use style="fill:#1f77b4;stroke:#1f77b4;" x="1769.684211" xlink:href="#mbd0766de8d" y="259.2"/>
    </g>
   </g>
   <g id="patch_8">
    <path d="M 1182.315789 688.357895 
L 1182.315789 259.2 
" style="fill:none;stroke:#000000;stroke-linecap:square;stroke-linejoin:miter;stroke-width:0.8;"/>
   </g>
   <g id="patch_9">
    <path d="M 1769.684211 688.357895 
L 1769.684211 259.2 
" style="fill:none;stroke:#000000;stroke-linecap:square;stroke-linejoin:miter;stroke-width:0.8;"/>
   </g>
   <g id="patch_10">
    <path d="M 1182.315789 688.357895 
L 1769.684211 688.357895 
" style="fill:none;stroke:#000000;stroke-linecap:square;stroke-linejoin:miter;stroke-width:0.8;"/>
   </g>
   <g id="patch_11">
    <path d="M 1182.315789 259.2 
L 1769.684211 259.2 
" style="fill:none;stroke:#000000;stroke-linecap:square;stroke-linejoin:miter;stroke-width:0.8;"/>
   </g>
   <g id="text_7">
    <!-- q-bio.NC -->
    <defs>
     <path d="M 9.8125 72.90625 
L 23.09375 72.90625 
L 55.421875 11.921875 
L 55.421875 72.90625 
L 64.984375 72.90625 
L 64.984375 0 
L 51.703125 0 
L 19.390625 60.984375 
L 19.390625 0 
L 9.8125 0 
z
" id="DejaVuSans-78"/>
     <path d="M 64.40625 67.28125 
L 64.40625 56.890625 
Q 59.421875 61.53125 53.78125 63.8125 
Q 48.140625 66.109375 41.796875 66.109375 
Q 29.296875 66.109375 22.65625 58.46875 
Q 16.015625 50.828125 16.015625 36.375 
Q 16.015625 21.96875 22.65625 14.328125 
Q 29.296875 6.6875 41.796875 6.6875 
Q 48.140625 6.6875 53.78125 8.984375 
Q 59.421875 11.28125 64.40625 15.921875 
L 64.40625 5.609375 
Q 59.234375 2.09375 53.4375 0.328125 
Q 47.65625 -1.421875 41.21875 -1.421875 
Q 24.65625 -1.421875 15.125 8.703125 
Q 5.609375 18.84375 5.609375 36.375 
Q 5.609375 53.953125 15.125 64.078125 
Q 24.65625 74.21875 41.21875 74.21875 
Q 47.75 74.21875 53.53125 72.484375 
Q 59.328125 70.75 64.40625 67.28125 
z
" id="DejaVuSans-67"/>
    </defs>
    <g transform="translate(1450.294688 253.2)scale(0.12 -0.12)">
     <use xlink:href="#DejaVuSans-113"/>
     <use x="63.476562" xlink:href="#DejaVuSans-45"/>
     <use x="99.560547" xlink:href="#DejaVuSans-98"/>
     <use x="163.037109" xlink:href="#DejaVuSans-105"/>
     <use x="190.820312" xlink:href="#DejaVuSans-111"/>
     <use x="251.986328" xlink:href="#DejaVuSans-46"/>
     <use x="283.773438" xlink:href="#DejaVuSans-78"/>
     <use x="358.578125" xlink:href="#DejaVuSans-67"/>
    </g>
   </g>
  </g>
  <g id="axes_3">
   <g id="patch_12">
    <path d="M 2004.631579 688.357895 
L 2592 688.357895 
L 2592 259.2 
L 2004.631579 259.2 
z
" style="fill:#ffffff;"/>
   </g>
   <g id="matplotlib.axis_5">
    <g id="xtick_11">
     <g id="line2d_23">
      <g>
       <use style="stroke:#000000;stroke-width:0.8;" x="2091.649123" xlink:href="#ma734751b41" y="688.357895"/>
      </g>
     </g>
    </g>
    <g id="xtick_12">
     <g id="line2d_24">
      <g>
       <use style="stroke:#000000;stroke-width:0.8;" x="2200.421053" xlink:href="#ma734751b41" y="688.357895"/>
      </g>
     </g>
    </g>
    <g id="xtick_13">
     <g id="line2d_25">
      <g>
       <use style="stroke:#000000;stroke-width:0.8;" x="2309.192982" xlink:href="#ma734751b41" y="688.357895"/>
      </g>
     </g>
    </g>
    <g id="xtick_14">
     <g id="line2d_26">
      <g>
       <use style="stroke:#000000;stroke-width:0.8;" x="2417.964912" xlink:href="#ma734751b41" y="688.357895"/>
      </g>
     </g>
    </g>
    <g id="xtick_15">
     <g id="line2d_27">
      <g>
       <use style="stroke:#000000;stroke-width:0.8;" x="2526.736842" xlink:href="#ma734751b41" y="688.357895"/>
      </g>
     </g>
    </g>
   </g>
   <g id="matplotlib.axis_6">
    <g id="ytick_11">
     <g id="line2d_28">
      <g>
       <use style="stroke:#000000;stroke-width:0.8;" x="2004.631579" xlink:href="#md2b71d999f" y="688.357895"/>
      </g>
     </g>
    </g>
    <g id="ytick_12">
     <g id="line2d_29">
      <g>
       <use style="stroke:#000000;stroke-width:0.8;" x="2004.631579" xlink:href="#md2b71d999f" y="598.763345"/>
      </g>
     </g>
    </g>
    <g id="ytick_13">
     <g id="line2d_30">
      <g>
       <use style="stroke:#000000;stroke-width:0.8;" x="2004.631579" xlink:href="#md2b71d999f" y="509.168795"/>
      </g>
     </g>
    </g>
    <g id="ytick_14">
     <g id="line2d_31">
      <g>
       <use style="stroke:#000000;stroke-width:0.8;" x="2004.631579" xlink:href="#md2b71d999f" y="419.574245"/>
      </g>
     </g>
    </g>
    <g id="ytick_15">
     <g id="line2d_32">
      <g>
       <use style="stroke:#000000;stroke-width:0.8;" x="2004.631579" xlink:href="#md2b71d999f" y="329.979695"/>
      </g>
     </g>
    </g>
   </g>
   <g id="line2d_33">
    <path clip-path="url(#p9dc5040932)" d="M 2156.912281 687.461949 
L 2265.684211 670.438985 
L 2287.438596 644.456565 
L 2309.192982 646.248456 
L 2330.947368 622.057928 
L 2352.701754 587.116053 
L 2374.45614 606.826854 
L 2396.210526 592.491726 
L 2417.964912 605.034963 
L 2439.719298 575.468762 
L 2461.473684 570.093089 
L 2483.22807 507.376904 
L 2504.982456 470.643138 
L 2526.736842 495.729612 
L 2548.491228 463.475574 
L 2570.245614 423.158027 
L 2592 411.510735 
" style="fill:none;stroke:#1f77b4;stroke-dasharray:5.55,2.4;stroke-dashoffset:0;stroke-width:1.5;"/>
    <g clip-path="url(#p9dc5040932)">
     <use style="fill:#1f77b4;stroke:#1f77b4;" x="2156.912281" xlink:href="#mbd0766de8d" y="687.461949"/>
     <use style="fill:#1f77b4;stroke:#1f77b4;" x="2265.684211" xlink:href="#mbd0766de8d" y="670.438985"/>
     <use style="fill:#1f77b4;stroke:#1f77b4;" x="2287.438596" xlink:href="#mbd0766de8d" y="644.456565"/>
     <use style="fill:#1f77b4;stroke:#1f77b4;" x="2309.192982" xlink:href="#mbd0766de8d" y="646.248456"/>
     <use style="fill:#1f77b4;stroke:#1f77b4;" x="2330.947368" xlink:href="#mbd0766de8d" y="622.057928"/>
     <use style="fill:#1f77b4;stroke:#1f77b4;" x="2352.701754" xlink:href="#mbd0766de8d" y="587.116053"/>
     <use style="fill:#1f77b4;stroke:#1f77b4;" x="2374.45614" xlink:href="#mbd0766de8d" y="606.826854"/>
     <use style="fill:#1f77b4;stroke:#1f77b4;" x="2396.210526" xlink:href="#mbd0766de8d" y="592.491726"/>
     <use style="fill:#1f77b4;stroke:#1f77b4;" x="2417.964912" xlink:href="#mbd0766de8d" y="605.034963"/>
     <use style="fill:#1f77b4;stroke:#1f77b4;" x="2439.719298" xlink:href="#mbd0766de8d" y="575.468762"/>
     <use style="fill:#1f77b4;stroke:#1f77b4;" x="2461.473684" xlink:href="#mbd0766de8d" y="570.093089"/>
     <use style="fill:#1f77b4;stroke:#1f77b4;" x="2483.22807" xlink:href="#mbd0766de8d" y="507.376904"/>
     <use style="fill:#1f77b4;stroke:#1f77b4;" x="2504.982456" xlink:href="#mbd0766de8d" y="470.643138"/>
     <use style="fill:#1f77b4;stroke:#1f77b4;" x="2526.736842" xlink:href="#mbd0766de8d" y="495.729612"/>
     <use style="fill:#1f77b4;stroke:#1f77b4;" x="2548.491228" xlink:href="#mbd0766de8d" y="463.475574"/>
     <use style="fill:#1f77b4;stroke:#1f77b4;" x="2570.245614" xlink:href="#mbd0766de8d" y="423.158027"/>
     <use style="fill:#1f77b4;stroke:#1f77b4;" x="2592" xlink:href="#mbd0766de8d" y="411.510735"/>
    </g>
   </g>
   <g id="patch_13">
    <path d="M 2004.631579 688.357895 
L 2004.631579 259.2 
" style="fill:none;stroke:#000000;stroke-linecap:square;stroke-linejoin:miter;stroke-width:0.8;"/>
   </g>
   <g id="patch_14">
    <path d="M 2592 688.357895 
L 2592 259.2 
" style="fill:none;stroke:#000000;stroke-linecap:square;stroke-linejoin:miter;stroke-width:0.8;"/>
   </g>
   <g id="patch_15">
    <path d="M 2004.631579 688.357895 
L 2592 688.357895 
" style="fill:none;stroke:#000000;stroke-linecap:square;stroke-linejoin:miter;stroke-width:0.8;"/>
   </g>
   <g id="patch_16">
    <path d="M 2004.631579 259.2 
L 2592 259.2 
" style="fill:none;stroke:#000000;stroke-linecap:square;stroke-linejoin:miter;stroke-width:0.8;"/>
   </g>
   <g id="text_8">
    <!-- q-bio.QM -->
    <defs>
     <path d="M 39.40625 66.21875 
Q 28.65625 66.21875 22.328125 58.203125 
Q 16.015625 50.203125 16.015625 36.375 
Q 16.015625 22.609375 22.328125 14.59375 
Q 28.65625 6.59375 39.40625 6.59375 
Q 50.140625 6.59375 56.421875 14.59375 
Q 62.703125 22.609375 62.703125 36.375 
Q 62.703125 50.203125 56.421875 58.203125 
Q 50.140625 66.21875 39.40625 66.21875 
z
M 53.21875 1.3125 
L 66.21875 -12.890625 
L 54.296875 -12.890625 
L 43.5 -1.21875 
Q 41.890625 -1.3125 41.03125 -1.359375 
Q 40.1875 -1.421875 39.40625 -1.421875 
Q 24.03125 -1.421875 14.8125 8.859375 
Q 5.609375 19.140625 5.609375 36.375 
Q 5.609375 53.65625 14.8125 63.9375 
Q 24.03125 74.21875 39.40625 74.21875 
Q 54.734375 74.21875 63.90625 63.9375 
Q 73.09375 53.65625 73.09375 36.375 
Q 73.09375 23.6875 67.984375 14.640625 
Q 62.890625 5.609375 53.21875 1.3125 
z
" id="DejaVuSans-81"/>
     <path d="M 9.8125 72.90625 
L 24.515625 72.90625 
L 43.109375 23.296875 
L 61.8125 72.90625 
L 76.515625 72.90625 
L 76.515625 0 
L 66.890625 0 
L 66.890625 64.015625 
L 48.09375 14.015625 
L 38.1875 14.015625 
L 19.390625 64.015625 
L 19.390625 0 
L 9.8125 0 
z
" id="DejaVuSans-77"/>
    </defs>
    <g transform="translate(2271.388914 253.2)scale(0.12 -0.12)">
     <use xlink:href="#DejaVuSans-113"/>
     <use x="63.476562" xlink:href="#DejaVuSans-45"/>
     <use x="99.560547" xlink:href="#DejaVuSans-98"/>
     <use x="163.037109" xlink:href="#DejaVuSans-105"/>
     <use x="190.820312" xlink:href="#DejaVuSans-111"/>
     <use x="251.986328" xlink:href="#DejaVuSans-46"/>
     <use x="283.773438" xlink:href="#DejaVuSans-81"/>
     <use x="362.484375" xlink:href="#DejaVuSans-77"/>
    </g>
   </g>
  </g>
  <g id="axes_4">
   <g id="patch_17">
    <path d="M 360 1289.178947 
L 947.368421 1289.178947 
L 947.368421 860.021053 
L 360 860.021053 
z
" style="fill:#ffffff;"/>
   </g>
   <g id="matplotlib.axis_7">
    <g id="xtick_16">
     <g id="line2d_34">
      <g>
       <use style="stroke:#000000;stroke-width:0.8;" x="447.017544" xlink:href="#ma734751b41" y="1289.178947"/>
      </g>
     </g>
    </g>
    <g id="xtick_17">
     <g id="line2d_35">
      <g>
       <use style="stroke:#000000;stroke-width:0.8;" x="555.789474" xlink:href="#ma734751b41" y="1289.178947"/>
      </g>
     </g>
    </g>
    <g id="xtick_18">
     <g id="line2d_36">
      <g>
       <use style="stroke:#000000;stroke-width:0.8;" x="664.561404" xlink:href="#ma734751b41" y="1289.178947"/>
      </g>
     </g>
    </g>
    <g id="xtick_19">
     <g id="line2d_37">
      <g>
       <use style="stroke:#000000;stroke-width:0.8;" x="773.333333" xlink:href="#ma734751b41" y="1289.178947"/>
      </g>
     </g>
    </g>
    <g id="xtick_20">
     <g id="line2d_38">
      <g>
       <use style="stroke:#000000;stroke-width:0.8;" x="882.105263" xlink:href="#ma734751b41" y="1289.178947"/>
      </g>
     </g>
    </g>
   </g>
   <g id="matplotlib.axis_8">
    <g id="ytick_16">
     <g id="line2d_39">
      <g>
       <use style="stroke:#000000;stroke-width:0.8;" x="360" xlink:href="#md2b71d999f" y="1289.178947"/>
      </g>
     </g>
     <g id="text_9">
      <!-- 0 -->
      <g transform="translate(346.6375 1292.978166)scale(0.1 -0.1)">
       <use xlink:href="#DejaVuSans-48"/>
      </g>
     </g>
    </g>
    <g id="ytick_17">
     <g id="line2d_40">
      <g>
       <use style="stroke:#000000;stroke-width:0.8;" x="360" xlink:href="#md2b71d999f" y="1199.584397"/>
      </g>
     </g>
     <g id="text_10">
      <!-- 100 -->
      <g transform="translate(333.9125 1203.383616)scale(0.1 -0.1)">
       <use xlink:href="#DejaVuSans-49"/>
       <use x="63.623047" xlink:href="#DejaVuSans-48"/>
       <use x="127.246094" xlink:href="#DejaVuSans-48"/>
      </g>
     </g>
    </g>
    <g id="ytick_18">
     <g id="line2d_41">
      <g>
       <use style="stroke:#000000;stroke-width:0.8;" x="360" xlink:href="#md2b71d999f" y="1109.989847"/>
      </g>
     </g>
     <g id="text_11">
      <!-- 200 -->
      <g transform="translate(333.9125 1113.789066)scale(0.1 -0.1)">
       <use xlink:href="#DejaVuSans-50"/>
       <use x="63.623047" xlink:href="#DejaVuSans-48"/>
       <use x="127.246094" xlink:href="#DejaVuSans-48"/>
      </g>
     </g>
    </g>
    <g id="ytick_19">
     <g id="line2d_42">
      <g>
       <use style="stroke:#000000;stroke-width:0.8;" x="360" xlink:href="#md2b71d999f" y="1020.395297"/>
      </g>
     </g>
     <g id="text_12">
      <!-- 300 -->
      <g transform="translate(333.9125 1024.194516)scale(0.1 -0.1)">
       <use xlink:href="#DejaVuSans-51"/>
       <use x="63.623047" xlink:href="#DejaVuSans-48"/>
       <use x="127.246094" xlink:href="#DejaVuSans-48"/>
      </g>
     </g>
    </g>
    <g id="ytick_20">
     <g id="line2d_43">
      <g>
       <use style="stroke:#000000;stroke-width:0.8;" x="360" xlink:href="#md2b71d999f" y="930.800747"/>
      </g>
     </g>
     <g id="text_13">
      <!-- 400 -->
      <g transform="translate(333.9125 934.599966)scale(0.1 -0.1)">
       <use xlink:href="#DejaVuSans-52"/>
       <use x="63.623047" xlink:href="#DejaVuSans-48"/>
       <use x="127.246094" xlink:href="#DejaVuSans-48"/>
      </g>
     </g>
    </g>
   </g>
   <g id="line2d_44">
    <path clip-path="url(#pa08e8b467f)" d="M 621.052632 1270.364092 
L 642.807018 1231.838435 
L 664.561404 1234.526272 
L 686.315789 1233.630326 
L 708.070175 1200.480343 
L 729.824561 1222.87898 
L 751.578947 1206.751961 
L 773.333333 1214.815471 
L 795.087719 1197.792506 
L 816.842105 1187.04116 
L 838.596491 1146.723613 
L 860.350877 1163.746577 
L 882.105263 1156.579013 
L 903.859649 1172.706032 
L 925.614035 1179.873596 
L 947.368421 1182.561433 
" style="fill:none;stroke:#1f77b4;stroke-dasharray:5.55,2.4;stroke-dashoffset:0;stroke-width:1.5;"/>
    <g clip-path="url(#pa08e8b467f)">
     <use style="fill:#1f77b4;stroke:#1f77b4;" x="621.052632" xlink:href="#mbd0766de8d" y="1270.364092"/>
     <use style="fill:#1f77b4;stroke:#1f77b4;" x="642.807018" xlink:href="#mbd0766de8d" y="1231.838435"/>
     <use style="fill:#1f77b4;stroke:#1f77b4;" x="664.561404" xlink:href="#mbd0766de8d" y="1234.526272"/>
     <use style="fill:#1f77b4;stroke:#1f77b4;" x="686.315789" xlink:href="#mbd0766de8d" y="1233.630326"/>
     <use style="fill:#1f77b4;stroke:#1f77b4;" x="708.070175" xlink:href="#mbd0766de8d" y="1200.480343"/>
     <use style="fill:#1f77b4;stroke:#1f77b4;" x="729.824561" xlink:href="#mbd0766de8d" y="1222.87898"/>
     <use style="fill:#1f77b4;stroke:#1f77b4;" x="751.578947" xlink:href="#mbd0766de8d" y="1206.751961"/>
     <use style="fill:#1f77b4;stroke:#1f77b4;" x="773.333333" xlink:href="#mbd0766de8d" y="1214.815471"/>
     <use style="fill:#1f77b4;stroke:#1f77b4;" x="795.087719" xlink:href="#mbd0766de8d" y="1197.792506"/>
     <use style="fill:#1f77b4;stroke:#1f77b4;" x="816.842105" xlink:href="#mbd0766de8d" y="1187.04116"/>
     <use style="fill:#1f77b4;stroke:#1f77b4;" x="838.596491" xlink:href="#mbd0766de8d" y="1146.723613"/>
     <use style="fill:#1f77b4;stroke:#1f77b4;" x="860.350877" xlink:href="#mbd0766de8d" y="1163.746577"/>
     <use style="fill:#1f77b4;stroke:#1f77b4;" x="882.105263" xlink:href="#mbd0766de8d" y="1156.579013"/>
     <use style="fill:#1f77b4;stroke:#1f77b4;" x="903.859649" xlink:href="#mbd0766de8d" y="1172.706032"/>
     <use style="fill:#1f77b4;stroke:#1f77b4;" x="925.614035" xlink:href="#mbd0766de8d" y="1179.873596"/>
     <use style="fill:#1f77b4;stroke:#1f77b4;" x="947.368421" xlink:href="#mbd0766de8d" y="1182.561433"/>
    </g>
   </g>
   <g id="patch_18">
    <path d="M 360 1289.178947 
L 360 860.021053 
" style="fill:none;stroke:#000000;stroke-linecap:square;stroke-linejoin:miter;stroke-width:0.8;"/>
   </g>
   <g id="patch_19">
    <path d="M 947.368421 1289.178947 
L 947.368421 860.021053 
" style="fill:none;stroke:#000000;stroke-linecap:square;stroke-linejoin:miter;stroke-width:0.8;"/>
   </g>
   <g id="patch_20">
    <path d="M 360 1289.178947 
L 947.368421 1289.178947 
" style="fill:none;stroke:#000000;stroke-linecap:square;stroke-linejoin:miter;stroke-width:0.8;"/>
   </g>
   <g id="patch_21">
    <path d="M 360 860.021053 
L 947.368421 860.021053 
" style="fill:none;stroke:#000000;stroke-linecap:square;stroke-linejoin:miter;stroke-width:0.8;"/>
   </g>
   <g id="text_14">
    <!-- q-bio.MN -->
    <g transform="translate(626.991711 854.021053)scale(0.12 -0.12)">
     <use xlink:href="#DejaVuSans-113"/>
     <use x="63.476562" xlink:href="#DejaVuSans-45"/>
     <use x="99.560547" xlink:href="#DejaVuSans-98"/>
     <use x="163.037109" xlink:href="#DejaVuSans-105"/>
     <use x="190.820312" xlink:href="#DejaVuSans-111"/>
     <use x="251.986328" xlink:href="#DejaVuSans-46"/>
     <use x="283.773438" xlink:href="#DejaVuSans-77"/>
     <use x="370.052734" xlink:href="#DejaVuSans-78"/>
    </g>
   </g>
  </g>
  <g id="axes_5">
   <g id="patch_22">
    <path d="M 1182.315789 1289.178947 
L 1769.684211 1289.178947 
L 1769.684211 860.021053 
L 1182.315789 860.021053 
z
" style="fill:#ffffff;"/>
   </g>
   <g id="matplotlib.axis_9">
    <g id="xtick_21">
     <g id="line2d_45">
      <g>
       <use style="stroke:#000000;stroke-width:0.8;" x="1269.333333" xlink:href="#ma734751b41" y="1289.178947"/>
      </g>
     </g>
    </g>
    <g id="xtick_22">
     <g id="line2d_46">
      <g>
       <use style="stroke:#000000;stroke-width:0.8;" x="1378.105263" xlink:href="#ma734751b41" y="1289.178947"/>
      </g>
     </g>
    </g>
    <g id="xtick_23">
     <g id="line2d_47">
      <g>
       <use style="stroke:#000000;stroke-width:0.8;" x="1486.877193" xlink:href="#ma734751b41" y="1289.178947"/>
      </g>
     </g>
    </g>
    <g id="xtick_24">
     <g id="line2d_48">
      <g>
       <use style="stroke:#000000;stroke-width:0.8;" x="1595.649123" xlink:href="#ma734751b41" y="1289.178947"/>
      </g>
     </g>
    </g>
    <g id="xtick_25">
     <g id="line2d_49">
      <g>
       <use style="stroke:#000000;stroke-width:0.8;" x="1704.421053" xlink:href="#ma734751b41" y="1289.178947"/>
      </g>
     </g>
    </g>
   </g>
   <g id="matplotlib.axis_10">
    <g id="ytick_21">
     <g id="line2d_50">
      <g>
       <use style="stroke:#000000;stroke-width:0.8;" x="1182.315789" xlink:href="#md2b71d999f" y="1289.178947"/>
      </g>
     </g>
    </g>
    <g id="ytick_22">
     <g id="line2d_51">
      <g>
       <use style="stroke:#000000;stroke-width:0.8;" x="1182.315789" xlink:href="#md2b71d999f" y="1199.584397"/>
      </g>
     </g>
    </g>
    <g id="ytick_23">
     <g id="line2d_52">
      <g>
       <use style="stroke:#000000;stroke-width:0.8;" x="1182.315789" xlink:href="#md2b71d999f" y="1109.989847"/>
      </g>
     </g>
    </g>
    <g id="ytick_24">
     <g id="line2d_53">
      <g>
       <use style="stroke:#000000;stroke-width:0.8;" x="1182.315789" xlink:href="#md2b71d999f" y="1020.395297"/>
      </g>
     </g>
    </g>
    <g id="ytick_25">
     <g id="line2d_54">
      <g>
       <use style="stroke:#000000;stroke-width:0.8;" x="1182.315789" xlink:href="#md2b71d999f" y="930.800747"/>
      </g>
     </g>
    </g>
   </g>
   <g id="line2d_55">
    <path clip-path="url(#p21d199c922)" d="M 1443.368421 1256.028964 
L 1465.122807 1185.249269 
L 1486.877193 1196.896561 
L 1508.631579 1193.312779 
L 1530.385965 1198.688452 
L 1552.140351 1200.480343 
L 1573.894737 1201.376288 
L 1595.649123 1220.191144 
L 1617.403509 1208.543852 
L 1639.157895 1207.647907 
L 1660.912281 1175.393869 
L 1682.666667 1170.914141 
L 1704.421053 1164.642523 
L 1726.175439 1165.538468 
L 1747.929825 1184.353324 
L 1769.684211 1190.624942 
" style="fill:none;stroke:#1f77b4;stroke-dasharray:5.55,2.4;stroke-dashoffset:0;stroke-width:1.5;"/>
    <g clip-path="url(#p21d199c922)">
     <use style="fill:#1f77b4;stroke:#1f77b4;" x="1443.368421" xlink:href="#mbd0766de8d" y="1256.028964"/>
     <use style="fill:#1f77b4;stroke:#1f77b4;" x="1465.122807" xlink:href="#mbd0766de8d" y="1185.249269"/>
     <use style="fill:#1f77b4;stroke:#1f77b4;" x="1486.877193" xlink:href="#mbd0766de8d" y="1196.896561"/>
     <use style="fill:#1f77b4;stroke:#1f77b4;" x="1508.631579" xlink:href="#mbd0766de8d" y="1193.312779"/>
     <use style="fill:#1f77b4;stroke:#1f77b4;" x="1530.385965" xlink:href="#mbd0766de8d" y="1198.688452"/>
     <use style="fill:#1f77b4;stroke:#1f77b4;" x="1552.140351" xlink:href="#mbd0766de8d" y="1200.480343"/>
     <use style="fill:#1f77b4;stroke:#1f77b4;" x="1573.894737" xlink:href="#mbd0766de8d" y="1201.376288"/>
     <use style="fill:#1f77b4;stroke:#1f77b4;" x="1595.649123" xlink:href="#mbd0766de8d" y="1220.191144"/>
     <use style="fill:#1f77b4;stroke:#1f77b4;" x="1617.403509" xlink:href="#mbd0766de8d" y="1208.543852"/>
     <use style="fill:#1f77b4;stroke:#1f77b4;" x="1639.157895" xlink:href="#mbd0766de8d" y="1207.647907"/>
     <use style="fill:#1f77b4;stroke:#1f77b4;" x="1660.912281" xlink:href="#mbd0766de8d" y="1175.393869"/>
     <use style="fill:#1f77b4;stroke:#1f77b4;" x="1682.666667" xlink:href="#mbd0766de8d" y="1170.914141"/>
     <use style="fill:#1f77b4;stroke:#1f77b4;" x="1704.421053" xlink:href="#mbd0766de8d" y="1164.642523"/>
     <use style="fill:#1f77b4;stroke:#1f77b4;" x="1726.175439" xlink:href="#mbd0766de8d" y="1165.538468"/>
     <use style="fill:#1f77b4;stroke:#1f77b4;" x="1747.929825" xlink:href="#mbd0766de8d" y="1184.353324"/>
     <use style="fill:#1f77b4;stroke:#1f77b4;" x="1769.684211" xlink:href="#mbd0766de8d" y="1190.624942"/>
    </g>
   </g>
   <g id="patch_23">
    <path d="M 1182.315789 1289.178947 
L 1182.315789 860.021053 
" style="fill:none;stroke:#000000;stroke-linecap:square;stroke-linejoin:miter;stroke-width:0.8;"/>
   </g>
   <g id="patch_24">
    <path d="M 1769.684211 1289.178947 
L 1769.684211 860.021053 
" style="fill:none;stroke:#000000;stroke-linecap:square;stroke-linejoin:miter;stroke-width:0.8;"/>
   </g>
   <g id="patch_25">
    <path d="M 1182.315789 1289.178947 
L 1769.684211 1289.178947 
" style="fill:none;stroke:#000000;stroke-linecap:square;stroke-linejoin:miter;stroke-width:0.8;"/>
   </g>
   <g id="patch_26">
    <path d="M 1182.315789 860.021053 
L 1769.684211 860.021053 
" style="fill:none;stroke:#000000;stroke-linecap:square;stroke-linejoin:miter;stroke-width:0.8;"/>
   </g>
   <g id="text_15">
    <!-- q-bio.BM -->
    <defs>
     <path d="M 19.671875 34.8125 
L 19.671875 8.109375 
L 35.5 8.109375 
Q 43.453125 8.109375 47.28125 11.40625 
Q 51.125 14.703125 51.125 21.484375 
Q 51.125 28.328125 47.28125 31.5625 
Q 43.453125 34.8125 35.5 34.8125 
z
M 19.671875 64.796875 
L 19.671875 42.828125 
L 34.28125 42.828125 
Q 41.5 42.828125 45.03125 45.53125 
Q 48.578125 48.25 48.578125 53.8125 
Q 48.578125 59.328125 45.03125 62.0625 
Q 41.5 64.796875 34.28125 64.796875 
z
M 9.8125 72.90625 
L 35.015625 72.90625 
Q 46.296875 72.90625 52.390625 68.21875 
Q 58.5 63.53125 58.5 54.890625 
Q 58.5 48.1875 55.375 44.234375 
Q 52.25 40.28125 46.1875 39.3125 
Q 53.46875 37.75 57.5 32.78125 
Q 61.53125 27.828125 61.53125 20.40625 
Q 61.53125 10.640625 54.890625 5.3125 
Q 48.25 0 35.984375 0 
L 9.8125 0 
z
" id="DejaVuSans-66"/>
    </defs>
    <g transform="translate(1449.679688 854.021053)scale(0.12 -0.12)">
     <use xlink:href="#DejaVuSans-113"/>
     <use x="63.476562" xlink:href="#DejaVuSans-45"/>
     <use x="99.560547" xlink:href="#DejaVuSans-98"/>
     <use x="163.037109" xlink:href="#DejaVuSans-105"/>
     <use x="190.820312" xlink:href="#DejaVuSans-111"/>
     <use x="251.986328" xlink:href="#DejaVuSans-46"/>
     <use x="283.773438" xlink:href="#DejaVuSans-66"/>
     <use x="352.376953" xlink:href="#DejaVuSans-77"/>
    </g>
   </g>
  </g>
  <g id="axes_6">
   <g id="patch_27">
    <path d="M 2004.631579 1289.178947 
L 2592 1289.178947 
L 2592 860.021053 
L 2004.631579 860.021053 
z
" style="fill:#ffffff;"/>
   </g>
   <g id="matplotlib.axis_11">
    <g id="xtick_26">
     <g id="line2d_56">
      <g>
       <use style="stroke:#000000;stroke-width:0.8;" x="2091.649123" xlink:href="#ma734751b41" y="1289.178947"/>
      </g>
     </g>
    </g>
    <g id="xtick_27">
     <g id="line2d_57">
      <g>
       <use style="stroke:#000000;stroke-width:0.8;" x="2200.421053" xlink:href="#ma734751b41" y="1289.178947"/>
      </g>
     </g>
    </g>
    <g id="xtick_28">
     <g id="line2d_58">
      <g>
       <use style="stroke:#000000;stroke-width:0.8;" x="2309.192982" xlink:href="#ma734751b41" y="1289.178947"/>
      </g>
     </g>
    </g>
    <g id="xtick_29">
     <g id="line2d_59">
      <g>
       <use style="stroke:#000000;stroke-width:0.8;" x="2417.964912" xlink:href="#ma734751b41" y="1289.178947"/>
      </g>
     </g>
    </g>
    <g id="xtick_30">
     <g id="line2d_60">
      <g>
       <use style="stroke:#000000;stroke-width:0.8;" x="2526.736842" xlink:href="#ma734751b41" y="1289.178947"/>
      </g>
     </g>
    </g>
   </g>
   <g id="matplotlib.axis_12">
    <g id="ytick_26">
     <g id="line2d_61">
      <g>
       <use style="stroke:#000000;stroke-width:0.8;" x="2004.631579" xlink:href="#md2b71d999f" y="1289.178947"/>
      </g>
     </g>
    </g>
    <g id="ytick_27">
     <g id="line2d_62">
      <g>
       <use style="stroke:#000000;stroke-width:0.8;" x="2004.631579" xlink:href="#md2b71d999f" y="1199.584397"/>
      </g>
     </g>
    </g>
    <g id="ytick_28">
     <g id="line2d_63">
      <g>
       <use style="stroke:#000000;stroke-width:0.8;" x="2004.631579" xlink:href="#md2b71d999f" y="1109.989847"/>
      </g>
     </g>
    </g>
    <g id="ytick_29">
     <g id="line2d_64">
      <g>
       <use style="stroke:#000000;stroke-width:0.8;" x="2004.631579" xlink:href="#md2b71d999f" y="1020.395297"/>
      </g>
     </g>
    </g>
    <g id="ytick_30">
     <g id="line2d_65">
      <g>
       <use style="stroke:#000000;stroke-width:0.8;" x="2004.631579" xlink:href="#md2b71d999f" y="930.800747"/>
      </g>
     </g>
    </g>
   </g>
   <g id="line2d_66">
    <path clip-path="url(#pb8e0acbb7f)" d="M 2265.684211 1276.63571 
L 2287.438596 1251.549236 
L 2309.192982 1244.381672 
L 2330.947368 1248.8614 
L 2352.701754 1243.485727 
L 2374.45614 1247.069509 
L 2396.210526 1242.589781 
L 2417.964912 1251.549236 
L 2439.719298 1256.028964 
L 2461.473684 1213.02358 
L 2483.22807 1128.804703 
L 2504.982456 1188.833051 
L 2526.736842 1186.145215 
L 2548.491228 1216.607362 
L 2570.245614 1223.774926 
L 2592 1213.02358 
" style="fill:none;stroke:#1f77b4;stroke-dasharray:5.55,2.4;stroke-dashoffset:0;stroke-width:1.5;"/>
    <g clip-path="url(#pb8e0acbb7f)">
     <use style="fill:#1f77b4;stroke:#1f77b4;" x="2265.684211" xlink:href="#mbd0766de8d" y="1276.63571"/>
     <use style="fill:#1f77b4;stroke:#1f77b4;" x="2287.438596" xlink:href="#mbd0766de8d" y="1251.549236"/>
     <use style="fill:#1f77b4;stroke:#1f77b4;" x="2309.192982" xlink:href="#mbd0766de8d" y="1244.381672"/>
     <use style="fill:#1f77b4;stroke:#1f77b4;" x="2330.947368" xlink:href="#mbd0766de8d" y="1248.8614"/>
     <use style="fill:#1f77b4;stroke:#1f77b4;" x="2352.701754" xlink:href="#mbd0766de8d" y="1243.485727"/>
     <use style="fill:#1f77b4;stroke:#1f77b4;" x="2374.45614" xlink:href="#mbd0766de8d" y="1247.069509"/>
     <use style="fill:#1f77b4;stroke:#1f77b4;" x="2396.210526" xlink:href="#mbd0766de8d" y="1242.589781"/>
     <use style="fill:#1f77b4;stroke:#1f77b4;" x="2417.964912" xlink:href="#mbd0766de8d" y="1251.549236"/>
     <use style="fill:#1f77b4;stroke:#1f77b4;" x="2439.719298" xlink:href="#mbd0766de8d" y="1256.028964"/>
     <use style="fill:#1f77b4;stroke:#1f77b4;" x="2461.473684" xlink:href="#mbd0766de8d" y="1213.02358"/>
     <use style="fill:#1f77b4;stroke:#1f77b4;" x="2483.22807" xlink:href="#mbd0766de8d" y="1128.804703"/>
     <use style="fill:#1f77b4;stroke:#1f77b4;" x="2504.982456" xlink:href="#mbd0766de8d" y="1188.833051"/>
     <use style="fill:#1f77b4;stroke:#1f77b4;" x="2526.736842" xlink:href="#mbd0766de8d" y="1186.145215"/>
     <use style="fill:#1f77b4;stroke:#1f77b4;" x="2548.491228" xlink:href="#mbd0766de8d" y="1216.607362"/>
     <use style="fill:#1f77b4;stroke:#1f77b4;" x="2570.245614" xlink:href="#mbd0766de8d" y="1223.774926"/>
     <use style="fill:#1f77b4;stroke:#1f77b4;" x="2592" xlink:href="#mbd0766de8d" y="1213.02358"/>
    </g>
   </g>
   <g id="patch_28">
    <path d="M 2004.631579 1289.178947 
L 2004.631579 860.021053 
" style="fill:none;stroke:#000000;stroke-linecap:square;stroke-linejoin:miter;stroke-width:0.8;"/>
   </g>
   <g id="patch_29">
    <path d="M 2592 1289.178947 
L 2592 860.021053 
" style="fill:none;stroke:#000000;stroke-linecap:square;stroke-linejoin:miter;stroke-width:0.8;"/>
   </g>
   <g id="patch_30">
    <path d="M 2004.631579 1289.178947 
L 2592 1289.178947 
" style="fill:none;stroke:#000000;stroke-linecap:square;stroke-linejoin:miter;stroke-width:0.8;"/>
   </g>
   <g id="patch_31">
    <path d="M 2004.631579 860.021053 
L 2592 860.021053 
" style="fill:none;stroke:#000000;stroke-linecap:square;stroke-linejoin:miter;stroke-width:0.8;"/>
   </g>
   <g id="text_16">
    <!-- q-bio.GN -->
    <defs>
     <path d="M 59.515625 10.40625 
L 59.515625 29.984375 
L 43.40625 29.984375 
L 43.40625 38.09375 
L 69.28125 38.09375 
L 69.28125 6.78125 
Q 63.578125 2.734375 56.6875 0.65625 
Q 49.8125 -1.421875 42 -1.421875 
Q 24.90625 -1.421875 15.25 8.5625 
Q 5.609375 18.5625 5.609375 36.375 
Q 5.609375 54.25 15.25 64.234375 
Q 24.90625 74.21875 42 74.21875 
Q 49.125 74.21875 55.546875 72.453125 
Q 61.96875 70.703125 67.390625 67.28125 
L 67.390625 56.78125 
Q 61.921875 61.421875 55.765625 63.765625 
Q 49.609375 66.109375 42.828125 66.109375 
Q 29.4375 66.109375 22.71875 58.640625 
Q 16.015625 51.171875 16.015625 36.375 
Q 16.015625 21.625 22.71875 14.15625 
Q 29.4375 6.6875 42.828125 6.6875 
Q 48.046875 6.6875 52.140625 7.59375 
Q 56.25 8.5 59.515625 10.40625 
z
" id="DejaVuSans-71"/>
    </defs>
    <g transform="translate(2272.151102 854.021053)scale(0.12 -0.12)">
     <use xlink:href="#DejaVuSans-113"/>
     <use x="63.476562" xlink:href="#DejaVuSans-45"/>
     <use x="99.560547" xlink:href="#DejaVuSans-98"/>
     <use x="163.037109" xlink:href="#DejaVuSans-105"/>
     <use x="190.820312" xlink:href="#DejaVuSans-111"/>
     <use x="251.986328" xlink:href="#DejaVuSans-46"/>
     <use x="283.773438" xlink:href="#DejaVuSans-71"/>
     <use x="361.263672" xlink:href="#DejaVuSans-78"/>
    </g>
   </g>
  </g>
  <g id="axes_7">
   <g id="patch_32">
    <path d="M 360 1890 
L 947.368421 1890 
L 947.368421 1460.842105 
L 360 1460.842105 
z
" style="fill:#ffffff;"/>
   </g>
   <g id="matplotlib.axis_13">
    <g id="xtick_31">
     <g id="line2d_67">
      <g>
       <use style="stroke:#000000;stroke-width:0.8;" x="447.017544" xlink:href="#ma734751b41" y="1890"/>
      </g>
     </g>
     <g id="text_17">
      <!-- 1995 -->
      <defs>
       <path d="M 10.984375 1.515625 
L 10.984375 10.5 
Q 14.703125 8.734375 18.5 7.8125 
Q 22.3125 6.890625 25.984375 6.890625 
Q 35.75 6.890625 40.890625 13.453125 
Q 46.046875 20.015625 46.78125 33.40625 
Q 43.953125 29.203125 39.59375 26.953125 
Q 35.25 24.703125 29.984375 24.703125 
Q 19.046875 24.703125 12.671875 31.3125 
Q 6.296875 37.9375 6.296875 49.421875 
Q 6.296875 60.640625 12.9375 67.421875 
Q 19.578125 74.21875 30.609375 74.21875 
Q 43.265625 74.21875 49.921875 64.515625 
Q 56.59375 54.828125 56.59375 36.375 
Q 56.59375 19.140625 48.40625 8.859375 
Q 40.234375 -1.421875 26.421875 -1.421875 
Q 22.703125 -1.421875 18.890625 -0.6875 
Q 15.09375 0.046875 10.984375 1.515625 
z
M 30.609375 32.421875 
Q 37.25 32.421875 41.125 36.953125 
Q 45.015625 41.5 45.015625 49.421875 
Q 45.015625 57.28125 41.125 61.84375 
Q 37.25 66.40625 30.609375 66.40625 
Q 23.96875 66.40625 20.09375 61.84375 
Q 16.21875 57.28125 16.21875 49.421875 
Q 16.21875 41.5 20.09375 36.953125 
Q 23.96875 32.421875 30.609375 32.421875 
z
" id="DejaVuSans-57"/>
       <path d="M 10.796875 72.90625 
L 49.515625 72.90625 
L 49.515625 64.59375 
L 19.828125 64.59375 
L 19.828125 46.734375 
Q 21.96875 47.46875 24.109375 47.828125 
Q 26.265625 48.1875 28.421875 48.1875 
Q 40.625 48.1875 47.75 41.5 
Q 54.890625 34.8125 54.890625 23.390625 
Q 54.890625 11.625 47.5625 5.09375 
Q 40.234375 -1.421875 26.90625 -1.421875 
Q 22.3125 -1.421875 17.546875 -0.640625 
Q 12.796875 0.140625 7.71875 1.703125 
L 7.71875 11.625 
Q 12.109375 9.234375 16.796875 8.0625 
Q 21.484375 6.890625 26.703125 6.890625 
Q 35.15625 6.890625 40.078125 11.328125 
Q 45.015625 15.765625 45.015625 23.390625 
Q 45.015625 31 40.078125 35.4375 
Q 35.15625 39.890625 26.703125 39.890625 
Q 22.75 39.890625 18.8125 39.015625 
Q 14.890625 38.140625 10.796875 36.28125 
z
" id="DejaVuSans-53"/>
      </defs>
      <g transform="translate(434.292544 1904.598438)scale(0.1 -0.1)">
       <use xlink:href="#DejaVuSans-49"/>
       <use x="63.623047" xlink:href="#DejaVuSans-57"/>
       <use x="127.246094" xlink:href="#DejaVuSans-57"/>
       <use x="190.869141" xlink:href="#DejaVuSans-53"/>
      </g>
     </g>
    </g>
    <g id="xtick_32">
     <g id="line2d_68">
      <g>
       <use style="stroke:#000000;stroke-width:0.8;" x="555.789474" xlink:href="#ma734751b41" y="1890"/>
      </g>
     </g>
     <g id="text_18">
      <!-- 2000 -->
      <g transform="translate(543.064474 1904.598438)scale(0.1 -0.1)">
       <use xlink:href="#DejaVuSans-50"/>
       <use x="63.623047" xlink:href="#DejaVuSans-48"/>
       <use x="127.246094" xlink:href="#DejaVuSans-48"/>
       <use x="190.869141" xlink:href="#DejaVuSans-48"/>
      </g>
     </g>
    </g>
    <g id="xtick_33">
     <g id="line2d_69">
      <g>
       <use style="stroke:#000000;stroke-width:0.8;" x="664.561404" xlink:href="#ma734751b41" y="1890"/>
      </g>
     </g>
     <g id="text_19">
      <!-- 2005 -->
      <g transform="translate(651.836404 1904.598438)scale(0.1 -0.1)">
       <use xlink:href="#DejaVuSans-50"/>
       <use x="63.623047" xlink:href="#DejaVuSans-48"/>
       <use x="127.246094" xlink:href="#DejaVuSans-48"/>
       <use x="190.869141" xlink:href="#DejaVuSans-53"/>
      </g>
     </g>
    </g>
    <g id="xtick_34">
     <g id="line2d_70">
      <g>
       <use style="stroke:#000000;stroke-width:0.8;" x="773.333333" xlink:href="#ma734751b41" y="1890"/>
      </g>
     </g>
     <g id="text_20">
      <!-- 2010 -->
      <g transform="translate(760.608333 1904.598438)scale(0.1 -0.1)">
       <use xlink:href="#DejaVuSans-50"/>
       <use x="63.623047" xlink:href="#DejaVuSans-48"/>
       <use x="127.246094" xlink:href="#DejaVuSans-49"/>
       <use x="190.869141" xlink:href="#DejaVuSans-48"/>
      </g>
     </g>
    </g>
    <g id="xtick_35">
     <g id="line2d_71">
      <g>
       <use style="stroke:#000000;stroke-width:0.8;" x="882.105263" xlink:href="#ma734751b41" y="1890"/>
      </g>
     </g>
     <g id="text_21">
      <!-- 2015 -->
      <g transform="translate(869.380263 1904.598438)scale(0.1 -0.1)">
       <use xlink:href="#DejaVuSans-50"/>
       <use x="63.623047" xlink:href="#DejaVuSans-48"/>
       <use x="127.246094" xlink:href="#DejaVuSans-49"/>
       <use x="190.869141" xlink:href="#DejaVuSans-53"/>
      </g>
     </g>
    </g>
   </g>
   <g id="matplotlib.axis_14">
    <g id="ytick_31">
     <g id="line2d_72">
      <g>
       <use style="stroke:#000000;stroke-width:0.8;" x="360" xlink:href="#md2b71d999f" y="1890"/>
      </g>
     </g>
     <g id="text_22">
      <!-- 0 -->
      <g transform="translate(346.6375 1893.799219)scale(0.1 -0.1)">
       <use xlink:href="#DejaVuSans-48"/>
      </g>
     </g>
    </g>
    <g id="ytick_32">
     <g id="line2d_73">
      <g>
       <use style="stroke:#000000;stroke-width:0.8;" x="360" xlink:href="#md2b71d999f" y="1800.40545"/>
      </g>
     </g>
     <g id="text_23">
      <!-- 100 -->
      <g transform="translate(333.9125 1804.204669)scale(0.1 -0.1)">
       <use xlink:href="#DejaVuSans-49"/>
       <use x="63.623047" xlink:href="#DejaVuSans-48"/>
       <use x="127.246094" xlink:href="#DejaVuSans-48"/>
      </g>
     </g>
    </g>
    <g id="ytick_33">
     <g id="line2d_74">
      <g>
       <use style="stroke:#000000;stroke-width:0.8;" x="360" xlink:href="#md2b71d999f" y="1710.8109"/>
      </g>
     </g>
     <g id="text_24">
      <!-- 200 -->
      <g transform="translate(333.9125 1714.610119)scale(0.1 -0.1)">
       <use xlink:href="#DejaVuSans-50"/>
       <use x="63.623047" xlink:href="#DejaVuSans-48"/>
       <use x="127.246094" xlink:href="#DejaVuSans-48"/>
      </g>
     </g>
    </g>
    <g id="ytick_34">
     <g id="line2d_75">
      <g>
       <use style="stroke:#000000;stroke-width:0.8;" x="360" xlink:href="#md2b71d999f" y="1621.21635"/>
      </g>
     </g>
     <g id="text_25">
      <!-- 300 -->
      <g transform="translate(333.9125 1625.015569)scale(0.1 -0.1)">
       <use xlink:href="#DejaVuSans-51"/>
       <use x="63.623047" xlink:href="#DejaVuSans-48"/>
       <use x="127.246094" xlink:href="#DejaVuSans-48"/>
      </g>
     </g>
    </g>
    <g id="ytick_35">
     <g id="line2d_76">
      <g>
       <use style="stroke:#000000;stroke-width:0.8;" x="360" xlink:href="#md2b71d999f" y="1531.6218"/>
      </g>
     </g>
     <g id="text_26">
      <!-- 400 -->
      <g transform="translate(333.9125 1535.421019)scale(0.1 -0.1)">
       <use xlink:href="#DejaVuSans-52"/>
       <use x="63.623047" xlink:href="#DejaVuSans-48"/>
       <use x="127.246094" xlink:href="#DejaVuSans-48"/>
      </g>
     </g>
    </g>
   </g>
   <g id="line2d_77">
    <path clip-path="url(#p27f1993518)" d="M 621.052632 1884.624327 
L 642.807018 1875.664872 
L 664.561404 1868.497308 
L 686.315789 1865.809471 
L 708.070175 1866.705417 
L 729.824561 1860.433798 
L 751.578947 1863.121635 
L 773.333333 1856.850016 
L 795.087719 1861.329744 
L 816.842105 1849.682452 
L 838.596491 1839.827052 
L 860.350877 1846.09867 
L 882.105263 1827.283815 
L 903.859649 1843.410834 
L 925.614035 1829.971651 
L 947.368421 1824.595978 
" style="fill:none;stroke:#1f77b4;stroke-dasharray:5.55,2.4;stroke-dashoffset:0;stroke-width:1.5;"/>
    <g clip-path="url(#p27f1993518)">
     <use style="fill:#1f77b4;stroke:#1f77b4;" x="621.052632" xlink:href="#mbd0766de8d" y="1884.624327"/>
     <use style="fill:#1f77b4;stroke:#1f77b4;" x="642.807018" xlink:href="#mbd0766de8d" y="1875.664872"/>
     <use style="fill:#1f77b4;stroke:#1f77b4;" x="664.561404" xlink:href="#mbd0766de8d" y="1868.497308"/>
     <use style="fill:#1f77b4;stroke:#1f77b4;" x="686.315789" xlink:href="#mbd0766de8d" y="1865.809471"/>
     <use style="fill:#1f77b4;stroke:#1f77b4;" x="708.070175" xlink:href="#mbd0766de8d" y="1866.705417"/>
     <use style="fill:#1f77b4;stroke:#1f77b4;" x="729.824561" xlink:href="#mbd0766de8d" y="1860.433798"/>
     <use style="fill:#1f77b4;stroke:#1f77b4;" x="751.578947" xlink:href="#mbd0766de8d" y="1863.121635"/>
     <use style="fill:#1f77b4;stroke:#1f77b4;" x="773.333333" xlink:href="#mbd0766de8d" y="1856.850016"/>
     <use style="fill:#1f77b4;stroke:#1f77b4;" x="795.087719" xlink:href="#mbd0766de8d" y="1861.329744"/>
     <use style="fill:#1f77b4;stroke:#1f77b4;" x="816.842105" xlink:href="#mbd0766de8d" y="1849.682452"/>
     <use style="fill:#1f77b4;stroke:#1f77b4;" x="838.596491" xlink:href="#mbd0766de8d" y="1839.827052"/>
     <use style="fill:#1f77b4;stroke:#1f77b4;" x="860.350877" xlink:href="#mbd0766de8d" y="1846.09867"/>
     <use style="fill:#1f77b4;stroke:#1f77b4;" x="882.105263" xlink:href="#mbd0766de8d" y="1827.283815"/>
     <use style="fill:#1f77b4;stroke:#1f77b4;" x="903.859649" xlink:href="#mbd0766de8d" y="1843.410834"/>
     <use style="fill:#1f77b4;stroke:#1f77b4;" x="925.614035" xlink:href="#mbd0766de8d" y="1829.971651"/>
     <use style="fill:#1f77b4;stroke:#1f77b4;" x="947.368421" xlink:href="#mbd0766de8d" y="1824.595978"/>
    </g>
   </g>
   <g id="patch_33">
    <path d="M 360 1890 
L 360 1460.842105 
" style="fill:none;stroke:#000000;stroke-linecap:square;stroke-linejoin:miter;stroke-width:0.8;"/>
   </g>
   <g id="patch_34">
    <path d="M 947.368421 1890 
L 947.368421 1460.842105 
" style="fill:none;stroke:#000000;stroke-linecap:square;stroke-linejoin:miter;stroke-width:0.8;"/>
   </g>
   <g id="patch_35">
    <path d="M 360 1890 
L 947.368421 1890 
" style="fill:none;stroke:#000000;stroke-linecap:square;stroke-linejoin:miter;stroke-width:0.8;"/>
   </g>
   <g id="patch_36">
    <path d="M 360 1460.842105 
L 947.368421 1460.842105 
" style="fill:none;stroke:#000000;stroke-linecap:square;stroke-linejoin:miter;stroke-width:0.8;"/>
   </g>
   <g id="text_27">
    <!-- q-bio.CB -->
    <g transform="translate(628.351086 1454.842105)scale(0.12 -0.12)">
     <use xlink:href="#DejaVuSans-113"/>
     <use x="63.476562" xlink:href="#DejaVuSans-45"/>
     <use x="99.560547" xlink:href="#DejaVuSans-98"/>
     <use x="163.037109" xlink:href="#DejaVuSans-105"/>
     <use x="190.820312" xlink:href="#DejaVuSans-111"/>
     <use x="251.986328" xlink:href="#DejaVuSans-46"/>
     <use x="283.773438" xlink:href="#DejaVuSans-67"/>
     <use x="353.597656" xlink:href="#DejaVuSans-66"/>
    </g>
   </g>
  </g>
  <g id="axes_8">
   <g id="patch_37">
    <path d="M 1182.315789 1890 
L 1769.684211 1890 
L 1769.684211 1460.842105 
L 1182.315789 1460.842105 
z
" style="fill:#ffffff;"/>
   </g>
   <g id="matplotlib.axis_15">
    <g id="xtick_36">
     <g id="line2d_78">
      <g>
       <use style="stroke:#000000;stroke-width:0.8;" x="1269.333333" xlink:href="#ma734751b41" y="1890"/>
      </g>
     </g>
     <g id="text_28">
      <!-- 1995 -->
      <g transform="translate(1256.608333 1904.598438)scale(0.1 -0.1)">
       <use xlink:href="#DejaVuSans-49"/>
       <use x="63.623047" xlink:href="#DejaVuSans-57"/>
       <use x="127.246094" xlink:href="#DejaVuSans-57"/>
       <use x="190.869141" xlink:href="#DejaVuSans-53"/>
      </g>
     </g>
    </g>
    <g id="xtick_37">
     <g id="line2d_79">
      <g>
       <use style="stroke:#000000;stroke-width:0.8;" x="1378.105263" xlink:href="#ma734751b41" y="1890"/>
      </g>
     </g>
     <g id="text_29">
      <!-- 2000 -->
      <g transform="translate(1365.380263 1904.598438)scale(0.1 -0.1)">
       <use xlink:href="#DejaVuSans-50"/>
       <use x="63.623047" xlink:href="#DejaVuSans-48"/>
       <use x="127.246094" xlink:href="#DejaVuSans-48"/>
       <use x="190.869141" xlink:href="#DejaVuSans-48"/>
      </g>
     </g>
    </g>
    <g id="xtick_38">
     <g id="line2d_80">
      <g>
       <use style="stroke:#000000;stroke-width:0.8;" x="1486.877193" xlink:href="#ma734751b41" y="1890"/>
      </g>
     </g>
     <g id="text_30">
      <!-- 2005 -->
      <g transform="translate(1474.152193 1904.598438)scale(0.1 -0.1)">
       <use xlink:href="#DejaVuSans-50"/>
       <use x="63.623047" xlink:href="#DejaVuSans-48"/>
       <use x="127.246094" xlink:href="#DejaVuSans-48"/>
       <use x="190.869141" xlink:href="#DejaVuSans-53"/>
      </g>
     </g>
    </g>
    <g id="xtick_39">
     <g id="line2d_81">
      <g>
       <use style="stroke:#000000;stroke-width:0.8;" x="1595.649123" xlink:href="#ma734751b41" y="1890"/>
      </g>
     </g>
     <g id="text_31">
      <!-- 2010 -->
      <g transform="translate(1582.924123 1904.598438)scale(0.1 -0.1)">
       <use xlink:href="#DejaVuSans-50"/>
       <use x="63.623047" xlink:href="#DejaVuSans-48"/>
       <use x="127.246094" xlink:href="#DejaVuSans-49"/>
       <use x="190.869141" xlink:href="#DejaVuSans-48"/>
      </g>
     </g>
    </g>
    <g id="xtick_40">
     <g id="line2d_82">
      <g>
       <use style="stroke:#000000;stroke-width:0.8;" x="1704.421053" xlink:href="#ma734751b41" y="1890"/>
      </g>
     </g>
     <g id="text_32">
      <!-- 2015 -->
      <g transform="translate(1691.696053 1904.598438)scale(0.1 -0.1)">
       <use xlink:href="#DejaVuSans-50"/>
       <use x="63.623047" xlink:href="#DejaVuSans-48"/>
       <use x="127.246094" xlink:href="#DejaVuSans-49"/>
       <use x="190.869141" xlink:href="#DejaVuSans-53"/>
      </g>
     </g>
    </g>
   </g>
   <g id="matplotlib.axis_16">
    <g id="ytick_36">
     <g id="line2d_83">
      <g>
       <use style="stroke:#000000;stroke-width:0.8;" x="1182.315789" xlink:href="#md2b71d999f" y="1890"/>
      </g>
     </g>
    </g>
    <g id="ytick_37">
     <g id="line2d_84">
      <g>
       <use style="stroke:#000000;stroke-width:0.8;" x="1182.315789" xlink:href="#md2b71d999f" y="1800.40545"/>
      </g>
     </g>
    </g>
    <g id="ytick_38">
     <g id="line2d_85">
      <g>
       <use style="stroke:#000000;stroke-width:0.8;" x="1182.315789" xlink:href="#md2b71d999f" y="1710.8109"/>
      </g>
     </g>
    </g>
    <g id="ytick_39">
     <g id="line2d_86">
      <g>
       <use style="stroke:#000000;stroke-width:0.8;" x="1182.315789" xlink:href="#md2b71d999f" y="1621.21635"/>
      </g>
     </g>
    </g>
    <g id="ytick_40">
     <g id="line2d_87">
      <g>
       <use style="stroke:#000000;stroke-width:0.8;" x="1182.315789" xlink:href="#md2b71d999f" y="1531.6218"/>
      </g>
     </g>
    </g>
   </g>
   <g id="line2d_88">
    <path clip-path="url(#p2a8978c1a1)" d="M 1443.368421 1888.208109 
L 1465.122807 1873.872981 
L 1486.877193 1870.289199 
L 1508.631579 1869.393253 
L 1530.385965 1871.185144 
L 1552.140351 1865.809471 
L 1573.894737 1880.144599 
L 1595.649123 1875.664872 
L 1617.403509 1867.601362 
L 1639.157895 1862.225689 
L 1660.912281 1839.827052 
L 1682.666667 1855.954071 
L 1704.421053 1825.491924 
L 1726.175439 1818.32436 
L 1747.929825 1816.532469 
L 1769.684211 1796.821668 
" style="fill:none;stroke:#1f77b4;stroke-dasharray:5.55,2.4;stroke-dashoffset:0;stroke-width:1.5;"/>
    <g clip-path="url(#p2a8978c1a1)">
     <use style="fill:#1f77b4;stroke:#1f77b4;" x="1443.368421" xlink:href="#mbd0766de8d" y="1888.208109"/>
     <use style="fill:#1f77b4;stroke:#1f77b4;" x="1465.122807" xlink:href="#mbd0766de8d" y="1873.872981"/>
     <use style="fill:#1f77b4;stroke:#1f77b4;" x="1486.877193" xlink:href="#mbd0766de8d" y="1870.289199"/>
     <use style="fill:#1f77b4;stroke:#1f77b4;" x="1508.631579" xlink:href="#mbd0766de8d" y="1869.393253"/>
     <use style="fill:#1f77b4;stroke:#1f77b4;" x="1530.385965" xlink:href="#mbd0766de8d" y="1871.185144"/>
     <use style="fill:#1f77b4;stroke:#1f77b4;" x="1552.140351" xlink:href="#mbd0766de8d" y="1865.809471"/>
     <use style="fill:#1f77b4;stroke:#1f77b4;" x="1573.894737" xlink:href="#mbd0766de8d" y="1880.144599"/>
     <use style="fill:#1f77b4;stroke:#1f77b4;" x="1595.649123" xlink:href="#mbd0766de8d" y="1875.664872"/>
     <use style="fill:#1f77b4;stroke:#1f77b4;" x="1617.403509" xlink:href="#mbd0766de8d" y="1867.601362"/>
     <use style="fill:#1f77b4;stroke:#1f77b4;" x="1639.157895" xlink:href="#mbd0766de8d" y="1862.225689"/>
     <use style="fill:#1f77b4;stroke:#1f77b4;" x="1660.912281" xlink:href="#mbd0766de8d" y="1839.827052"/>
     <use style="fill:#1f77b4;stroke:#1f77b4;" x="1682.666667" xlink:href="#mbd0766de8d" y="1855.954071"/>
     <use style="fill:#1f77b4;stroke:#1f77b4;" x="1704.421053" xlink:href="#mbd0766de8d" y="1825.491924"/>
     <use style="fill:#1f77b4;stroke:#1f77b4;" x="1726.175439" xlink:href="#mbd0766de8d" y="1818.32436"/>
     <use style="fill:#1f77b4;stroke:#1f77b4;" x="1747.929825" xlink:href="#mbd0766de8d" y="1816.532469"/>
     <use style="fill:#1f77b4;stroke:#1f77b4;" x="1769.684211" xlink:href="#mbd0766de8d" y="1796.821668"/>
    </g>
   </g>
   <g id="patch_38">
    <path d="M 1182.315789 1890 
L 1182.315789 1460.842105 
" style="fill:none;stroke:#000000;stroke-linecap:square;stroke-linejoin:miter;stroke-width:0.8;"/>
   </g>
   <g id="patch_39">
    <path d="M 1769.684211 1890 
L 1769.684211 1460.842105 
" style="fill:none;stroke:#000000;stroke-linecap:square;stroke-linejoin:miter;stroke-width:0.8;"/>
   </g>
   <g id="patch_40">
    <path d="M 1182.315789 1890 
L 1769.684211 1890 
" style="fill:none;stroke:#000000;stroke-linecap:square;stroke-linejoin:miter;stroke-width:0.8;"/>
   </g>
   <g id="patch_41">
    <path d="M 1182.315789 1460.842105 
L 1769.684211 1460.842105 
" style="fill:none;stroke:#000000;stroke-linecap:square;stroke-linejoin:miter;stroke-width:0.8;"/>
   </g>
   <g id="text_33">
    <!-- q-bio.TO -->
    <defs>
     <path d="M -0.296875 72.90625 
L 61.375 72.90625 
L 61.375 64.59375 
L 35.5 64.59375 
L 35.5 0 
L 25.59375 0 
L 25.59375 64.59375 
L -0.296875 64.59375 
z
" id="DejaVuSans-84"/>
     <path d="M 39.40625 66.21875 
Q 28.65625 66.21875 22.328125 58.203125 
Q 16.015625 50.203125 16.015625 36.375 
Q 16.015625 22.609375 22.328125 14.59375 
Q 28.65625 6.59375 39.40625 6.59375 
Q 50.140625 6.59375 56.421875 14.59375 
Q 62.703125 22.609375 62.703125 36.375 
Q 62.703125 50.203125 56.421875 58.203125 
Q 50.140625 66.21875 39.40625 66.21875 
z
M 39.40625 74.21875 
Q 54.734375 74.21875 63.90625 63.9375 
Q 73.09375 53.65625 73.09375 36.375 
Q 73.09375 19.140625 63.90625 8.859375 
Q 54.734375 -1.421875 39.40625 -1.421875 
Q 24.03125 -1.421875 14.8125 8.828125 
Q 5.609375 19.09375 5.609375 36.375 
Q 5.609375 53.65625 14.8125 63.9375 
Q 24.03125 74.21875 39.40625 74.21875 
z
" id="DejaVuSans-79"/>
    </defs>
    <g transform="translate(1450.585313 1454.842105)scale(0.12 -0.12)">
     <use xlink:href="#DejaVuSans-113"/>
     <use x="63.476562" xlink:href="#DejaVuSans-45"/>
     <use x="99.560547" xlink:href="#DejaVuSans-98"/>
     <use x="163.037109" xlink:href="#DejaVuSans-105"/>
     <use x="190.820312" xlink:href="#DejaVuSans-111"/>
     <use x="251.986328" xlink:href="#DejaVuSans-46"/>
     <use x="283.773438" xlink:href="#DejaVuSans-84"/>
     <use x="344.857422" xlink:href="#DejaVuSans-79"/>
    </g>
   </g>
  </g>
  <g id="axes_9">
   <g id="patch_42">
    <path d="M 2004.631579 1890 
L 2592 1890 
L 2592 1460.842105 
L 2004.631579 1460.842105 
z
" style="fill:#ffffff;"/>
   </g>
   <g id="matplotlib.axis_17">
    <g id="xtick_41">
     <g id="line2d_89">
      <g>
       <use style="stroke:#000000;stroke-width:0.8;" x="2091.649123" xlink:href="#ma734751b41" y="1890"/>
      </g>
     </g>
     <g id="text_34">
      <!-- 1995 -->
      <g transform="translate(2078.924123 1904.598438)scale(0.1 -0.1)">
       <use xlink:href="#DejaVuSans-49"/>
       <use x="63.623047" xlink:href="#DejaVuSans-57"/>
       <use x="127.246094" xlink:href="#DejaVuSans-57"/>
       <use x="190.869141" xlink:href="#DejaVuSans-53"/>
      </g>
     </g>
    </g>
    <g id="xtick_42">
     <g id="line2d_90">
      <g>
       <use style="stroke:#000000;stroke-width:0.8;" x="2200.421053" xlink:href="#ma734751b41" y="1890"/>
      </g>
     </g>
     <g id="text_35">
      <!-- 2000 -->
      <g transform="translate(2187.696053 1904.598438)scale(0.1 -0.1)">
       <use xlink:href="#DejaVuSans-50"/>
       <use x="63.623047" xlink:href="#DejaVuSans-48"/>
       <use x="127.246094" xlink:href="#DejaVuSans-48"/>
       <use x="190.869141" xlink:href="#DejaVuSans-48"/>
      </g>
     </g>
    </g>
    <g id="xtick_43">
     <g id="line2d_91">
      <g>
       <use style="stroke:#000000;stroke-width:0.8;" x="2309.192982" xlink:href="#ma734751b41" y="1890"/>
      </g>
     </g>
     <g id="text_36">
      <!-- 2005 -->
      <g transform="translate(2296.467982 1904.598438)scale(0.1 -0.1)">
       <use xlink:href="#DejaVuSans-50"/>
       <use x="63.623047" xlink:href="#DejaVuSans-48"/>
       <use x="127.246094" xlink:href="#DejaVuSans-48"/>
       <use x="190.869141" xlink:href="#DejaVuSans-53"/>
      </g>
     </g>
    </g>
    <g id="xtick_44">
     <g id="line2d_92">
      <g>
       <use style="stroke:#000000;stroke-width:0.8;" x="2417.964912" xlink:href="#ma734751b41" y="1890"/>
      </g>
     </g>
     <g id="text_37">
      <!-- 2010 -->
      <g transform="translate(2405.239912 1904.598438)scale(0.1 -0.1)">
       <use xlink:href="#DejaVuSans-50"/>
       <use x="63.623047" xlink:href="#DejaVuSans-48"/>
       <use x="127.246094" xlink:href="#DejaVuSans-49"/>
       <use x="190.869141" xlink:href="#DejaVuSans-48"/>
      </g>
     </g>
    </g>
    <g id="xtick_45">
     <g id="line2d_93">
      <g>
       <use style="stroke:#000000;stroke-width:0.8;" x="2526.736842" xlink:href="#ma734751b41" y="1890"/>
      </g>
     </g>
     <g id="text_38">
      <!-- 2015 -->
      <g transform="translate(2514.011842 1904.598438)scale(0.1 -0.1)">
       <use xlink:href="#DejaVuSans-50"/>
       <use x="63.623047" xlink:href="#DejaVuSans-48"/>
       <use x="127.246094" xlink:href="#DejaVuSans-49"/>
       <use x="190.869141" xlink:href="#DejaVuSans-53"/>
      </g>
     </g>
    </g>
   </g>
   <g id="matplotlib.axis_18">
    <g id="ytick_41">
     <g id="line2d_94">
      <g>
       <use style="stroke:#000000;stroke-width:0.8;" x="2004.631579" xlink:href="#md2b71d999f" y="1890"/>
      </g>
     </g>
    </g>
    <g id="ytick_42">
     <g id="line2d_95">
      <g>
       <use style="stroke:#000000;stroke-width:0.8;" x="2004.631579" xlink:href="#md2b71d999f" y="1800.40545"/>
      </g>
     </g>
    </g>
    <g id="ytick_43">
     <g id="line2d_96">
      <g>
       <use style="stroke:#000000;stroke-width:0.8;" x="2004.631579" xlink:href="#md2b71d999f" y="1710.8109"/>
      </g>
     </g>
    </g>
    <g id="ytick_44">
     <g id="line2d_97">
      <g>
       <use style="stroke:#000000;stroke-width:0.8;" x="2004.631579" xlink:href="#md2b71d999f" y="1621.21635"/>
      </g>
     </g>
    </g>
    <g id="ytick_45">
     <g id="line2d_98">
      <g>
       <use style="stroke:#000000;stroke-width:0.8;" x="2004.631579" xlink:href="#md2b71d999f" y="1531.6218"/>
      </g>
     </g>
    </g>
   </g>
   <g id="line2d_99">
    <path clip-path="url(#p0c770ea7f3)" d="M 2265.684211 1886.416218 
L 2287.438596 1873.872981 
L 2309.192982 1864.913526 
L 2330.947368 1874.768926 
L 2352.701754 1860.433798 
L 2374.45614 1857.745962 
L 2396.210526 1855.954071 
L 2417.964912 1878.352708 
L 2439.719298 1876.560817 
L 2461.473684 1864.01758 
L 2483.22807 1857.745962 
L 2504.982456 1854.16218 
L 2526.736842 1840.722997 
L 2548.491228 1831.763542 
L 2570.245614 1852.370289 
L 2592 1842.514888 
" style="fill:none;stroke:#1f77b4;stroke-dasharray:5.55,2.4;stroke-dashoffset:0;stroke-width:1.5;"/>
    <g clip-path="url(#p0c770ea7f3)">
     <use style="fill:#1f77b4;stroke:#1f77b4;" x="2265.684211" xlink:href="#mbd0766de8d" y="1886.416218"/>
     <use style="fill:#1f77b4;stroke:#1f77b4;" x="2287.438596" xlink:href="#mbd0766de8d" y="1873.872981"/>
     <use style="fill:#1f77b4;stroke:#1f77b4;" x="2309.192982" xlink:href="#mbd0766de8d" y="1864.913526"/>
     <use style="fill:#1f77b4;stroke:#1f77b4;" x="2330.947368" xlink:href="#mbd0766de8d" y="1874.768926"/>
     <use style="fill:#1f77b4;stroke:#1f77b4;" x="2352.701754" xlink:href="#mbd0766de8d" y="1860.433798"/>
     <use style="fill:#1f77b4;stroke:#1f77b4;" x="2374.45614" xlink:href="#mbd0766de8d" y="1857.745962"/>
     <use style="fill:#1f77b4;stroke:#1f77b4;" x="2396.210526" xlink:href="#mbd0766de8d" y="1855.954071"/>
     <use style="fill:#1f77b4;stroke:#1f77b4;" x="2417.964912" xlink:href="#mbd0766de8d" y="1878.352708"/>
     <use style="fill:#1f77b4;stroke:#1f77b4;" x="2439.719298" xlink:href="#mbd0766de8d" y="1876.560817"/>
     <use style="fill:#1f77b4;stroke:#1f77b4;" x="2461.473684" xlink:href="#mbd0766de8d" y="1864.01758"/>
     <use style="fill:#1f77b4;stroke:#1f77b4;" x="2483.22807" xlink:href="#mbd0766de8d" y="1857.745962"/>
     <use style="fill:#1f77b4;stroke:#1f77b4;" x="2504.982456" xlink:href="#mbd0766de8d" y="1854.16218"/>
     <use style="fill:#1f77b4;stroke:#1f77b4;" x="2526.736842" xlink:href="#mbd0766de8d" y="1840.722997"/>
     <use style="fill:#1f77b4;stroke:#1f77b4;" x="2548.491228" xlink:href="#mbd0766de8d" y="1831.763542"/>
     <use style="fill:#1f77b4;stroke:#1f77b4;" x="2570.245614" xlink:href="#mbd0766de8d" y="1852.370289"/>
     <use style="fill:#1f77b4;stroke:#1f77b4;" x="2592" xlink:href="#mbd0766de8d" y="1842.514888"/>
    </g>
   </g>
   <g id="patch_43">
    <path d="M 2004.631579 1890 
L 2004.631579 1460.842105 
" style="fill:none;stroke:#000000;stroke-linecap:square;stroke-linejoin:miter;stroke-width:0.8;"/>
   </g>
   <g id="patch_44">
    <path d="M 2592 1890 
L 2592 1460.842105 
" style="fill:none;stroke:#000000;stroke-linecap:square;stroke-linejoin:miter;stroke-width:0.8;"/>
   </g>
   <g id="patch_45">
    <path d="M 2004.631579 1890 
L 2592 1890 
" style="fill:none;stroke:#000000;stroke-linecap:square;stroke-linejoin:miter;stroke-width:0.8;"/>
   </g>
   <g id="patch_46">
    <path d="M 2004.631579 1460.842105 
L 2592 1460.842105 
" style="fill:none;stroke:#000000;stroke-linecap:square;stroke-linejoin:miter;stroke-width:0.8;"/>
   </g>
   <g id="text_39">
    <!-- q-bio.SC -->
    <defs>
     <path d="M 53.515625 70.515625 
L 53.515625 60.890625 
Q 47.90625 63.578125 42.921875 64.890625 
Q 37.9375 66.21875 33.296875 66.21875 
Q 25.25 66.21875 20.875 63.09375 
Q 16.5 59.96875 16.5 54.203125 
Q 16.5 49.359375 19.40625 46.890625 
Q 22.3125 44.4375 30.421875 42.921875 
L 36.375 41.703125 
Q 47.40625 39.59375 52.65625 34.296875 
Q 57.90625 29 57.90625 20.125 
Q 57.90625 9.515625 50.796875 4.046875 
Q 43.703125 -1.421875 29.984375 -1.421875 
Q 24.8125 -1.421875 18.96875 -0.25 
Q 13.140625 0.921875 6.890625 3.21875 
L 6.890625 13.375 
Q 12.890625 10.015625 18.65625 8.296875 
Q 24.421875 6.59375 29.984375 6.59375 
Q 38.421875 6.59375 43.015625 9.90625 
Q 47.609375 13.234375 47.609375 19.390625 
Q 47.609375 24.75 44.3125 27.78125 
Q 41.015625 30.8125 33.5 32.328125 
L 27.484375 33.5 
Q 16.453125 35.6875 11.515625 40.375 
Q 6.59375 45.0625 6.59375 53.421875 
Q 6.59375 63.09375 13.40625 68.65625 
Q 20.21875 74.21875 32.171875 74.21875 
Q 37.3125 74.21875 42.625 73.28125 
Q 47.953125 72.359375 53.515625 70.515625 
z
" id="DejaVuSans-83"/>
    </defs>
    <g transform="translate(2273.290164 1454.842105)scale(0.12 -0.12)">
     <use xlink:href="#DejaVuSans-113"/>
     <use x="63.476562" xlink:href="#DejaVuSans-45"/>
     <use x="99.560547" xlink:href="#DejaVuSans-98"/>
     <use x="163.037109" xlink:href="#DejaVuSans-105"/>
     <use x="190.820312" xlink:href="#DejaVuSans-111"/>
     <use x="251.986328" xlink:href="#DejaVuSans-46"/>
     <use x="283.773438" xlink:href="#DejaVuSans-83"/>
     <use x="347.25" xlink:href="#DejaVuSans-67"/>
    </g>
   </g>
  </g>
  <g id="text_40">
   <!-- arXiv q-bio articles per year between 1991 and 2018 -->
   <defs>
    <path d="M 34.28125 27.484375 
Q 23.390625 27.484375 19.1875 25 
Q 14.984375 22.515625 14.984375 16.5 
Q 14.984375 11.71875 18.140625 8.90625 
Q 21.296875 6.109375 26.703125 6.109375 
Q 34.1875 6.109375 38.703125 11.40625 
Q 43.21875 16.703125 43.21875 25.484375 
L 43.21875 27.484375 
z
M 52.203125 31.203125 
L 52.203125 0 
L 43.21875 0 
L 43.21875 8.296875 
Q 40.140625 3.328125 35.546875 0.953125 
Q 30.953125 -1.421875 24.3125 -1.421875 
Q 15.921875 -1.421875 10.953125 3.296875 
Q 6 8.015625 6 15.921875 
Q 6 25.140625 12.171875 29.828125 
Q 18.359375 34.515625 30.609375 34.515625 
L 43.21875 34.515625 
L 43.21875 35.40625 
Q 43.21875 41.609375 39.140625 45 
Q 35.0625 48.390625 27.6875 48.390625 
Q 23 48.390625 18.546875 47.265625 
Q 14.109375 46.140625 10.015625 43.890625 
L 10.015625 52.203125 
Q 14.9375 54.109375 19.578125 55.046875 
Q 24.21875 56 28.609375 56 
Q 40.484375 56 46.34375 49.84375 
Q 52.203125 43.703125 52.203125 31.203125 
z
" id="DejaVuSans-97"/>
    <path d="M 41.109375 46.296875 
Q 39.59375 47.171875 37.8125 47.578125 
Q 36.03125 48 33.890625 48 
Q 26.265625 48 22.1875 43.046875 
Q 18.109375 38.09375 18.109375 28.8125 
L 18.109375 0 
L 9.078125 0 
L 9.078125 54.6875 
L 18.109375 54.6875 
L 18.109375 46.1875 
Q 20.953125 51.171875 25.484375 53.578125 
Q 30.03125 56 36.53125 56 
Q 37.453125 56 38.578125 55.875 
Q 39.703125 55.765625 41.0625 55.515625 
z
" id="DejaVuSans-114"/>
    <path d="M 6.296875 72.90625 
L 16.890625 72.90625 
L 35.015625 45.796875 
L 53.21875 72.90625 
L 63.8125 72.90625 
L 40.375 37.890625 
L 65.375 0 
L 54.78125 0 
L 34.28125 31 
L 13.625 0 
L 2.984375 0 
L 29 38.921875 
z
" id="DejaVuSans-88"/>
    <path d="M 2.984375 54.6875 
L 12.5 54.6875 
L 29.59375 8.796875 
L 46.6875 54.6875 
L 56.203125 54.6875 
L 35.6875 0 
L 23.484375 0 
z
" id="DejaVuSans-118"/>
    <path id="DejaVuSans-32"/>
    <path d="M 18.3125 70.21875 
L 18.3125 54.6875 
L 36.8125 54.6875 
L 36.8125 47.703125 
L 18.3125 47.703125 
L 18.3125 18.015625 
Q 18.3125 11.328125 20.140625 9.421875 
Q 21.96875 7.515625 27.59375 7.515625 
L 36.8125 7.515625 
L 36.8125 0 
L 27.59375 0 
Q 17.1875 0 13.234375 3.875 
Q 9.28125 7.765625 9.28125 18.015625 
L 9.28125 47.703125 
L 2.6875 47.703125 
L 2.6875 54.6875 
L 9.28125 54.6875 
L 9.28125 70.21875 
z
" id="DejaVuSans-116"/>
    <path d="M 48.78125 52.59375 
L 48.78125 44.1875 
Q 44.96875 46.296875 41.140625 47.34375 
Q 37.3125 48.390625 33.40625 48.390625 
Q 24.65625 48.390625 19.8125 42.84375 
Q 14.984375 37.3125 14.984375 27.296875 
Q 14.984375 17.28125 19.8125 11.734375 
Q 24.65625 6.203125 33.40625 6.203125 
Q 37.3125 6.203125 41.140625 7.25 
Q 44.96875 8.296875 48.78125 10.40625 
L 48.78125 2.09375 
Q 45.015625 0.34375 40.984375 -0.53125 
Q 36.96875 -1.421875 32.421875 -1.421875 
Q 20.0625 -1.421875 12.78125 6.34375 
Q 5.515625 14.109375 5.515625 27.296875 
Q 5.515625 40.671875 12.859375 48.328125 
Q 20.21875 56 33.015625 56 
Q 37.15625 56 41.109375 55.140625 
Q 45.0625 54.296875 48.78125 52.59375 
z
" id="DejaVuSans-99"/>
    <path d="M 9.421875 75.984375 
L 18.40625 75.984375 
L 18.40625 0 
L 9.421875 0 
z
" id="DejaVuSans-108"/>
    <path d="M 56.203125 29.59375 
L 56.203125 25.203125 
L 14.890625 25.203125 
Q 15.484375 15.921875 20.484375 11.0625 
Q 25.484375 6.203125 34.421875 6.203125 
Q 39.59375 6.203125 44.453125 7.46875 
Q 49.3125 8.734375 54.109375 11.28125 
L 54.109375 2.78125 
Q 49.265625 0.734375 44.1875 -0.34375 
Q 39.109375 -1.421875 33.890625 -1.421875 
Q 20.796875 -1.421875 13.15625 6.1875 
Q 5.515625 13.8125 5.515625 26.8125 
Q 5.515625 40.234375 12.765625 48.109375 
Q 20.015625 56 32.328125 56 
Q 43.359375 56 49.78125 48.890625 
Q 56.203125 41.796875 56.203125 29.59375 
z
M 47.21875 32.234375 
Q 47.125 39.59375 43.09375 43.984375 
Q 39.0625 48.390625 32.421875 48.390625 
Q 24.90625 48.390625 20.390625 44.140625 
Q 15.875 39.890625 15.1875 32.171875 
z
" id="DejaVuSans-101"/>
    <path d="M 44.28125 53.078125 
L 44.28125 44.578125 
Q 40.484375 46.53125 36.375 47.5 
Q 32.28125 48.484375 27.875 48.484375 
Q 21.1875 48.484375 17.84375 46.4375 
Q 14.5 44.390625 14.5 40.28125 
Q 14.5 37.15625 16.890625 35.375 
Q 19.28125 33.59375 26.515625 31.984375 
L 29.59375 31.296875 
Q 39.15625 29.25 43.1875 25.515625 
Q 47.21875 21.78125 47.21875 15.09375 
Q 47.21875 7.46875 41.1875 3.015625 
Q 35.15625 -1.421875 24.609375 -1.421875 
Q 20.21875 -1.421875 15.453125 -0.5625 
Q 10.6875 0.296875 5.421875 2 
L 5.421875 11.28125 
Q 10.40625 8.6875 15.234375 7.390625 
Q 20.0625 6.109375 24.8125 6.109375 
Q 31.15625 6.109375 34.5625 8.28125 
Q 37.984375 10.453125 37.984375 14.40625 
Q 37.984375 18.0625 35.515625 20.015625 
Q 33.0625 21.96875 24.703125 23.78125 
L 21.578125 24.515625 
Q 13.234375 26.265625 9.515625 29.90625 
Q 5.8125 33.546875 5.8125 39.890625 
Q 5.8125 47.609375 11.28125 51.796875 
Q 16.75 56 26.8125 56 
Q 31.78125 56 36.171875 55.265625 
Q 40.578125 54.546875 44.28125 53.078125 
z
" id="DejaVuSans-115"/>
    <path d="M 18.109375 8.203125 
L 18.109375 -20.796875 
L 9.078125 -20.796875 
L 9.078125 54.6875 
L 18.109375 54.6875 
L 18.109375 46.390625 
Q 20.953125 51.265625 25.265625 53.625 
Q 29.59375 56 35.59375 56 
Q 45.5625 56 51.78125 48.09375 
Q 58.015625 40.1875 58.015625 27.296875 
Q 58.015625 14.40625 51.78125 6.484375 
Q 45.5625 -1.421875 35.59375 -1.421875 
Q 29.59375 -1.421875 25.265625 0.953125 
Q 20.953125 3.328125 18.109375 8.203125 
z
M 48.6875 27.296875 
Q 48.6875 37.203125 44.609375 42.84375 
Q 40.53125 48.484375 33.40625 48.484375 
Q 26.265625 48.484375 22.1875 42.84375 
Q 18.109375 37.203125 18.109375 27.296875 
Q 18.109375 17.390625 22.1875 11.75 
Q 26.265625 6.109375 33.40625 6.109375 
Q 40.53125 6.109375 44.609375 11.75 
Q 48.6875 17.390625 48.6875 27.296875 
z
" id="DejaVuSans-112"/>
    <path d="M 32.171875 -5.078125 
Q 28.375 -14.84375 24.75 -17.8125 
Q 21.140625 -20.796875 15.09375 -20.796875 
L 7.90625 -20.796875 
L 7.90625 -13.28125 
L 13.1875 -13.28125 
Q 16.890625 -13.28125 18.9375 -11.515625 
Q 21 -9.765625 23.484375 -3.21875 
L 25.09375 0.875 
L 2.984375 54.6875 
L 12.5 54.6875 
L 29.59375 11.921875 
L 46.6875 54.6875 
L 56.203125 54.6875 
z
" id="DejaVuSans-121"/>
    <path d="M 4.203125 54.6875 
L 13.1875 54.6875 
L 24.421875 12.015625 
L 35.59375 54.6875 
L 46.1875 54.6875 
L 57.421875 12.015625 
L 68.609375 54.6875 
L 77.59375 54.6875 
L 63.28125 0 
L 52.6875 0 
L 40.921875 44.828125 
L 29.109375 0 
L 18.5 0 
z
" id="DejaVuSans-119"/>
    <path d="M 54.890625 33.015625 
L 54.890625 0 
L 45.90625 0 
L 45.90625 32.71875 
Q 45.90625 40.484375 42.875 44.328125 
Q 39.84375 48.1875 33.796875 48.1875 
Q 26.515625 48.1875 22.3125 43.546875 
Q 18.109375 38.921875 18.109375 30.90625 
L 18.109375 0 
L 9.078125 0 
L 9.078125 54.6875 
L 18.109375 54.6875 
L 18.109375 46.1875 
Q 21.34375 51.125 25.703125 53.5625 
Q 30.078125 56 35.796875 56 
Q 45.21875 56 50.046875 50.171875 
Q 54.890625 44.34375 54.890625 33.015625 
z
" id="DejaVuSans-110"/>
    <path d="M 45.40625 46.390625 
L 45.40625 75.984375 
L 54.390625 75.984375 
L 54.390625 0 
L 45.40625 0 
L 45.40625 8.203125 
Q 42.578125 3.328125 38.25 0.953125 
Q 33.9375 -1.421875 27.875 -1.421875 
Q 17.96875 -1.421875 11.734375 6.484375 
Q 5.515625 14.40625 5.515625 27.296875 
Q 5.515625 40.1875 11.734375 48.09375 
Q 17.96875 56 27.875 56 
Q 33.9375 56 38.25 53.625 
Q 42.578125 51.265625 45.40625 46.390625 
z
M 14.796875 27.296875 
Q 14.796875 17.390625 18.875 11.75 
Q 22.953125 6.109375 30.078125 6.109375 
Q 37.203125 6.109375 41.296875 11.75 
Q 45.40625 17.390625 45.40625 27.296875 
Q 45.40625 37.203125 41.296875 42.84375 
Q 37.203125 48.484375 30.078125 48.484375 
Q 22.953125 48.484375 18.875 42.84375 
Q 14.796875 37.203125 14.796875 27.296875 
z
" id="DejaVuSans-100"/>
    <path d="M 31.78125 34.625 
Q 24.75 34.625 20.71875 30.859375 
Q 16.703125 27.09375 16.703125 20.515625 
Q 16.703125 13.921875 20.71875 10.15625 
Q 24.75 6.390625 31.78125 6.390625 
Q 38.8125 6.390625 42.859375 10.171875 
Q 46.921875 13.96875 46.921875 20.515625 
Q 46.921875 27.09375 42.890625 30.859375 
Q 38.875 34.625 31.78125 34.625 
z
M 21.921875 38.8125 
Q 15.578125 40.375 12.03125 44.71875 
Q 8.5 49.078125 8.5 55.328125 
Q 8.5 64.0625 14.71875 69.140625 
Q 20.953125 74.21875 31.78125 74.21875 
Q 42.671875 74.21875 48.875 69.140625 
Q 55.078125 64.0625 55.078125 55.328125 
Q 55.078125 49.078125 51.53125 44.71875 
Q 48 40.375 41.703125 38.8125 
Q 48.828125 37.15625 52.796875 32.3125 
Q 56.78125 27.484375 56.78125 20.515625 
Q 56.78125 9.90625 50.3125 4.234375 
Q 43.84375 -1.421875 31.78125 -1.421875 
Q 19.734375 -1.421875 13.25 4.234375 
Q 6.78125 9.90625 6.78125 20.515625 
Q 6.78125 27.484375 10.78125 32.3125 
Q 14.796875 37.15625 21.921875 38.8125 
z
M 18.3125 54.390625 
Q 18.3125 48.734375 21.84375 45.5625 
Q 25.390625 42.390625 31.78125 42.390625 
Q 38.140625 42.390625 41.71875 45.5625 
Q 45.3125 48.734375 45.3125 54.390625 
Q 45.3125 60.0625 41.71875 63.234375 
Q 38.140625 66.40625 31.78125 66.40625 
Q 25.390625 66.40625 21.84375 63.234375 
Q 18.3125 60.0625 18.3125 54.390625 
z
" id="DejaVuSans-56"/>
   </defs>
   <g transform="translate(1069.181562 194.075625)scale(0.28 -0.28)">
    <use xlink:href="#DejaVuSans-97"/>
    <use x="61.279297" xlink:href="#DejaVuSans-114"/>
    <use x="102.392578" xlink:href="#DejaVuSans-88"/>
    <use x="170.898438" xlink:href="#DejaVuSans-105"/>
    <use x="198.681641" xlink:href="#DejaVuSans-118"/>
    <use x="257.861328" xlink:href="#DejaVuSans-32"/>
    <use x="289.648438" xlink:href="#DejaVuSans-113"/>
    <use x="353.125" xlink:href="#DejaVuSans-45"/>
    <use x="389.208984" xlink:href="#DejaVuSans-98"/>
    <use x="452.685547" xlink:href="#DejaVuSans-105"/>
    <use x="480.46875" xlink:href="#DejaVuSans-111"/>
    <use x="541.650391" xlink:href="#DejaVuSans-32"/>
    <use x="573.4375" xlink:href="#DejaVuSans-97"/>
    <use x="634.716797" xlink:href="#DejaVuSans-114"/>
    <use x="675.830078" xlink:href="#DejaVuSans-116"/>
    <use x="715.039062" xlink:href="#DejaVuSans-105"/>
    <use x="742.822266" xlink:href="#DejaVuSans-99"/>
    <use x="797.802734" xlink:href="#DejaVuSans-108"/>
    <use x="825.585938" xlink:href="#DejaVuSans-101"/>
    <use x="887.109375" xlink:href="#DejaVuSans-115"/>
    <use x="939.208984" xlink:href="#DejaVuSans-32"/>
    <use x="970.996094" xlink:href="#DejaVuSans-112"/>
    <use x="1034.472656" xlink:href="#DejaVuSans-101"/>
    <use x="1095.996094" xlink:href="#DejaVuSans-114"/>
    <use x="1137.109375" xlink:href="#DejaVuSans-32"/>
    <use x="1168.896484" xlink:href="#DejaVuSans-121"/>
    <use x="1228.076172" xlink:href="#DejaVuSans-101"/>
    <use x="1289.599609" xlink:href="#DejaVuSans-97"/>
    <use x="1350.878906" xlink:href="#DejaVuSans-114"/>
    <use x="1391.992188" xlink:href="#DejaVuSans-32"/>
    <use x="1423.779297" xlink:href="#DejaVuSans-98"/>
    <use x="1487.255859" xlink:href="#DejaVuSans-101"/>
    <use x="1548.779297" xlink:href="#DejaVuSans-116"/>
    <use x="1587.988281" xlink:href="#DejaVuSans-119"/>
    <use x="1669.775391" xlink:href="#DejaVuSans-101"/>
    <use x="1731.298828" xlink:href="#DejaVuSans-101"/>
    <use x="1792.822266" xlink:href="#DejaVuSans-110"/>
    <use x="1856.201172" xlink:href="#DejaVuSans-32"/>
    <use x="1887.988281" xlink:href="#DejaVuSans-49"/>
    <use x="1951.611328" xlink:href="#DejaVuSans-57"/>
    <use x="2015.234375" xlink:href="#DejaVuSans-57"/>
    <use x="2078.857422" xlink:href="#DejaVuSans-49"/>
    <use x="2142.480469" xlink:href="#DejaVuSans-32"/>
    <use x="2174.267578" xlink:href="#DejaVuSans-97"/>
    <use x="2235.546875" xlink:href="#DejaVuSans-110"/>
    <use x="2298.925781" xlink:href="#DejaVuSans-100"/>
    <use x="2362.402344" xlink:href="#DejaVuSans-32"/>
    <use x="2394.189453" xlink:href="#DejaVuSans-50"/>
    <use x="2457.8125" xlink:href="#DejaVuSans-48"/>
    <use x="2521.435547" xlink:href="#DejaVuSans-49"/>
    <use x="2585.058594" xlink:href="#DejaVuSans-56"/>
   </g>
  </g>
 </g>
 <defs>
  <clipPath id="p91e0a1fa90">
   <rect height="429.157895" width="587.368421" x="360" y="259.2"/>
  </clipPath>
  <clipPath id="pa7561718da">
   <rect height="429.157895" width="587.368421" x="1182.315789" y="259.2"/>
  </clipPath>
  <clipPath id="p9dc5040932">
   <rect height="429.157895" width="587.368421" x="2004.631579" y="259.2"/>
  </clipPath>
  <clipPath id="pa08e8b467f">
   <rect height="429.157895" width="587.368421" x="360" y="860.021053"/>
  </clipPath>
  <clipPath id="p21d199c922">
   <rect height="429.157895" width="587.368421" x="1182.315789" y="860.021053"/>
  </clipPath>
  <clipPath id="pb8e0acbb7f">
   <rect height="429.157895" width="587.368421" x="2004.631579" y="860.021053"/>
  </clipPath>
  <clipPath id="p27f1993518">
   <rect height="429.157895" width="587.368421" x="360" y="1460.842105"/>
  </clipPath>
  <clipPath id="p2a8978c1a1">
   <rect height="429.157895" width="587.368421" x="1182.315789" y="1460.842105"/>
  </clipPath>
  <clipPath id="p0c770ea7f3">
   <rect height="429.157895" width="587.368421" x="2004.631579" y="1460.842105"/>
  </clipPath>
 </defs>
</svg>
